<?xml version="1.0" encoding="UTF-8" standalone="no"?>
<!-- Created using Karbon14, part of koffice: http://www.koffice.org/karbon -->
<svg
   xmlns:dc="http://purl.org/dc/elements/1.1/"
   xmlns:cc="http://web.resource.org/cc/"
   xmlns:rdf="http://www.w3.org/1999/02/22-rdf-syntax-ns#"
   xmlns:svg="http://www.w3.org/2000/svg"
   xmlns="http://www.w3.org/2000/svg"
   xmlns:xlink="http://www.w3.org/1999/xlink"
   xmlns:sodipodi="http://sodipodi.sourceforge.net/DTD/sodipodi-0.dtd"
   xmlns:inkscape="http://www.inkscape.org/namespaces/inkscape"
   width="750px"
   height="500px"
   id="svg2"
   sodipodi:version="0.32"
   inkscape:version="0.44"
   sodipodi:docname="Naval_Ensign_of_Bolivia.svg"
   sodipodi:docbase="C:\Documents and Settings\Fam. Ventocilla\Mis documentos\[70443084]">
  <metadata
     id="metadata28">
    <rdf:RDF>
      <cc:Work
         rdf:about="">
        <dc:format>image/svg+xml</dc:format>
        <dc:type
           rdf:resource="http://purl.org/dc/dcmitype/StillImage" />
      </cc:Work>
    </rdf:RDF>
  </metadata>
  <sodipodi:namedview
     inkscape:window-height="712"
     inkscape:window-width="1024"
     inkscape:pageshadow="2"
     inkscape:pageopacity="0.0"
     guidetolerance="10.0"
     gridtolerance="10.0"
     objecttolerance="10.0"
     borderopacity="1.0"
     bordercolor="#666666"
     pagecolor="#ffffff"
     id="base"
     inkscape:zoom="0.5"
     inkscape:cx="454.24789"
     inkscape:cy="592.18114"
     inkscape:window-x="-4"
     inkscape:window-y="-4"
     inkscape:current-layer="g1906" />
  <defs
     id="defs4">
    <linearGradient
       y2="415.83539"
       x2="181.69249"
       y1="453.31204"
       x1="181.69249"
       gradientTransform="matrix(0.588023,0,0,0.483197,268.3458,84.02428)"
       gradientUnits="userSpaceOnUse"
       id="linearGradient3325"
       xlink:href="#linearGradient3092"
       inkscape:collect="always" />
    <linearGradient
       y2="357.53842"
       x2="181.0789"
       y1="393.77765"
       x1="181.15758"
       gradientTransform="matrix(0.588023,0,0,0.483197,268.3458,84.02428)"
       gradientUnits="userSpaceOnUse"
       id="linearGradient3323"
       xlink:href="#linearGradient3102"
       inkscape:collect="always" />
    <linearGradient
       y2="357.53842"
       x2="181.0789"
       y1="393.77765"
       x1="181.15758"
       gradientTransform="matrix(0.588023,0,0,0.483197,268.3458,84.02428)"
       gradientUnits="userSpaceOnUse"
       id="linearGradient10102"
       xlink:href="#linearGradient3102"
       inkscape:collect="always" />
    <linearGradient
       y2="415.83539"
       x2="181.69249"
       y1="453.31204"
       x1="181.69249"
       gradientTransform="matrix(0.588023,0,0,0.483197,268.3458,84.02428)"
       gradientUnits="userSpaceOnUse"
       id="linearGradient10099"
       xlink:href="#linearGradient3092"
       inkscape:collect="always" />
    <linearGradient
       y2="357.53842"
       x2="181.0789"
       y1="393.77765"
       x1="181.15758"
       gradientTransform="translate(39.5,-84)"
       gradientUnits="userSpaceOnUse"
       id="linearGradient2102"
       xlink:href="#linearGradient3102"
       inkscape:collect="always" />
    <linearGradient
       y2="415.83539"
       x2="181.69249"
       y1="453.31204"
       x1="181.69249"
       gradientTransform="translate(39.5,-84)"
       gradientUnits="userSpaceOnUse"
       id="linearGradient2104"
       xlink:href="#linearGradient3092"
       inkscape:collect="always" />
    <linearGradient
       y2="415.83539"
       x2="181.69249"
       y1="453.31204"
       x1="181.69249"
       gradientTransform="translate(39.5,-84)"
       gradientUnits="userSpaceOnUse"
       id="linearGradient2106"
       xlink:href="#linearGradient3092"
       inkscape:collect="always" />
    <linearGradient
       y2="357.53842"
       x2="181.0789"
       y1="393.77765"
       x1="181.15758"
       gradientTransform="translate(39.5,-84)"
       gradientUnits="userSpaceOnUse"
       id="linearGradient2108"
       xlink:href="#linearGradient3102"
       inkscape:collect="always" />
    <linearGradient
       y2="357.53842"
       x2="181.0789"
       y1="393.77765"
       x1="181.15758"
       gradientTransform="translate(39.5,-84)"
       gradientUnits="userSpaceOnUse"
       id="linearGradient2110"
       xlink:href="#linearGradient3102"
       inkscape:collect="always" />
    <linearGradient
       y2="415.83539"
       x2="181.69249"
       y1="453.31204"
       x1="181.69249"
       gradientTransform="translate(39.5,-84)"
       gradientUnits="userSpaceOnUse"
       id="linearGradient2112"
       xlink:href="#linearGradient3092"
       inkscape:collect="always" />
    <linearGradient
       y2="415.83539"
       x2="181.69249"
       y1="453.31204"
       x1="181.69249"
       gradientTransform="translate(39.5,-84)"
       gradientUnits="userSpaceOnUse"
       id="linearGradient2114"
       xlink:href="#linearGradient3092"
       inkscape:collect="always" />
    <linearGradient
       y2="357.53842"
       x2="181.0789"
       y1="393.77765"
       x1="181.15758"
       gradientTransform="translate(39.5,-84)"
       gradientUnits="userSpaceOnUse"
       id="linearGradient2116"
       xlink:href="#linearGradient3102"
       inkscape:collect="always" />
    <linearGradient
       id="linearGradient2118">
      <stop
         id="stop2120"
         offset="0"
         style="stop-color:#009b24;stop-opacity:1;" />
      <stop
         style="stop-color:#ffff00;stop-opacity:0.49803922;"
         offset="1"
         id="stop2122" />
    </linearGradient>
    <linearGradient
       id="linearGradient2124">
      <stop
         id="stop2126"
         offset="0"
         style="stop-color:#ffc400;stop-opacity:1;" />
      <stop
         id="stop2128"
         offset="1"
         style="stop-color:#5affff;stop-opacity:1;" />
    </linearGradient>
    <linearGradient
       y2="415.83539"
       x2="181.69249"
       y1="453.31204"
       x1="181.69249"
       gradientTransform="translate(39.5,-84)"
       gradientUnits="userSpaceOnUse"
       id="linearGradient8106"
       xlink:href="#linearGradient3092"
       inkscape:collect="always" />
    <linearGradient
       y2="357.53842"
       x2="181.0789"
       y1="393.77765"
       x1="181.15758"
       gradientTransform="translate(39.5,-84)"
       gradientUnits="userSpaceOnUse"
       id="linearGradient8104"
       xlink:href="#linearGradient3102"
       inkscape:collect="always" />
    <linearGradient
       y2="357.53842"
       x2="181.0789"
       y1="393.77765"
       x1="181.15758"
       gradientTransform="translate(39.5,-84)"
       gradientUnits="userSpaceOnUse"
       id="linearGradient7055"
       xlink:href="#linearGradient3102"
       inkscape:collect="always" />
    <linearGradient
       y2="415.83539"
       x2="181.69249"
       y1="453.31204"
       x1="181.69249"
       gradientTransform="translate(39.5,-84)"
       gradientUnits="userSpaceOnUse"
       id="linearGradient7052"
       xlink:href="#linearGradient3092"
       inkscape:collect="always" />
    <linearGradient
       y2="415.83539"
       x2="181.69249"
       y1="453.31204"
       x1="181.69249"
       gradientTransform="translate(39.5,-84)"
       gradientUnits="userSpaceOnUse"
       id="linearGradient6652"
       xlink:href="#linearGradient3092"
       inkscape:collect="always" />
    <linearGradient
       y2="357.53842"
       x2="181.0789"
       y1="393.77765"
       x1="181.15758"
       gradientTransform="translate(39.5,-84)"
       gradientUnits="userSpaceOnUse"
       id="linearGradient6650"
       xlink:href="#linearGradient3102"
       inkscape:collect="always" />
    <linearGradient
       id="linearGradient3092">
      <stop
         id="stop3094"
         offset="0"
         style="stop-color:#009b24;stop-opacity:1;" />
      <stop
         style="stop-color:#ffff00;stop-opacity:0.49803922;"
         offset="1"
         id="stop3100" />
    </linearGradient>
    <linearGradient
       id="linearGradient3102">
      <stop
         id="stop3104"
         offset="0"
         style="stop-color:#ffc400;stop-opacity:1;" />
      <stop
         id="stop3106"
         offset="1"
         style="stop-color:#5affff;stop-opacity:1;" />
    </linearGradient>
  </defs>
  <g
     transform="scale(1, -1) translate(0, -500)"
     id="g6">
    <g
       id="g1906">
      <path
         d="M 0,0 L 0,500 L 750,500 L 750,0 L 0,0 z "
         id="path9"
         style="fill:#00a6de;fill-rule:evenodd;stroke-linecap:square;fill-opacity:1" />
      <path
         d="M 0,429.513 L 0,500 L 317.192,500 L 317.192,429.513 L 0,429.513 z "
         id="path11"
         style="fill:#d81d04" />
      <path
         d="M 0,359.026 L 0,429.513 L 317.192,429.513 L 317.192,359.026 L 0,359.026 z "
         id="path13"
         style="fill:#f6e214" />
      <path
         d="M 0,288.539 L 0,359.026 L 317.192,359.026 L 317.192,288.539 L 0,288.539 z "
         id="path15"
         style="fill:#00793d" />
      <path
         id="path4133"
         d="M 42.6838,277.536 L 46.9935,264.274 L 60.9385,264.273 L 49.6571,256.076 L 53.9658,242.814 L 42.6838,251.01 L 31.4018,242.814 L 35.7105,256.076 L 24.4291,264.273 L 38.3741,264.274 L 42.6838,277.536 z "
         style="fill:#f6e214;fill-rule:evenodd;stroke-width:0.70693099;stroke-linecap:square;fill-opacity:1" />
      <path
         id="path4135"
         d="M 356.434,277.536 L 360.744,264.274 L 374.688,264.273 L 363.407,256.076 L 367.716,242.814 L 356.434,251.01 L 345.152,242.814 L 349.461,256.076 L 338.179,264.273 L 352.124,264.274 L 356.434,277.536 z "
         style="fill:#f6e214;fill-rule:evenodd;stroke-width:0.70693099;stroke-linecap:square;fill-opacity:1" />
      <path
         id="path4137"
         d="M 105.434,277.536 L 109.744,264.274 L 123.688,264.273 L 112.407,256.076 L 116.716,242.814 L 105.434,251.01 L 94.1518,242.814 L 98.4605,256.076 L 87.1791,264.273 L 101.124,264.274 L 105.434,277.536 z "
         style="fill:#f6e214;fill-rule:evenodd;stroke-width:0.70693099;stroke-linecap:square;fill-opacity:1" />
      <path
         id="path4139"
         d="M 168.184,277.536 L 172.494,264.274 L 186.438,264.273 L 175.157,256.076 L 179.466,242.814 L 168.184,251.01 L 156.902,242.814 L 161.211,256.076 L 149.929,264.273 L 163.874,264.274 L 168.184,277.536 z "
         style="fill:#f6e214;fill-rule:evenodd;stroke-width:0.70693099;stroke-linecap:square;fill-opacity:1" />
      <path
         id="path4141"
         d="M 230.934,277.536 L 235.244,264.274 L 249.188,264.273 L 237.907,256.076 L 242.216,242.814 L 230.934,251.01 L 219.652,242.814 L 223.961,256.076 L 212.679,264.273 L 226.624,264.274 L 230.934,277.536 z "
         style="fill:#f6e214;fill-rule:evenodd;stroke-width:0.70693099;stroke-linecap:square;fill-opacity:1" />
      <path
         id="path4143"
         d="M 293.684,277.536 L 297.994,264.274 L 311.938,264.273 L 300.657,256.076 L 304.966,242.814 L 293.684,251.01 L 282.402,242.814 L 286.711,256.076 L 275.429,264.273 L 289.374,264.274 L 293.684,277.536 z "
         style="fill:#f6e214;fill-rule:evenodd;stroke-width:0.70693099;stroke-linecap:square;fill-opacity:1" />
      <path
         id="path4145"
         d="M 356.434,474.619 L 360.744,461.357 L 374.688,461.357 L 363.407,453.159 L 367.716,439.897 L 356.434,448.093 L 345.152,439.897 L 349.461,453.159 L 338.179,461.357 L 352.124,461.357 L 356.434,474.619 z "
         style="fill:#f6e214;fill-rule:evenodd;stroke-width:0.70693099;stroke-linecap:square;fill-opacity:1" />
      <path
         id="path4147"
         d="M 356.434,340.453 L 360.744,327.19 L 374.688,327.19 L 363.407,318.993 L 367.716,305.73 L 356.434,313.926 L 345.152,305.73 L 349.461,318.993 L 338.179,327.19 L 352.124,327.19 L 356.434,340.453 z "
         style="fill:#f6e214;fill-rule:evenodd;stroke-width:0.70693099;stroke-linecap:square;fill-opacity:1" />
      <path
         id="path4149"
         d="M 356.434,407.536 L 360.744,394.274 L 374.688,394.273 L 363.407,386.076 L 367.716,372.814 L 356.434,381.01 L 345.152,372.814 L 349.461,386.076 L 338.179,394.273 L 352.124,394.274 L 356.434,407.536 z "
         style="fill:#f6e214;fill-rule:evenodd;stroke-width:0.70693099;stroke-linecap:square;fill-opacity:1" />
      <path
         id="path4153"
         d="M 564.129,210.414 L 573.33,182.1 L 603.101,182.099 L 579.016,164.599 L 588.215,136.284 L 564.129,153.783 L 540.043,136.284 L 549.241,164.599 L 525.157,182.099 L 554.928,182.1 L 564.129,210.414 z "
         style="fill:#f6e214;fill-rule:evenodd;stroke-width:0.83333302;stroke-linecap:square;fill-opacity:1" />
      <g
         id="g3442"
         transform="translate(460,3)">
        <g
           transform="matrix(1.999997,0,0,-2,-315.9992,864.3545)"
           id="g4453" />
      </g>
    </g>
  </g>
</svg>
