<?xml version="1.0" encoding="UTF-8" standalone="no"?>
<!-- Created with Inkscape (http://www.inkscape.org/) -->
<svg
   xmlns:dc="http://purl.org/dc/elements/1.1/"
   xmlns:cc="http://web.resource.org/cc/"
   xmlns:rdf="http://www.w3.org/1999/02/22-rdf-syntax-ns#"
   xmlns:svg="http://www.w3.org/2000/svg"
   xmlns="http://www.w3.org/2000/svg"
   xmlns:sodipodi="http://inkscape.sourceforge.net/DTD/sodipodi-0.dtd"
   xmlns:inkscape="http://www.inkscape.org/namespaces/inkscape"
   version="1.0"
   x="0.0000000"
   y="0.0000000"
   width="744.09448"
   height="496.06299"
   id="svg548"
   sodipodi:version="0.32"
   inkscape:version="0.42"
   sodipodi:docname="flag of congo kinshasa 1960.svg"
   sodipodi:docbase="/home/moyogo/Desktop">
  <metadata
     id="metadata13">
    <rdf:RDF>
      <cc:Work
         rdf:about="">
        <dc:format>image/svg+xml</dc:format>
        <dc:type
           rdf:resource="http://purl.org/dc/dcmitype/StillImage" />
      </cc:Work>
    </rdf:RDF>
  </metadata>
  <sodipodi:namedview
     inkscape:cy="417.84947"
     inkscape:cx="305.25953"
     inkscape:zoom="0.43415836"
     inkscape:window-height="680"
     inkscape:window-width="756"
     inkscape:pageshadow="2"
     inkscape:pageopacity="0.0"
     borderopacity="1.0"
     bordercolor="#666666"
     pagecolor="#ffffff"
     id="base"
     inkscape:window-x="466"
     inkscape:window-y="220"
     inkscape:current-layer="svg548" />
  <defs
     id="defs550" />
  <rect
     width="744.09448"
     height="496.06302"
     x="0.0000000"
     y="-0.00014500000"
     style="font-size:12.000000px;fill:#00a3dd;fill-opacity:1.0000000;fill-rule:evenodd;stroke-width:1.0000000pt"
     id="rect551" />
  <path
     d="M 192.26143,142.48953 L 163.15987,121.31607 L 133.99620,142.40390 L 145.14048,108.18371 L 116.07269,86.963916 L 152.06180,86.988140 L 163.26058,52.785748 L 174.35879,87.020908 L 210.34781,87.102466 L 181.21778,108.23674 L 192.26143,142.48953 z "
     transform="matrix(2.324757,0.000000,0.000000,2.328328,-6.617898,-1.763741)"
     style="font-size:12.000000px;fill:#ffc61e;fill-opacity:1.0000000;fill-rule:evenodd;stroke-width:1.0000000pt"
     id="polygon555" />
  <path
     d="M 192.26143,142.48953 L 163.15987,121.31607 L 133.99620,142.40390 L 145.14048,108.18371 L 116.07269,86.963916 L 152.06180,86.988140 L 163.26058,52.785748 L 174.35879,87.020908 L 210.34781,87.102466 L 181.21778,108.23674 L 192.26143,142.48953 z "
     transform="matrix(0.702023,0.000000,0.000000,0.703102,-54.03374,378.0264)"
     style="font-size:12.000000px;fill:#ffc61e;fill-opacity:1.0000000;fill-rule:evenodd;stroke-width:1.0000000pt"
     id="polygon556" />
  <path
     d="M 192.26143,142.48953 L 163.15987,121.31607 L 133.99620,142.40390 L 145.14048,108.18371 L 116.07269,86.963916 L 152.06180,86.988140 L 163.26058,52.785748 L 174.35879,87.020908 L 210.34781,87.102466 L 181.21778,108.23674 L 192.26143,142.48953 z "
     transform="matrix(0.702023,0.000000,0.000000,0.703102,-54.03374,298.4176)"
     style="font-size:12.000000px;fill:#ffc61e;fill-opacity:1.0000000;fill-rule:evenodd;stroke-width:1.0000000pt"
     id="polygon557" />
  <path
     d="M 192.26143,142.48953 L 163.15987,121.31607 L 133.99620,142.40390 L 145.14048,108.18371 L 116.07269,86.963916 L 152.06180,86.988140 L 163.26058,52.785748 L 174.35879,87.020908 L 210.34781,87.102466 L 181.21778,108.23674 L 192.26143,142.48953 z "
     transform="matrix(0.702023,0.000000,0.000000,0.703102,-54.03374,220.2996)"
     style="font-size:12.000000px;fill:#ffc61e;fill-opacity:1.0000000;fill-rule:evenodd;stroke-width:1.0000000pt"
     id="polygon558" />
  <path
     d="M 192.26143,142.48953 L 163.15987,121.31607 L 133.99620,142.40390 L 145.14048,108.18371 L 116.07269,86.963916 L 152.06180,86.988140 L 163.26058,52.785748 L 174.35879,87.020908 L 210.34781,87.102466 L 181.21778,108.23674 L 192.26143,142.48953 z "
     transform="matrix(0.702023,0.000000,0.000000,0.703102,-54.03374,140.6908)"
     style="font-size:12.000000px;fill:#ffc61e;fill-opacity:1.0000000;fill-rule:evenodd;stroke-width:1.0000000pt"
     id="polygon559" />
  <path
     d="M 192.26143,142.48953 L 163.15987,121.31607 L 133.99620,142.40390 L 145.14048,108.18371 L 116.07269,86.963916 L 152.06180,86.988140 L 163.26058,52.785748 L 174.35879,87.020908 L 210.34781,87.102466 L 181.21778,108.23674 L 192.26143,142.48953 z "
     transform="matrix(0.702023,0.000000,0.000000,0.703102,-54.03374,60.48590)"
     style="font-size:12.000000px;fill:#ffc61e;fill-opacity:1.0000000;fill-rule:evenodd;stroke-width:1.0000000pt"
     id="polygon560" />
  <path
     d="M 192.26143,142.48953 L 163.15987,121.31607 L 133.99620,142.40390 L 145.14048,108.18371 L 116.07269,86.963916 L 152.06180,86.988140 L 163.26058,52.785748 L 174.35879,87.020908 L 210.34781,87.102466 L 181.21778,108.23674 L 192.26143,142.48953 z "
     transform="matrix(0.702023,0.000000,0.000000,0.703102,-54.03374,-19.71944)"
     style="font-size:12.000000px;fill:#ffc61e;fill-opacity:1.0000000;fill-rule:evenodd;stroke-width:1.0000000pt"
     id="polygon561" />
</svg>
