<?xml version="1.0" encoding="UTF-8" standalone="no"?>
<!-- Created with Inkscape (http://www.inkscape.org/) -->
<svg
   xmlns:svg="http://www.w3.org/2000/svg"
   xmlns="http://www.w3.org/2000/svg"
   version="1.0"
   x="0.0000000"
   y="0.0000000"
   width="744.09448"
   height="496.06299"
   id="svg548">
  <defs
     id="defs550" />
  <path
     d="M 660.90625,0.0000000 L 0.0000000,438.06250 L 0.0000000,496.06250 L 86.937500,496.06250 L 744.09375,60.500000 L 744.09375,0.0000000 L 660.90625,0.0000000 z "
     style="font-size:12.000000px;opacity:1.0000000;fill:#ce1021;fill-opacity:1.0000000;fill-rule:evenodd;stroke-width:1.0000000pt"
     id="rect5771" />
  <path
     d="M -0.00090226630,0.0010012390 L -0.00090226630,438.06351 L 660.90534,0.0010012390 L -0.00090226630,0.0010012390 z "
     style="font-size:12.000000px;opacity:1.0000000;fill:#0039a5;fill-opacity:1.0000000;fill-rule:evenodd;stroke-width:1.0000000pt"
     id="rect2111" />
  <path
     d="M 204.99837,248.56442 L 137.34431,199.26566 L 69.545865,248.36505 L 95.453608,168.68922 L 27.878060,119.28258 L 111.54400,119.33898 L 137.57844,39.704593 L 163.37908,119.41527 L 247.04481,119.60517 L 179.32456,168.81269 L 204.99837,248.56442 z "
     style="font-size:12.000000px;opacity:1.0000000;fill:#f7d618;fill-opacity:1.0000000;fill-rule:evenodd;stroke-width:1.0000000pt"
     id="polygon555" />
  <path
     d="M 0.0000000,438.03156 L 0.0000000,-0.00014500000 L 0.0000000,-0.00014500000 L 658.53190,-0.00014500000"
     style="font-size:12.000000px;opacity:0.51098901;fill:none;fill-opacity:1.0000000;fill-rule:evenodd;stroke-width:1.0000000pt"
     id="path2078" />
  <path
     d="M 658.53190,-0.00014500000 L 744.09448,-0.00014500000 L 744.09448,496.06287 L 0.0000000,496.06287 L 0.0000000,438.03156"
     style="font-size:12.000000px;opacity:0.51098901;fill:none;fill-opacity:1.0000000;fill-rule:evenodd;stroke-width:1.0000000pt"
     id="rect2060" />
  <path
     d="M 744.09375,60.500000 L 86.937500,496.06250 L 744.09375,496.06250 L 744.09375,60.500000 z "
     style="fill:#0039a5;fill-opacity:1.0000000;fill-rule:evenodd;stroke:none;stroke-width:0.25000000pt;stroke-linecap:butt;stroke-linejoin:miter;stroke-opacity:1.0000000"
     id="path2133" />
  <path
     d="M -0.0096688711,429.47236 L 641.68536,0.0084661499 L 666.59517,0.0084661499 L 0.013013038,444.66944 L -0.0096688711,429.47236 z "
     style="fill:#f7d618;fill-opacity:1.0000000;fill-rule:evenodd;stroke:none;stroke-width:0.25000000pt;stroke-linecap:butt;stroke-linejoin:miter;stroke-opacity:1.0000000"
     id="path8693" />
  <path
     d="M 744.11543,68.791554 L 105.22570,496.15449 L 81.091958,496.15449 L 744.12844,53.358885 L 744.11543,68.791554 z "
     style="fill:#f7d618;fill-opacity:1.0000000;fill-rule:evenodd;stroke:none;stroke-width:0.25000000pt;stroke-linecap:butt;stroke-linejoin:miter;stroke-opacity:1.0000000"
     id="path9422" />
</svg>
