<?xml version="1.0" encoding="UTF-8" standalone="no"?>
<!-- Created with Inkscape (http://www.inkscape.org/) -->
<svg
   xmlns:dc="http://purl.org/dc/elements/1.1/"
   xmlns:cc="http://web.resource.org/cc/"
   xmlns:rdf="http://www.w3.org/1999/02/22-rdf-syntax-ns#"
   xmlns:svg="http://www.w3.org/2000/svg"
   xmlns="http://www.w3.org/2000/svg"
   xmlns:sodipodi="http://inkscape.sourceforge.net/DTD/sodipodi-0.dtd"
   xmlns:inkscape="http://www.inkscape.org/namespaces/inkscape"
   version="1.0"
   x="0.00000000"
   y="0.00000000"
   width="450.00000"
   height="300.00000"
   id="svg2"
   sodipodi:version="0.32"
   inkscape:version="0.43"
   sodipodi:docname="Flag_of_the_Democratic_Republic_of_the_Congo.svg"
   sodipodi:docbase="C:\Documents and Settings\David Nelson\Archives\Svg">
  <metadata
     id="metadata1804">
    <rdf:RDF>
      <cc:Work
         rdf:about="">
        <dc:format>image/svg+xml</dc:format>
        <dc:type
           rdf:resource="http://purl.org/dc/dcmitype/StillImage" />
      </cc:Work>
    </rdf:RDF>
  </metadata>
  <sodipodi:namedview
     inkscape:window-height="540"
     inkscape:window-width="756"
     inkscape:pageshadow="2"
     inkscape:pageopacity="0.0"
     borderopacity="1.0"
     bordercolor="#666666"
     pagecolor="#ffffff"
     id="base"
     inkscape:zoom="1.2433333"
     inkscape:cx="225"
     inkscape:cy="150"
     inkscape:window-x="46"
     inkscape:window-y="152"
     inkscape:current-layer="svg2" />
  <defs
     id="defs4" />
  <rect
     width="450.00018"
     height="300.00012"
     x="0"
     y="-0.000132"
     style="fill:#0035AD;fill-opacity:1;fill-rule:evenodd"
     id="rect1306" />
  <path
     d="M 259.01621,202.03257 L 225.08241,177.07722 L 191.25287,202.17372 L 204.5007,162.18913 L 170.17861,137.77057 L 212.30002,138.01409 L 224.91734,97.826089 L 237.70197,137.96118 L 279.822,137.54219 L 245.60192,162.10352 L 259.01621,202.03257 z "
     style="fill:#FFD100;fill-opacity:1;fill-rule:evenodd"
     id="path2035" />
  <g
     id="g2795"
     transform="matrix(1.173626,0,0,1.173626,0.266616,-9.613067)"
     style="fill:#FFD100;fill-opacity:1">
    <g
       id="g2767"
       style="fill:#FFD100;fill-opacity:1">
      <path
         d="M -345.7143,24.571418 L -422.75496,-32.085289 L -499.55895,24.89186 L -469.48209,-65.886055 L -547.40432,-121.32408 L -451.77513,-120.77121 L -423.12973,-212.01094 L -394.1045,-120.89133 L -298.47844,-121.84256 L -376.16905,-66.080419 L -345.7143,24.571418 z "
         transform="matrix(0.135076,0,0,0.135076,93.94119,48.63759)"
         style="fill:#FFD100;fill-opacity:1;fill-rule:evenodd"
         id="path2763" />
      <path
         d="M -345.7143,24.571418 L -422.75496,-32.085289 L -499.55895,24.89186 L -469.48209,-65.886055 L -547.40432,-121.32408 L -451.77513,-120.77121 L -423.12973,-212.01094 L -394.1045,-120.89133 L -298.47844,-121.84256 L -376.16905,-66.080419 L -345.7143,24.571418 z "
         transform="matrix(0.135076,0,0,0.135076,93.94119,88.63759)"
         style="fill:#FFD100;fill-opacity:1;fill-rule:evenodd"
         id="path2765" />
    </g>
    <g
       transform="translate(-4.195038e-6,80.00012)"
       id="g2777"
       style="fill:#FFD100;fill-opacity:1">
      <path
         d="M -345.7143,24.571418 L -422.75496,-32.085289 L -499.55895,24.89186 L -469.48209,-65.886055 L -547.40432,-121.32408 L -451.77513,-120.77121 L -423.12973,-212.01094 L -394.1045,-120.89133 L -298.47844,-121.84256 L -376.16905,-66.080419 L -345.7143,24.571418 z "
         transform="matrix(0.135076,0,0,0.135076,93.94119,48.63759)"
         style="fill:#FFD100;fill-opacity:1;fill-rule:evenodd"
         id="path2779" />
      <path
         d="M -345.7143,24.571418 L -422.75496,-32.085289 L -499.55895,24.89186 L -469.48209,-65.886055 L -547.40432,-121.32408 L -451.77513,-120.77121 L -423.12973,-212.01094 L -394.1045,-120.89133 L -298.47844,-121.84256 L -376.16905,-66.080419 L -345.7143,24.571418 z "
         transform="matrix(0.135076,0,0,0.135076,93.94119,88.63759)"
         style="fill:#FFD100;fill-opacity:1;fill-rule:evenodd"
         id="path2781" />
    </g>
    <g
       transform="translate(-4.195038e-6,160)"
       id="g2789"
       style="fill:#FFD100;fill-opacity:1">
      <path
         d="M -345.7143,24.571418 L -422.75496,-32.085289 L -499.55895,24.89186 L -469.48209,-65.886055 L -547.40432,-121.32408 L -451.77513,-120.77121 L -423.12973,-212.01094 L -394.1045,-120.89133 L -298.47844,-121.84256 L -376.16905,-66.080419 L -345.7143,24.571418 z "
         transform="matrix(0.135076,0,0,0.135076,93.94119,48.63759)"
         style="fill:#FFD100;fill-opacity:1;fill-rule:evenodd"
         id="path2791" />
      <path
         d="M -345.7143,24.571418 L -422.75496,-32.085289 L -499.55895,24.89186 L -469.48209,-65.886055 L -547.40432,-121.32408 L -451.77513,-120.77121 L -423.12973,-212.01094 L -394.1045,-120.89133 L -298.47844,-121.84256 L -376.16905,-66.080419 L -345.7143,24.571418 z "
         transform="matrix(0.135076,0,0,0.135076,93.94119,88.63759)"
         style="fill:#FFD100;fill-opacity:1;fill-rule:evenodd"
         id="path2793" />
    </g>
  </g>
</svg>
