<?xml version="1.0" encoding="UTF-8" standalone="no"?>
<!-- Creator: CorelDRAW -->
<svg
   xmlns:dc="http://purl.org/dc/elements/1.1/"
   xmlns:cc="http://web.resource.org/cc/"
   xmlns:rdf="http://www.w3.org/1999/02/22-rdf-syntax-ns#"
   xmlns:svg="http://www.w3.org/2000/svg"
   xmlns="http://www.w3.org/2000/svg"
   xmlns:sodipodi="http://inkscape.sourceforge.net/DTD/sodipodi-0.dtd"
   xmlns:inkscape="http://www.inkscape.org/namespaces/inkscape"
   xml:space="preserve"
   width="599px"
   height="300px"
   style="shape-rendering:geometricPrecision; text-rendering:geometricPrecision; image-rendering:optimizeQuality; fill-rule:evenodd"
   viewBox="0 0 600 300"
   id="svg2"
   sodipodi:version="0.32"
   inkscape:version="0.43"
   sodipodi:docname="Flag_of_Macedonia_1991-95.svg"
   sodipodi:docbase="C:\Documents and Settings\empresa\Escritorio"><metadata
   id="metadata46"><rdf:RDF><cc:Work
       rdf:about=""><dc:format>image/svg+xml</dc:format><dc:type
         rdf:resource="http://purl.org/dc/dcmitype/StillImage" /></cc:Work></rdf:RDF></metadata><sodipodi:namedview
   inkscape:window-height="964"
   inkscape:window-width="1280"
   inkscape:pageshadow="2"
   inkscape:pageopacity="0.0"
   borderopacity="1.0"
   bordercolor="#666666"
   pagecolor="#ffffff"
   id="base"
   inkscape:zoom="0.43958472"
   inkscape:cx="-97.02648"
   inkscape:cy="606.82897"
   inkscape:window-x="-4"
   inkscape:window-y="-4"
   inkscape:current-layer="Layer 1" />
 <defs
   id="defs4">
  <style
   type="text/css"
   id="style6">
   
    .fil0 {fill:#FF0000}
    .fil1 {fill:#FFFF00}
   
  </style>
 </defs>
 <path
   class="fil0"
   d="M0 0l600 0 0 300 -600 0 0 -300z"
   id="path8"
   style="fill:#cc0000;fill-opacity:1" />
 <g
   id="Layer 1">
  <circle
   class="fil1"
   cx="300"
   cy="152"
   r="26"
   id="circle11"
   style="fill:#ffd700;fill-opacity:1" />
  <path
   class="fil1"
   d="M338 159c-4,1 -7,-3 -7,-7 0,-4 3,-8 7,-7l105 7 -105 7z"
   id="path13"
   style="fill:#ffd700;fill-opacity:1" />
  <path
   class="fil1"
   d="M307 112c1,4 -3,8 -7,8 -4,0 -8,-4 -7,-8l7 -105 7 105z"
   id="path15"
   style="fill:#ffd700;fill-opacity:1" />
  <path
   class="fil1"
   d="M261 145c4,-1 8,3 8,7 0,4 -4,8 -8,7l-105 -7 105 -7z"
   id="path17"
   style="fill:#ffd700;fill-opacity:1" />
  <path
   class="fil1"
   d="M293 190c-1,-4 3,-8 7,-8 4,0 8,4 7,8l-7 105 -7 -105z"
   id="path19"
   style="fill:#ffd700;fill-opacity:1" />
  <path
   class="fil1"
   d="M333 129c-3,3 -8,3 -11,0 -3,-3 -3,-8 0,-10l80 -70 -69 80z"
   id="path21"
   style="fill:#ffd700;fill-opacity:1" />
  <path
   class="fil1"
   d="M278 119c3,3 3,8 0,11 -3,3 -8,3 -10,0l-70 -80 80 69z"
   id="path23"
   style="fill:#ffd700;fill-opacity:1" />
  <path
   class="fil1"
   d="M268 174c2,-3 7,-3 10,0 3,3 3,7 0,10l-80 69 70 -79z"
   id="path25"
   style="fill:#ffd700;fill-opacity:1" />
  <path
   class="fil1"
   d="M322 184c-3,-3 -3,-7 0,-10 3,-3 8,-3 11,0l69 79 -80 -69z"
   id="path27"
   style="fill:#ffd700;fill-opacity:1" />
  <path
   class="fil1"
   d="M324 113c-1,4 -5,5 -9,3 -4,-1 -6,-5 -5,-8l41 -79 -27 84z"
   id="path29"
   style="fill:#ffd700;fill-opacity:1" />
  <path
   class="fil1"
   d="M290 108c1,3 -1,7 -5,8 -4,2 -8,1 -9,-3l-27 -84 41 79z"
   id="path31"
   style="fill:#ffd700;fill-opacity:1" />
  <path
   class="fil1"
   d="M260 128c4,1 5,5 3,9 -1,4 -5,6 -8,4l-79 -40 84 27z"
   id="path33"
   style="fill:#ffd700;fill-opacity:1" />
  <path
   class="fil1"
   d="M255 162c3,-2 7,1 8,5 2,3 1,8 -2,9l-85 27 79 -41z"
   id="path35"
   style="fill:#ffd700;fill-opacity:1" />
  <path
   class="fil1"
   d="M276 191c1,-4 5,-5 9,-3 4,1 6,5 4,8l-40 79 27 -84z"
   id="path37"
   style="fill:#ffd700;fill-opacity:1" />
  <path
   class="fil1"
   d="M310 196c-1,-3 1,-7 5,-9 4,-1 8,0 9,3l27 85 -41 -79z"
   id="path39"
   style="fill:#ffd700;fill-opacity:1" />
  <path
   class="fil1"
   d="M338 176c-3,-1 -4,-6 -3,-10 2,-3 6,-6 9,-4l79 41 -85 -27z"
   id="path41"
   style="fill:#ffd700;fill-opacity:1" />
  <path
   class="fil1"
   d="M345 141c-3,2 -7,-1 -9,-5 -1,-3 0,-8 3,-9l85 -27 -79 41z"
   id="path43"
   style="fill:#ffd700;fill-opacity:1" />
 </g>
</svg>