<?xml version="1.0" encoding="UTF-8" standalone="no"?>
<!DOCTYPE svg PUBLIC "-//W3C//DTD SVG 1.0//EN"
"http://www.w3.org/TR/2001/REC-SVG-20010904/DTD/svg10.dtd">
<!-- Created with Inkscape (http://www.inkscape.org/) -->
<svg
   xmlns="http://www.w3.org/2000/svg"
   xmlns:xlink="http://www.w3.org/1999/xlink"
   version="1.0"
   x="0.0000000"
   y="0.0000000"
   width="450.00000"
   height="300.00000"
   id="svg1">
  <defs
     id="defs3" />
  <g
     id="layer1">
    <rect
       width="450.00000"
       height="300.00000"
       x="125.00000"
       y="377.36218"
       transform="translate(-125.0000,-377.3622)"
       style="fill:#14b53a;fill-opacity:1.0000000;stroke:none;stroke-width:25.000000;stroke-linecap:butt;stroke-linejoin:miter;stroke-miterlimit:4.0000000;stroke-opacity:1.0000000"
       id="rect1061" />
    <rect
       width="300.00000"
       height="300.00000"
       x="275.00000"
       y="377.36218"
       transform="translate(-125.0000,-377.3622)"
       style="fill:#fcd116;fill-opacity:1.0000000;stroke:none;stroke-width:25.000000;stroke-linecap:butt;stroke-linejoin:miter;stroke-miterlimit:4.0000000;stroke-opacity:1.0000000"
       id="rect1683" />
    <rect
       width="150.00000"
       height="300.00000"
       x="425.00000"
       y="377.36218"
       transform="translate(-125.0000,-377.3622)"
       style="fill:#ce1126;fill-opacity:1.0000000;stroke:none;stroke-width:25.000000;stroke-linecap:butt;stroke-linejoin:miter;stroke-miterlimit:4.0000000;stroke-opacity:1.0000000"
       id="rect2305" />
    <path
       d="M 300.00000,637.55162 L 310.00000,637.55162 L 310.00000,607.55162 L 390.00000,607.55162 L 390.00000,637.55162 L 400.00000,637.55162 L 400.00000,597.55162 L 355.00000,597.55162 L 355.00000,507.55162 L 400.00000,507.55162 L 400.00000,467.55162 L 390.00000,467.55162 L 390.00000,497.55162 L 355.00000,497.55162 L 355.00000,467.55162 L 345.00000,467.55162 L 345.00000,497.55162 L 310.00000,497.55162 L 310.00000,467.55162 L 300.00000,467.55162 L 300.00000,507.55162 L 345.00000,507.55162 L 345.00000,597.55162 L 300.00000,597.55162 L 300.00000,637.55162 z "
       transform="translate(-125.0000,-377.3622)"
       style="fill:#000000;fill-opacity:1.0000000;fill-rule:evenodd;stroke:none;stroke-width:0.25000000pt;stroke-linecap:butt;stroke-linejoin:miter;stroke-opacity:1.0000000"
       id="path1091" />
    <path
       d="M 371.53861 443.48093 A 22.629122 22.629122 0 1 1  326.28036,443.48093 A 22.629122 22.629122 0 1 1  371.53861 443.48093 z"
       transform="matrix(0.837209,0.000000,0.000000,0.837209,-67.11016,-286.3514)"
       style="fill:#000000;fill-opacity:1.0000000;stroke:none;stroke-width:25.000000;stroke-linecap:butt;stroke-linejoin:miter;stroke-miterlimit:4.0000000;stroke-opacity:1.0000000"
       id="path1714" />
  </g>
</svg>
