<?xml version="1.0" encoding="UTF-8" standalone="no"?>
<!-- Created with Inkscape (http://www.inkscape.org/) -->
<svg
   xmlns:dc="http://purl.org/dc/elements/1.1/"
   xmlns:cc="http://web.resource.org/cc/"
   xmlns:rdf="http://www.w3.org/1999/02/22-rdf-syntax-ns#"
   xmlns:svg="http://www.w3.org/2000/svg"
   xmlns="http://www.w3.org/2000/svg"
   xmlns:xlink="http://www.w3.org/1999/xlink"
   xmlns:sodipodi="http://inkscape.sourceforge.net/DTD/sodipodi-0.dtd"
   xmlns:inkscape="http://www.inkscape.org/namespaces/inkscape"
   width="750"
   height="500"
   id="svg2475"
   sodipodi:version="0.32"
   inkscape:version="0.43"
   version="1.0"
   sodipodi:docbase="C:\Documents and Settings\David Nelson\Archives\Svg"
   sodipodi:docname="Naval_Jack_of_Saudi_Arabia.svg">
  <defs
     id="defs2477" />
  <sodipodi:namedview
     id="base"
     pagecolor="#ffffff"
     bordercolor="#666666"
     borderopacity="1.0"
     inkscape:pageopacity="0.0"
     inkscape:pageshadow="2"
     inkscape:zoom="0.746"
     inkscape:cx="375"
     inkscape:cy="250"
     inkscape:document-units="px"
     inkscape:current-layer="layer1"
     inkscape:window-width="756"
     inkscape:window-height="540"
     inkscape:window-x="14"
     inkscape:window-y="8"
     showguides="true"
     inkscape:guide-bbox="true" />
  <metadata
     id="metadata2480">
    <rdf:RDF>
      <cc:Work
         rdf:about="">
        <dc:format>image/svg+xml</dc:format>
        <dc:type
           rdf:resource="http://purl.org/dc/dcmitype/StillImage" />
      </cc:Work>
    </rdf:RDF>
  </metadata>
  <g
     inkscape:label="Layer 1"
     inkscape:groupmode="layer"
     id="layer1">
    <rect
       style="fill:#0a51a1;fill-opacity:1;fill-rule:nonzero;stroke:none;stroke-width:1;stroke-linecap:square;stroke-linejoin:bevel;stroke-miterlimit:4;stroke-dasharray:none;stroke-dashoffset:0.99999998;stroke-opacity:1"
       id="rect5015"
       width="750"
       height="500"
       x="0"
       y="0" />
    <g
       id="g5830"
       transform="translate(-1.078021e-4,0)">
      <path
         transform="matrix(-5.888805,0,0,-5.888805,1184.608,1003.902)"
         d="M 159.73941 128.02299 A 22.25687 22.25687 0 1 1  115.22567,128.02299 A 22.25687 22.25687 0 1 1  159.73941 128.02299 z"
         sodipodi:ry="22.25687"
         sodipodi:rx="22.25687"
         sodipodi:cy="128.02299"
         sodipodi:cx="137.48254"
         id="path3475"
         style="fill:#ffffff;fill-opacity:1;fill-rule:nonzero;stroke:none;stroke-width:0.33166748;stroke-linecap:square;stroke-linejoin:round;stroke-miterlimit:4;stroke-dasharray:none;stroke-dashoffset:0.99999998;stroke-opacity:1"
         sodipodi:type="arc" />
      <g
         transform="translate(1.078e-4,0)"
         id="g5742">
        <g
           id="g3650"
           transform="matrix(1.953125,0,0,1.953125,0.366439,4.530422e-4)">
          <path
             transform="matrix(2.62083,0,0,2.62083,-218.0933,-193.3541)"
             d="M 167.16204 122.87095 A 10.760431 10.760431 0 1 1  145.64118,122.87095 A 10.760431 10.760431 0 1 1  167.16204 122.87095 z"
             sodipodi:ry="10.760431"
             sodipodi:rx="10.760431"
             sodipodi:cy="122.87095"
             sodipodi:cx="156.40161"
             id="path3502"
             style="fill:#0a51a1;fill-opacity:1;fill-rule:nonzero;stroke:#b83700;stroke-width:1.52623427;stroke-linecap:square;stroke-linejoin:round;stroke-miterlimit:4;stroke-dasharray:none;stroke-dashoffset:0.99999998;stroke-opacity:1"
             sodipodi:type="arc" />
          <g
             id="g3496">
            <path
               style="fill:#b83700;fill-opacity:1;fill-rule:evenodd;stroke:none;stroke-width:4;stroke-linecap:square;stroke-linejoin:miter;stroke-miterlimit:4;stroke-dasharray:none;stroke-opacity:1"
               d="M 191.09375,92 C 189.42505,92.114843 188.05288,92.652767 187.46875,93.34375 C 187.44273,93.375703 187.39759,93.436088 187.375,93.46875 C 187.32613,93.542623 187.28061,93.641706 187.25,93.71875 C 187.23416,93.761731 187.1974,93.831177 187.1875,93.875 C 187.17707,93.927777 187.18902,94.008671 187.1875,94.0625 C 187.1875,94.11649 187.17854,94.197037 187.1875,94.25 C 187.2153,94.390739 187.28812,94.556171 187.375,94.6875 C 187.41453,94.744658 187.48134,94.820062 187.53125,94.875 C 187.97139,95.343014 188.79901,95.748887 189.8125,95.96875 L 189.8125,161.375 C 188.74833,161.60586 187.89174,162.03088 187.46875,162.53125 C 187.44273,162.5632 187.39759,162.62359 187.375,162.65625 C 187.32613,162.73012 187.28061,162.82921 187.25,162.90625 C 187.23416,162.94923 187.1974,163.01868 187.1875,163.0625 C 187.17707,163.11528 187.18902,163.19617 187.1875,163.25 C 187.1875,163.30399 187.17854,163.38454 187.1875,163.4375 C 187.20488,163.52546 187.24034,163.63426 187.28125,163.71875 C 187.33738,163.82809 187.43856,163.96047 187.53125,164.0625 C 188.23547,164.81132 189.89284,165.34375 191.8125,165.34375 C 193.73216,165.34375 195.38953,164.81132 196.09375,164.0625 C 196.18644,163.96047 196.28762,163.82809 196.34375,163.71875 C 196.38466,163.63426 196.42012,163.52546 196.4375,163.4375 C 196.44646,163.38454 196.4375,163.30399 196.4375,163.25 C 196.43598,163.19617 196.44793,163.11528 196.4375,163.0625 C 196.4276,163.01868 196.39084,162.94923 196.375,162.90625 C 196.34439,162.82921 196.29887,162.73012 196.25,162.65625 C 196.22741,162.62359 196.18227,162.5632 196.15625,162.53125 C 195.73326,162.03088 194.87666,161.60586 193.8125,161.375 L 193.8125,95.96875 C 194.82599,95.748887 195.65361,95.343014 196.09375,94.875 C 196.14366,94.820062 196.21047,94.744658 196.25,94.6875 C 196.33688,94.556171 196.4097,94.390739 196.4375,94.25 C 196.44646,94.197037 196.4375,94.11649 196.4375,94.0625 C 196.43598,94.008671 196.44793,93.927777 196.4375,93.875 C 196.4276,93.831177 196.39084,93.761731 196.375,93.71875 C 196.34439,93.641706 196.29887,93.542623 196.25,93.46875 C 196.22741,93.436088 196.18227,93.375703 196.15625,93.34375 C 195.49155,92.557458 193.79214,91.999997 191.8125,92 C 191.57254,92 191.32392,91.98416 191.09375,92 z "
               id="path3471" />
            <use
               x="0"
               y="0"
               xlink:href="#path3471"
               id="use3490"
               transform="matrix(0.707107,0.707107,-0.707107,0.707107,147.1628,-97.94583)"
               width="384"
               height="256" />
            <use
               height="256"
               width="384"
               transform="matrix(-8.852539e-8,1,-1,-8.852539e-8,320.4807,-63.14435)"
               id="use3492"
               xlink:href="#path3471"
               y="0"
               x="0" />
            <use
               x="0"
               y="0"
               xlink:href="#path3471"
               id="use3494"
               transform="matrix(-0.707107,0.707107,-0.707107,-0.707107,418.4265,84.01851)"
               width="384"
               height="256" />
          </g>
        </g>
        <rect
           style="fill:#d9dad9;fill-opacity:1;fill-rule:nonzero;stroke:none;stroke-width:0.2;stroke-linecap:square;stroke-linejoin:round;stroke-miterlimit:4;stroke-dasharray:none;stroke-dashoffset:0.99999998;stroke-opacity:1"
           id="rect3528"
           width="0.5606308"
           height="10.651985"
           x="374.71954"
           y="281.35443" />
        <use
           x="0"
           y="0"
           xlink:href="#path3434"
           id="use3438"
           transform="matrix(-1,0,0,1,749.9998,0)"
           width="384"
           height="256"
           style="fill:#d9dad9;fill-opacity:1" />
        <g
           id="g3646"
           transform="matrix(1.953125,0,0,1.953125,0.373662,4.530422e-4)">
          <path
             sodipodi:type="arc"
             style="fill:none;fill-opacity:1;fill-rule:nonzero;stroke:#000000;stroke-width:2.29999995;stroke-linecap:square;stroke-linejoin:round;stroke-miterlimit:4;stroke-dasharray:none;stroke-dashoffset:0.99999998;stroke-opacity:1"
             id="path3452"
             sodipodi:cx="191.90109"
             sodipodi:cy="142.883"
             sodipodi:rx="9.3399363"
             sodipodi:ry="9.3399363"
             d="M 201.24103 142.883 A 9.3399363 9.3399363 0 1 1  182.56116,142.883 A 9.3399363 9.3399363 0 1 1  201.24103 142.883 z" />
          <path
             d="M 201.24103 142.883 A 9.3399363 9.3399363 0 1 1  182.56116,142.883 A 9.3399363 9.3399363 0 1 1  201.24103 142.883 z"
             sodipodi:ry="9.3399363"
             sodipodi:rx="9.3399363"
             sodipodi:cy="142.883"
             sodipodi:cx="191.90109"
             id="path3449"
             style="fill:none;fill-opacity:1;fill-rule:nonzero;stroke:#d9dad9;stroke-width:1.79999995;stroke-linecap:square;stroke-linejoin:round;stroke-miterlimit:4;stroke-dasharray:none;stroke-dashoffset:0.99999998;stroke-opacity:1"
             sodipodi:type="arc" />
        </g>
        <path
           style="fill:#d9dad9;fill-opacity:1;fill-rule:evenodd;stroke:#000000;stroke-width:0.48828125;stroke-linecap:butt;stroke-linejoin:miter;stroke-miterlimit:4;stroke-dasharray:none;stroke-opacity:1"
           d="M 374.99989,292.16815 C 365.31997,281.42295 343.79606,287.81217 341.09251,265.84006 C 340.78155,265.40141 339.75925,266.38547 338.5044,267.83461 C 337.00362,265.46656 337.46577,262.18561 340.6936,256.66514 C 342.09212,259.90156 344.07981,262.9416 347.37134,265.54703 C 345.56333,265.17449 344.04991,264.97869 343.81003,265.54703 C 345.38175,277.72947 357.20774,281.33555 361.73532,281.33555 C 364.91221,281.33555 364.64932,277.41809 364.64932,277.41809 L 374.99989,277.41809"
           id="path3434"
           sodipodi:nodetypes="ccccccscc" />
        <path
           sodipodi:nodetypes="cc"
           id="path3445"
           d="M 369.27591,209.08338 C 358.74323,211.75795 360.29143,220.41469 360.29143,227.41172"
           style="fill:none;fill-opacity:0.75;fill-rule:evenodd;stroke:#000000;stroke-width:4.8828125;stroke-linecap:butt;stroke-linejoin:miter;stroke-miterlimit:4;stroke-dasharray:none;stroke-opacity:1" />
        <path
           style="fill:none;fill-opacity:0.75;fill-rule:evenodd;stroke:#cccccc;stroke-width:3.90625;stroke-linecap:butt;stroke-linejoin:miter;stroke-miterlimit:4;stroke-dasharray:none;stroke-opacity:1"
           d="M 369.27591,209.08338 C 358.74323,211.75795 360.29143,220.41469 360.29143,227.41172"
           id="path3443"
           sodipodi:nodetypes="cc" />
        <path
           style="fill:#cccccc;fill-opacity:1;fill-rule:nonzero;stroke:#000000;stroke-width:0.43704626;stroke-linecap:square;stroke-linejoin:round;stroke-miterlimit:4;stroke-dasharray:none;stroke-dashoffset:0.99999998;stroke-opacity:1"
           d="M 374.88538,203.46262 C 369.92723,203.65127 365.97423,207.7359 365.97425,212.73996 C 365.97425,217.8641 370.12745,222.07834 375.25159,222.07834 C 380.37573,222.07834 384.52893,217.8641 384.52893,212.73996 C 384.52893,207.61582 380.37575,203.46262 375.25159,203.46262 C 375.13149,203.46262 375.00438,203.45809 374.88538,203.46262 z M 374.64124,207.79611 C 374.84936,207.76963 375.0363,207.79611 375.25159,207.79611 C 378.00725,207.79611 380.25647,209.98428 380.25647,212.73996 C 380.25647,215.49565 378.00727,217.74484 375.25159,217.74484 C 372.49591,217.74484 370.24671,215.49565 370.24671,212.73996 C 370.24671,210.19957 372.1853,208.10859 374.64124,207.79611 z "
           id="path3416" />
        <g
           id="g3530"
           transform="matrix(1.953125,0,0,1.953125,0.373662,4.530422e-4)">
          <path
             sodipodi:type="arc"
             style="fill:#b83700;fill-opacity:1;fill-rule:nonzero;stroke:#000000;stroke-width:0.20069633;stroke-linecap:square;stroke-linejoin:round;stroke-miterlimit:4;stroke-dasharray:none;stroke-dashoffset:0.99999998;stroke-opacity:1"
             id="path3414"
             sodipodi:cx="191.55333"
             sodipodi:cy="128.45724"
             sodipodi:rx="12.342847"
             sodipodi:ry="12.342847"
             d="M 203.89618 128.45724 A 12.342847 12.342847 0 1 1  179.21048,128.45724 A 12.342847 12.342847 0 1 1  203.89618 128.45724 z"
             transform="matrix(1.245663,0,0,1.245663,-46.80228,-31.34468)" />
          <path
             transform="matrix(1.046045,0,0,1.046045,-8.564824,-5.702332)"
             d="M 203.89618 128.45724 A 12.342847 12.342847 0 1 1  179.21048,128.45724 A 12.342847 12.342847 0 1 1  203.89618 128.45724 z"
             sodipodi:ry="12.342847"
             sodipodi:rx="12.342847"
             sodipodi:cy="128.45724"
             sodipodi:cx="191.55333"
             id="path2539"
             style="fill:#ffffff;fill-opacity:1;fill-rule:nonzero;stroke:#000000;stroke-width:0.23899545;stroke-linecap:square;stroke-linejoin:round;stroke-miterlimit:4;stroke-dasharray:none;stroke-dashoffset:0.99999998;stroke-opacity:1"
             sodipodi:type="arc" />
          <g
             id="g2526"
             transform="matrix(9.459477e-3,0,0,9.459477e-3,219.3499,115.5325)">
            <path
               style="fill:#993300;fill-opacity:1"
               d="M 116.40625,71.625 C 116.40384,71.630353 116.37657,71.648843 116.375,71.65625 C 116.37414,71.659849 116.37614,71.684418 116.375,71.6875 C 117.3615,92.877024 117.36383,103.34755 116.375,124.5625 C 116.375,124.95148 116.23987,125.31346 116.125,125.6875 C 115.92094,126.35198 115.62676,127.02773 115.28125,127.71875 C 114.74125,132.39875 116.8325,135.985 114.3125,140.125 C 113.7725,141.65501 114.75,143.28251 114.75,144.8125 C 115.29,149.49251 111.695,153.07874 109.625,157.21875 C 111.74585,157.21875 113.94322,157.21875 116.125,157.21875 C 118.6739,157.21875 121.1693,157.21875 123.71875,157.21875 C 125.93247,157.21875 128.16106,157.21875 130.3125,157.21875 C 127.70251,153.61875 126.18625,149.94374 124.65625,146.34375 C 124.11625,144.27376 126.165,142.195 125.625,140.125 C 124.635,138.59501 124.125,136.96751 124.125,135.4375 C 123.585,134.44751 124.11625,132.83375 124.65625,131.84375 C 125.05024,129.55867 124.00188,127.28641 123.71875,125.0625 L 123.71875,124.96875 C 123.69015,124.72308 123.5866,124.4637 123.5625,124.21875 C 123.5605,124.19253 123.5625,124.15113 123.5625,124.125 C 122.5758,103.40424 122.05132,92.379251 123.5625,71.8125 C 123.5598,71.808268 123.53377,71.785866 123.53125,71.78125 C 123.51938,71.756727 123.51105,71.712105 123.5,71.6875 C 123.49771,71.682861 123.5024,71.660512 123.5,71.65625 C 123.49489,71.648672 123.47469,71.630118 123.46875,71.625 C 123.46706,71.624307 123.43927,71.625474 123.4375,71.625 L 116.40625,71.625 z "
               transform="matrix(11.11111,0,0,11.11111,-4250,0)"
               id="path2458" />
            <path
               style="fill:#00923e"
               d="M 119.96875,19.34375 C 118.88875,21.41375 119.4275,23.93375 118.4375,26.09375 C 117.8975,25.55375 117.90625,25.008749 117.90625,24.46875 C 117.36625,27.07875 116.83375,29.14875 115.84375,31.21875 C 114.31375,28.60875 112.685,26.11125 109.625,25.03125 C 104.405,23.50125 99.714998,23.943751 95.125,27.09375 C 92.965,28.17375 92.518752,30.2425 92.96875,32.3125 C 94.04875,31.2325 94.595,29.165 96.125,28.625 C 97.205,28.625 96.65625,30.2375 96.65625,30.6875 C 96.65625,29.1575 98.17875,29.165 98.71875,28.625 C 99.25875,28.625 99.718752,28.616249 99.71875,29.15625 L 99.28125,29.6875 C 100.27125,30.2275 101.35375,28.1575 102.34375,29.6875 L 101.78125,30.25 C 102.86125,30.7 104.38875,28.629999 105.46875,30.25 C 104.92875,30.7 104.9375,31.241251 104.9375,31.78125 C 107.0075,29.71125 108.55375,32.755 109.09375,34.375 C 109.09375,34.825 108.53125,35.374998 108.53125,35.375 C 102.32125,32.315 96.107499,33.836251 90.4375,35.90625 C 84.6775,37.43625 82.166249,43.196252 83.15625,49.40625 C 83.69625,48.32625 83.169997,46.79875 84.25,45.71875 C 84.25,45.71875 84.6875,46.272498 84.6875,46.8125 C 84.6875,45.7325 85.241249,44.73625 85.78125,43.65625 L 86.3125,44.1875 C 86.3125,43.1975 86.7725,42.664999 87.3125,42.125 C 87.8525,42.125 87.843749,42.647501 87.84375,43.1875 C 87.84375,42.1075 88.393751,41.57125 88.84375,41.03125 C 89.38375,41.57125 89.366249,41.584999 89.90625,42.125 C 89.90625,40.595 91.42875,40.602498 91.96875,40.0625 C 91.96875,40.0625 92.531249,40.58125 92.53125,41.03125 C 92.98125,40.58125 93.513749,39.499999 94.59375,39.5 C 95.13375,39.5 95.124998,40.053751 95.125,40.59375 C 95.575,40.05375 96.107499,39.499999 97.1875,39.5 C 97.6375,39.5 97.656252,40.053751 97.65625,40.59375 C 98.19625,40.05375 98.17875,40.039999 98.71875,39.5 C 99.70875,40.58 101.35375,38.982498 102.34375,40.0625 C 99.73375,43.2125 95.591249,43.639999 92.53125,46.25 C 90.46125,47.78 88.370001,49.398748 86.75,51.46875 C 85.22,53.53875 84.236249,55.617499 83.15625,57.6875 C 81.62625,61.8275 81.635,66.503746 82.625,71.09375 C 83.165,69.56375 82.166249,67.498751 83.15625,65.96875 C 84.23625,66.95875 83.147498,68.595002 83.6875,70.125 C 84.2275,68.595 84.228749,66.967502 85.21875,65.4375 C 86.29875,66.5175 85.241249,68.041253 85.78125,69.03125 C 86.32125,66.96125 85.7825,64.905002 87.3125,63.375 C 87.8525,63.375 87.294998,64.897502 88.375,65.4375 C 88.375,63.9075 87.845,61.838749 89.375,60.21875 C 89.375,60.21875 89.906249,60.741251 89.90625,61.28125 C 89.90625,59.75125 89.376251,57.69625 90.90625,57.15625 C 91.98625,57.15625 91.437501,58.678751 91.4375,59.21875 C 91.9775,57.14875 91.970001,54.552499 93.5,53.5625 C 94.04,53.0225 94.0625,54.55375 94.0625,55.09375 C 94.6025,53.56375 94.595,50.94625 96.125,50.40625 C 96.665,50.40625 96.65625,51.92875 96.65625,52.46875 C 97.19625,50.93875 98.17875,49.401251 98.71875,47.78125 C 99.25875,48.32125 99.268752,48.334999 99.71875,48.875 C 100.25875,47.345 101.345,45.709999 102.875,46.25 C 104.405,46.25 103.415,47.80375 102.875,48.34375 C 99.275,51.94375 95.570001,55.61 93.5,59.75 C 90.44,66.95 90.903749,75.249997 94.59375,82 C 94.05375,80.47 92.973749,77.852497 94.59375,77.3125 C 95.58375,76.8625 94.603751,78.924998 95.59375,79.375 C 95.59375,76.315 95.576249,73.716251 96.65625,70.65625 C 97.19625,71.10625 97.656252,71.638751 97.65625,72.71875 C 97.65625,72.17875 97.647501,71.625003 98.1875,71.625 C 99.2675,72.165 98.71875,73.170002 98.71875,74.25 C 99.70875,71.64 99.897501,69.488753 98.1875,66.96875 C 97.1975,65.43875 98.17875,64.432499 98.71875,62.8125 C 99.25875,63.3525 99.718752,63.885003 99.71875,64.875 C 100.25875,62.805 99.7325,60.194999 100.8125,58.125 C 101.8025,58.665 101.34375,59.768749 101.34375,60.21875 C 102.33375,58.68875 100.81375,56.614999 102.34375,55.625 C 103.42375,55.625 102.32625,57.147499 103.40625,57.6875 C 103.40625,56.0675 102.87625,53.99 104.40625,53 C 104.94625,53 104.9375,54.55375 104.9375,55.09375 C 104.9375,53.02375 105.9425,50.955001 107.5625,49.875 C 108.0125,49.875 108.53125,49.86625 108.53125,50.40625 C 107.54125,50.94625 108.5525,51.92875 107.5625,52.46875 C 108.5525,52.46875 109.085,53.022499 109.625,53.5625 C 107.555,55.0925 106.45875,56.617502 105.46875,58.6875 C 105.91875,57.6975 107.54125,57.134999 108.53125,58.125 C 105.92125,59.205 103.425,60.75625 103.875,63.90625 C 103.875,62.82625 104.9475,61.821251 105.9375,61.28125 C 106.4775,61.28125 107.5625,61.30375 107.5625,61.84375 C 105.4925,63.91375 103.425,65.971253 103.875,69.03125 C 104.415,68.04125 104.4075,66.5 105.9375,66.5 C 106.4775,66.5 107.00875,66.960002 106.46875,67.5 C 104.38241,69.586339 104.15192,72.290248 104.34375,74.90625 C 104.41967,74.704249 104.56565,74.595325 104.9375,74.78125 C 105.9275,74.78125 105.46875,76.322497 105.46875,77.3125 L 105.9375,76.875 C 107.0175,78.405 105.4875,79.380003 105.9375,81 C 106.4775,82.53 106.46,83.595003 107,85.125 C 107.54,83.595 106.4825,81.526247 107.5625,79.90625 C 108.5525,81.97625 108.53125,84.608754 108.53125,87.21875 C 108.53125,86.67875 108.55375,86.124998 109.09375,86.125 C 110.08375,86.665 109.0725,88.209997 110.0625,88.75 C 109.6125,85.15 111.15625,81.533747 111.15625,77.84375 C 110.61625,77.84375 110.0625,77.852497 110.0625,77.3125 C 110.0625,76.3225 109.635,74.250002 110.625,74.25 C 111.705,73.71 110.6075,76.335002 111.6875,76.875 C 111.1475,75.255 111.675,73.708751 112.125,72.71875 C 112.665,72.71875 112.67,70.657502 113.75,72.1875 C 113.75,72.7275 113.75875,73.156247 113.21875,73.15625 C 113.75875,74.23625 115.30375,74.798753 115.84375,73.71875 C 115.84375,73.17875 115.295,72.165003 116.375,71.625 C 116.37617,71.650057 116.37383,71.662473 116.375,71.6875 C 116.39315,71.68101 116.38701,71.625 116.40625,71.625 L 123.4375,71.625 C 123.49943,71.625 123.51583,71.752449 123.5625,71.8125 C 123.56755,71.743775 123.5574,71.69394 123.5625,71.625 C 123.70075,71.763245 123.64015,71.961863 123.71875,72.125 C 124.25418,73.236326 123.81997,74.72088 125.625,74.25 C 127.155,73.71 125.63875,71.647502 126.71875,72.1875 C 128.24875,72.7275 128.25,74.805002 128.25,76.875 C 129.24,76.335 128.26,73.710002 129.25,74.25 C 130.33,74.25 129.78126,76.322497 129.78125,77.3125 C 129.78125,77.8525 129.23125,77.843746 128.78125,77.84375 C 128.78125,81.53375 130.32126,85.149997 129.78125,88.75 C 130.86125,88.21 129.795,86.664998 130.875,86.125 C 131.325,86.125 131.31251,86.678754 131.3125,87.21875 C 131.3125,84.60875 131.295,81.976247 132.375,79.90625 C 133.365,81.52625 132.3975,83.595003 132.9375,85.125 C 133.3875,83.595 133.36626,82.530003 133.90625,81 C 134.44625,79.38 132.91626,78.405002 133.90625,76.875 L 134.46875,77.3125 C 134.46875,76.3225 133.92,74.781252 135,74.78125 C 135.99,74.24125 135.53125,75.795002 135.53125,76.875 C 136.52125,73.185 134.995,70.118753 133.375,66.96875 C 133.375,66.96875 133.92875,66.5 134.46875,66.5 C 135.54875,66.95 136,68.041253 136,69.03125 C 136.54,65.97125 134.44501,63.91375 132.375,61.84375 C 132.375,61.30375 133.36626,61.281251 133.90625,61.28125 C 134.98625,61.82125 136,62.826251 136,63.90625 C 136.54,60.75625 133.92251,59.204999 131.3125,58.125 C 132.3925,57.135 133.92875,57.697502 134.46875,58.6875 C 134.46875,57.1575 132.9375,56.62375 132.9375,55.09375 C 132.3975,53.56375 130.32126,53.557501 129.78125,51.9375 C 129.78125,51.4875 130.335,51.468748 130.875,51.46875 C 131.325,51.46875 131.31251,51.92875 131.3125,52.46875 C 131.8525,52.46875 132.375,52.468751 132.375,52.46875 C 132.915,51.92875 132.3975,50.40625 132.9375,50.40625 C 134.4675,50.94625 135,53.56375 135,55.09375 C 135,54.55375 134.99125,53 135.53125,53 C 137.06125,53.99 136.53126,56.067499 136.53125,57.6875 C 137.61125,57.1475 137.085,55.624999 137.625,55.625 C 139.155,56.615 137.60375,58.688749 138.59375,60.21875 C 138.59375,59.76875 138.04501,58.664999 139.125,58.125 C 140.115,60.195 139.675,62.805003 140.125,64.875 C 140.125,63.885 140.67875,63.352499 141.21875,62.8125 C 141.75875,63.8925 142.18749,64.888751 142.1875,65.96875 C 141.1975,68.57875 140.13875,71.640002 141.21875,74.25 C 141.21875,73.17 140.67,72.165003 141.75,71.625 C 142.2,71.625 142.18749,72.178751 142.1875,72.71875 C 142.1875,71.63875 142.74126,71.106251 143.28125,70.65625 C 144.27125,73.71625 144.28125,76.314998 144.28125,79.375 C 145.36125,78.925 144.26375,76.862497 145.34375,77.3125 C 146.87375,77.8525 145.88375,80.469997 145.34375,82 C 148.94375,74.8 150.03374,65.977502 146.34375,58.6875 C 143.82375,54.5475 139.68126,51.483752 136.53125,47.34375 C 136.53125,46.80375 136.5225,45.71875 137.0625,45.71875 C 138.5925,46.25875 139.675,47.344999 140.125,48.875 C 140.665,48.335 140.67875,48.321251 141.21875,47.78125 C 141.75875,49.40125 142.74126,50.93875 143.28125,52.46875 C 143.28125,51.92875 143.2725,50.40625 143.8125,50.40625 C 145.3425,50.94625 145.33501,53.56375 145.875,55.09375 C 145.875,54.55375 145.89374,53.022499 146.34375,53.5625 C 147.96375,54.5525 147.95625,57.148751 148.40625,59.21875 C 148.40625,58.67875 147.94749,57.15625 148.9375,57.15625 C 150.4675,57.69625 150.03126,59.751251 150.03125,61.28125 C 150.03125,60.74125 150.46874,60.218749 150.46875,60.21875 C 152.08875,61.83875 151.56251,63.907502 151.5625,65.4375 C 152.5525,64.8975 152.1125,63.375001 152.5625,63.375 C 154.1825,64.905 153.61626,66.961253 154.15625,69.03125 C 154.15625,68.04125 153.63875,66.517502 154.71875,65.4375 C 155.70875,66.9675 155.71,68.595002 156.25,70.125 C 156.79,68.595 155.70126,66.958751 156.78125,65.96875 C 157.77125,67.49875 156.76874,69.563746 157.21875,71.09375 C 159.28875,64.43375 157.23374,57.678749 153.09375,51.46875 C 148.95375,45.70875 142.215,44.202498 137.625,40.0625 C 138.615,38.9825 140.13875,40.579999 141.21875,39.5 C 141.75875,40.04 141.73749,40.053751 142.1875,40.59375 C 142.1875,39.51375 142.74126,38.959999 143.28125,39.5 C 144.27125,40.58 144.79501,39.499999 145.875,39.5 C 146.325,40.04 146.86626,40.58125 147.40625,41.03125 C 147.40625,40.58125 147.96875,40.062498 147.96875,40.0625 C 148.41875,40.6025 150.03126,40.594999 150.03125,42.125 C 150.48125,41.585 150.49125,41.57125 151.03125,41.03125 C 151.57125,41.57125 152.09375,42.107501 152.09375,43.1875 C 152.09375,42.6475 152.1125,42.124999 152.5625,42.125 C 153.6425,43.655 155.15625,44.742498 155.15625,46.8125 C 155.15625,46.2725 155.68749,45.71875 155.6875,45.71875 C 156.7675,46.79875 155.70126,48.326252 156.78125,49.40625 C 157.23125,46.25625 156.76749,43.203751 155.6875,40.59375 C 154.1575,38.52375 151.57,36.446251 149.5,35.90625 C 143.83,33.83625 136.5225,32.764998 130.3125,35.375 C 129.7725,35.375 131.8575,32.29875 132.9375,31.21875 C 133.3875,31.21875 134.46,30.701251 135,31.78125 C 135.54,31.24125 133.92,30.2275 135,29.6875 C 135.99,29.6875 137.07251,30.2375 138.0625,30.6875 C 138.0625,30.2375 138.075,29.6875 137.625,29.6875 C 138.615,28.6075 139.66626,29.709999 140.65625,30.25 C 140.65625,29.71 140.125,29.696249 140.125,29.15625 C 140.125,28.61625 140.67875,28.175 141.21875,28.625 C 141.75875,29.165 143.28126,29.1575 143.28125,30.6875 C 143.28125,30.2375 142.7325,28.625 143.8125,28.625 C 145.3425,29.165 145.885,31.2325 146.875,32.3125 C 147.415,25.0225 138.04501,23.478749 132.375,24.46875 C 128.775,25.54875 125.655,27.618749 124.125,31.21875 C 123.045,29.14875 122.57125,27.078749 122.03125,24.46875 C 122.03125,25.00875 122.04,25.55375 121.5,26.09375 C 120.51,23.93375 120.95875,21.41375 119.96875,19.34375 z "
               id="21419736"
               transform="matrix(11.11111,0,0,11.11111,-4250,0)" />
            <path
               style="fill:#cccccc;fill-opacity:1;stroke:#000000;stroke-width:5.55555534;stroke-miterlimit:4;stroke-dasharray:none;stroke-opacity:1"
               d="M -2583,2208 C -2502,2283 -2600,2426 -2658,2317 C -2716,2208 -2825,2150 -2911,2069 C -2998,2150 -3096,2208 -3165,2311 C -3234,2414 -3321,2283 -3240,2208 C -3159,2133 -3078,2058 -2998,1983 C -3297,1695 -3723,1586 -4132,1574 C -3896,1528 -3654,1545 -3418,1615 C -3228,1670 -3061,1776 -2906,1891 C -2578,1603 -2117,1494 -1691,1574 C -2100,1586 -2526,1695 -2825,1983 C -2744,2058 -2664,2133 -2583,2208 z "
               id="21419648" />
            <path
               style="fill:#db161c;fill-opacity:1;stroke:#000000;stroke-width:5.55555534;stroke-miterlimit:4;stroke-dasharray:none;stroke-opacity:1"
               d="M -3240,2208 C -3217,2243 -3154,2294 -3165,2311 C -3176,2328 -3142,2351 -3124,2351 C -3101,2351 -3113,2300 -3084,2288 C -3055,2277 -3027,2271 -2998,2282 C -2963,2300 -2940,2340 -2946,2380 C -2957,2438 -3021,2461 -3073,2455 C -3136,2444 -3193,2403 -3228,2346 C -3309,2409 -3401,2472 -3510,2461 C -3533,2455 -3556,2444 -3568,2421 C -3591,2380 -3579,2328 -3539,2300 C -3499,2277 -3447,2288 -3418,2328 C -3372,2311 -3326,2288 -3303,2248 C -3291,2231 -3309,2190 -3326,2196 C -3355,2208 -3389,2225 -3424,2213 C -3458,2196 -3481,2156 -3476,2115 C -3464,2064 -3418,2035 -3366,2046 C -3337,2058 -3314,2069 -3291,2092 C -3263,2127 -3263,2173 -3240,2208 z "
               id="path2463" />
            <path
               style="fill:#db161c;fill-opacity:1;stroke:#000000;stroke-width:5.55555534;stroke-miterlimit:4;stroke-dasharray:none;stroke-opacity:1"
               d="M -2658,2317 C -2664,2311 -2606,2243 -2583,2208 C -2560,2173 -2560,2127 -2531,2092 C -2503,2058 -2457,2041 -2416,2046 C -2370,2058 -2336,2104 -2347,2150 C -2365,2219 -2439,2236 -2503,2196 C -2514,2190 -2531,2231 -2520,2248 C -2497,2288 -2451,2311 -2405,2328 C -2370,2277 -2290,2277 -2255,2328 C -2226,2369 -2244,2426 -2284,2444 C -2393,2490 -2508,2415 -2595,2346 C -2647,2426 -2785,2513 -2865,2409 C -2877,2392 -2883,2369 -2877,2346 C -2865,2300 -2819,2265 -2773,2277 C -2750,2282 -2727,2288 -2716,2311 C -2704,2328 -2721,2357 -2698,2351 C -2681,2351 -2652,2323 -2658,2317 z "
               id="path2461" />
          </g>
        </g>
        <g
           id="g4836"
           transform="matrix(1.953125,0,0,1.953125,-3.057655e-2,4.530422e-4)">
          <path
             id="path4012"
             d="M 209.40625,70 C 208.37277,73.032482 213.56265,75.2072 214.1875,78.25 C 212.69051,77.450737 211.14495,76.720878 209.59375,76.03125 C 212.84733,77.757755 215.8422,79.637547 218.59375,81.625 C 215.08024,80.223032 214.46562,80.939335 212.375,81.4375 C 213.53225,83.194972 217.33809,83.441846 219.6875,82.4375 C 220.78964,83.266174 221.85532,84.102396 222.875,84.96875 C 219.505,83.619037 218.90312,84.228032 216.84375,84.71875 C 218.57867,87.266693 221.69286,86.920022 223.96875,85.90625 C 224.58241,86.451007 225.16754,87.004652 225.75,87.5625 C 222.98145,86.462876 221.77512,88.286288 220.1875,88.625 C 223.55007,89.57675 224.98402,89.28784 226.84375,88.625 C 227.53099,89.315626 228.17113,90.010508 228.8125,90.71875 C 226.56693,89.147705 225.23338,90.354091 222.78125,90.25 C 224.6919,92.49583 226.65003,93.076565 230.625,92.8125 C 231.3244,93.660515 231.98725,94.506574 232.625,95.375 C 230.68867,93.960331 229.43321,94.994953 226.4375,94.375 C 227.52036,96.741167 231.60813,96.837914 233.6875,96.90625 C 234.33234,97.847118 234.9557,98.789695 235.53125,99.75 C 233.27679,97.598772 232.38031,98.742643 229.09375,98.0625 C 230.56367,100.26618 233.69202,100.98499 236.15625,100.8125 C 236.80865,101.958 237.41184,103.1138 237.96875,104.28125 C 234.90999,100.50811 234.2008,103.47269 230.84375,101.34375 C 232.34679,103.48334 236.47639,105.11812 238.46875,105.375 C 238.97354,106.49899 239.42484,107.6423 239.84375,108.78125 C 237.95723,106.53637 234.84738,106.77896 232.4375,104.40625 C 231.57214,106.76969 238.46247,110.43806 240.75,111.375 C 241.01913,112.24627 241.27915,113.12372 241.5,114 C 239.67362,111.3393 236.62521,111.99883 234.40625,110.15625 C 233.64549,112.40955 239.86232,115.57929 242.1875,117.28125 C 242.44385,118.67763 242.64282,120.07045 242.78125,121.46875 C 241.15021,117.61043 238.01439,117.93036 234.9375,114.71875 C 234.17522,116.99649 240.62514,121.86853 242.96875,123.90625 C 243.05,125.49945 243.06745,127.07488 243,128.65625 C 241.67964,123.77919 239.13041,123.99687 235.84375,120.5625 C 235.07111,122.85252 240.72476,128.17168 242.875,130.28125 C 242.74969,131.96291 242.53961,133.62863 242.25,135.28125 C 241.40481,131.08392 239.06307,129.83745 235.84375,126.46875 C 235.06495,129.44114 239.9637,134.76947 241.96875,136.875 C 241.61879,138.55647 241.17311,140.20969 240.65625,141.84375 C 239.73639,138.32743 239.35059,136.6147 234.59375,132.5625 C 233.67972,136.01046 237.86746,141.40835 240.21875,143.21875 C 239.68493,144.75263 239.08509,146.27338 238.40625,147.75 C 237.65788,144.47135 238.18902,144.19108 233.46875,137.625 C 231.94422,141.31503 236.0841,146.52015 238,148.5625 C 237.17419,150.27612 236.26788,151.9778 235.25,153.59375 C 234.13338,149.72103 236.36178,148.24147 231.46875,141.4375 C 229.78689,145.35492 233.20516,150.6717 235.09375,153.8125 C 234.28615,155.07907 233.39164,156.30414 232.46875,157.5 C 232.34895,154.88777 233.6349,151.85502 229.5,146.09375 C 227.29517,149.30634 230.3841,154.78461 232.15625,157.90625 C 231.0308,159.3338 229.81833,160.68985 228.53125,162 C 228.77764,157.48743 228.87806,153.08094 226.71875,150.03125 C 224.47867,153.2952 225.93865,159.70022 227.875,162.6875 C 226.93448,163.60949 225.95813,164.48978 224.9375,165.34375 C 226.07274,159.85319 223.94885,158.21143 223.46875,152.9375 C 221.25255,156.16665 222.00753,162.93086 223.875,166.21875 C 221.97444,167.7239 219.96622,169.12534 217.8125,170.375 C 219.86702,165.10335 221.88499,165.90727 220.0625,157.875 C 217.58458,160.30163 216.88115,164.46878 217.21875,170.65625 C 215.58918,171.57538 213.92206,172.42949 212.15625,173.1875 C 214.71522,167.58475 217.19926,167.75885 215.375,159.71875 C 212.15428,165.09203 211.04709,164.91489 211.46875,173.46875 C 209.74607,174.18036 207.97008,174.82813 206.125,175.375 C 208.7459,171.07766 209.94191,169.70227 208.59375,162.15625 C 206.37296,165.71387 204.74288,167.08653 205.09375,175.65625 C 204.62374,175.78601 204.16505,175.91257 203.6875,176.03125 C 195.60623,178.57304 183.66247,178.35258 172.21875,184.34375 C 175.91494,186.61638 178.49455,185.87618 180.71875,184.1875 C 188.01811,178.6456 188.8156,182.67275 205.0625,177.625 C 206.6664,177.12668 208.19757,176.60133 209.6875,176.03125 C 214.4978,179.40375 219.41722,178.79292 224.53125,177.6875 C 220.13015,176.43774 215.70426,175.13238 212.375,174.9375 C 213.47498,174.46388 214.52804,173.98145 215.5625,173.46875 C 224.05795,175.02344 229.79956,173.23858 232.09375,171.59375 C 227.91415,170.40689 222.71249,170.88904 218.78125,171.75 C 220.65383,170.67965 222.39142,169.54179 224.03125,168.34375 C 231.46309,170.11535 234.23783,167.14517 237.90625,165.5 C 233.33696,164.76898 229.32384,165.61468 226.25,166.65625 C 227.51567,165.62446 228.69533,164.54235 229.8125,163.4375 C 236.27501,164.39824 240.52355,161.1503 242.40625,159.53125 C 237.77027,160.05533 234.8639,159.95165 232.3125,160.8125 C 233.00235,160.01925 233.65692,159.19638 234.28125,158.375 C 241.07118,159.48539 245.2909,153.94679 247,151.8125 C 242.01209,152.44889 238.8698,153.87507 235.8125,156.21875 C 236.89568,154.61419 237.8572,152.9655 238.71875,151.28125 C 246.23316,151.35813 248.76744,146.64711 249.4375,144.59375 C 246.01175,145.5292 243.08205,146.66456 239.46875,149.78125 C 240.09017,148.45426 240.65999,147.1122 241.15625,145.75 C 248.54205,144.64033 250.3654,139.16739 250.6875,137.375 C 247.85129,138.64463 244.75448,141.3482 241.53125,144.59375 C 242.04742,143.06398 242.50475,141.52807 242.875,139.96875 C 249.41487,138.13734 250.88115,132.78036 251.59375,130.5 C 249.27579,132.60571 245.67556,134.61664 243.21875,138.28125 C 243.51842,136.81493 243.75589,135.35333 243.9375,133.875 C 249.46416,131.70565 250.41405,126.59392 251.8125,123.625 C 249.50261,125.28852 246.05659,128.14539 244.15625,132.09375 C 244.27938,130.75423 244.34092,129.401 244.375,128.0625 C 249.18247,124.65446 249.49656,119.17864 249.65625,116.09375 C 247.34638,117.75727 245.77649,120.69675 244.40625,125.78125 C 244.38573,123.99203 244.2714,122.23793 244.09375,120.53125 C 247.56227,117.12659 247.65043,113.81498 248,109.40625 C 245.73737,111.48153 244.2476,113.3722 243.78125,118.03125 C 243.54536,116.47752 243.23622,114.95004 242.875,113.46875 C 245.79071,109.73979 246.2057,108.03047 245.9375,103.6875 C 245.04041,107.95363 242.94015,104.89789 242.46875,111.84375 C 242.11478,110.57241 241.69244,109.34065 241.25,108.125 C 243.56723,104.69595 244.26567,103.89906 243.625,99.0625 C 240.00591,101.81771 241.2877,103.80763 240.9375,107.28125 C 240.35363,105.76195 239.71446,104.3049 239,102.875 C 241.38549,99.63959 241.38288,97.889618 240.65625,93.8125 C 237.78484,95.727629 238.28552,98.665583 238.34375,101.59375 C 237.77152,100.52586 237.14118,99.4845 236.5,98.46875 C 239.33853,95.189373 236.88573,92.167978 237.21875,88.875 C 234.42943,89.456828 236.35478,92.080921 235.875,97.4375 C 235.16165,96.364868 234.37987,95.324546 233.59375,94.3125 C 236.38111,90.988051 232.90637,87.828293 232.9375,84.96875 C 232.5232,84.990726 232.20619,85.047506 231.96875,85.15625 C 231.90872,85.185246 231.83093,85.24669 231.78125,85.28125 C 231.733,85.316596 231.66357,85.36546 231.625,85.40625 C 231.61968,85.412187 231.59888,85.431453 231.59375,85.4375 C 231.58386,85.449812 231.57165,85.487253 231.5625,85.5 C 231.55811,85.506482 231.53546,85.52466 231.53125,85.53125 C 231.52318,85.544645 231.50737,85.579926 231.5,85.59375 C 231.47894,85.635864 231.45255,85.704079 231.4375,85.75 C 231.43046,85.773275 231.41188,85.819538 231.40625,85.84375 C 231.12225,87.192457 232.92482,89.960551 232.90625,93.4375 C 231.93001,92.233729 230.8844,91.051907 229.8125,89.9375 C 232.90652,86.642523 227.26371,82.901705 226.5625,79.5 C 225.02319,83.380075 228.44009,85.774959 229.09375,89.21875 C 227.59577,87.717161 226.02777,86.300852 224.375,84.96875 C 227.09799,78.941308 221.66665,78.126633 220.75,75.0625 C 219.71204,78.95631 224.1205,81.111735 224.15625,84.78125 C 222.63639,83.568189 221.03526,82.444803 219.40625,81.375 C 222.24683,77.268374 216.31461,75.79545 215.375,72.6875 C 214.29863,76.657544 218.73262,78.51795 219.21875,81.1875 C 217.64251,80.161478 216.00352,79.235461 214.34375,78.34375 C 216.30471,75.051332 210.26486,71.61345 209.40625,70 z "
             style="fill:#169253;fill-opacity:1;fill-rule:evenodd;stroke:#000000;stroke-width:0.5;stroke-linecap:butt;stroke-linejoin:miter;stroke-miterlimit:4;stroke-dasharray:none;stroke-opacity:1" />
          <use
             height="256"
             width="384"
             transform="matrix(-1,0,0,1,384.0312,0)"
             id="use4834"
             xlink:href="#path4012"
             y="0"
             x="0" />
        </g>
        <g
           id="g3958"
           transform="matrix(1.953125,0,0,1.953125,0.617763,4.530422e-4)">
          <path
             transform="matrix(1.020714,0,0,0.98117,-3.693702,1.6145)"
             d="M 203.19719 88.972755 A 11.508621 2.9837167 0 1 1  180.17995,88.972755 A 11.508621 2.9837167 0 1 1  203.19719 88.972755 z"
             sodipodi:ry="2.9837167"
             sodipodi:rx="11.508621"
             sodipodi:cy="88.972755"
             sodipodi:cx="191.68857"
             id="path3956"
             style="opacity:1;fill:#169253;fill-opacity:1;fill-rule:nonzero;stroke:#000000;stroke-width:0.49962705;stroke-linecap:square;stroke-linejoin:round;stroke-miterlimit:4;stroke-dasharray:none;stroke-dashoffset:0.99999998;stroke-opacity:1"
             sodipodi:type="arc" />
          <rect
             y="71.771782"
             x="176.16986"
             height="5.8623004"
             width="31.591286"
             id="rect3954"
             style="opacity:1;fill:#169253;fill-opacity:1;fill-rule:nonzero;stroke:none;stroke-width:0.5;stroke-linecap:square;stroke-linejoin:round;stroke-miterlimit:4;stroke-dasharray:none;stroke-dashoffset:0.99999998;stroke-opacity:1" />
          <path
             sodipodi:nodetypes="cccccccccccccccccccccccccz"
             d="M 191.68367,86.232489 C 187.15735,86.232489 182.98143,86.946275 179.93695,88.609794 L 176.25531,83.581333 L 172.40225,79.87437 L 172.40225,77.8125 L 178.621,67.625 L 180.08975,66.8125 L 181.71475,67.78125 C 180.43162,68.623054 179.76096,69.986595 179.496,72.625 L 176.71215,76.904922 L 179.34998,76.478574 L 179.34998,75.847422 C 179.34998,66.013492 182.31546,67.249994 190.36433,65.737213 L 193.00297,65.737213 C 201.05184,67.249994 204.01732,66.013492 204.01732,75.847422 L 204.01732,76.478574 L 206.65515,76.904922 L 203.8713,72.625 C 203.60634,69.986595 202.93568,68.623054 201.65255,67.78125 L 203.27755,66.8125 L 204.7463,67.625 L 210.96505,77.8125 L 210.96505,79.87437 L 207.11199,83.581333 L 203.43035,88.609794 C 200.38587,86.946275 196.20999,86.232489 191.68367,86.232489 z "
             style="fill:#f8d80e;fill-opacity:1;fill-rule:evenodd;stroke:#000000;stroke-width:0.5;stroke-linecap:butt;stroke-linejoin:round;stroke-miterlimit:4;stroke-opacity:1"
             id="path3835" />
          <rect
             rx="1.5069755"
             ry="1.5069755"
             y="62.419933"
             x="190.11076"
             height="3.4218175"
             width="3.7094781"
             id="rect3594"
             style="opacity:1;fill:#f8d80e;fill-opacity:1;fill-rule:nonzero;stroke:#000000;stroke-width:0.5;stroke-linecap:square;stroke-linejoin:round;stroke-miterlimit:4;stroke-dasharray:none;stroke-dashoffset:0.99999998;stroke-opacity:1" />
          <use
             height="256"
             width="384"
             transform="matrix(0.721596,-0.344276,0.430605,0.902541,7.895144,75.34545)"
             id="use3666"
             xlink:href="#path3662"
             y="0"
             x="0" />
          <use
             height="256"
             width="384"
             transform="matrix(0.965345,-0.260976,0.260976,0.965345,-20.16462,53.0686)"
             id="use3668"
             xlink:href="#path3662"
             y="0"
             x="0" />
          <path
             transform="matrix(0.818064,0,0,1,34.2227,0)"
             d="M 192.42183 83.155975 A 2.7968287 1.5382558 0 1 1  186.82817,83.155975 A 2.7968287 1.5382558 0 1 1  192.42183 83.155975 z"
             sodipodi:ry="1.5382558"
             sodipodi:rx="2.7968287"
             sodipodi:cy="83.155975"
             sodipodi:cx="189.625"
             id="path3662"
             style="fill:#f8d80e;fill-opacity:1;fill-rule:nonzero;stroke:#000000;stroke-width:0.55281061;stroke-linecap:square;stroke-linejoin:round;stroke-miterlimit:4;stroke-dasharray:none;stroke-dashoffset:0.99999998;stroke-opacity:1"
             sodipodi:type="arc" />
          <path
             transform="matrix(1.375,0,0,1.375,-71.82289,-29.05388)"
             d="M 189.91808 77.477005 A 0.48233163 0.48233163 0 1 1  188.95341,77.477005 A 0.48233163 0.48233163 0 1 1  189.91808 77.477005 z"
             sodipodi:ry="0.48233163"
             sodipodi:rx="0.48233163"
             sodipodi:cy="77.477005"
             sodipodi:cx="189.43575"
             id="path3682"
             style="fill:#000000;fill-opacity:1;fill-rule:nonzero;stroke:none;stroke-width:0.5;stroke-linecap:square;stroke-linejoin:round;stroke-miterlimit:4;stroke-dasharray:none;stroke-dashoffset:0.99999998;stroke-opacity:1"
             sodipodi:type="arc" />
          <use
             height="256"
             width="384"
             transform="translate(-3.032364,0.4268)"
             id="use3688"
             xlink:href="#path3682"
             y="0"
             x="0" />
          <use
             x="0"
             y="0"
             xlink:href="#path3682"
             id="use3718"
             transform="translate(-6.064728,1.006406)"
             width="384"
             height="256" />
          <use
             height="256"
             width="384"
             transform="translate(-9.097092,1.799697)"
             id="use3720"
             xlink:href="#path3682"
             y="0"
             x="0" />
          <use
             x="0"
             y="0"
             xlink:href="#path3682"
             id="use3722"
             transform="translate(-12.12946,3.07483)"
             width="384"
             height="256" />
          <use
             height="256"
             width="384"
             transform="translate(-14.00235,-5.504228e-2)"
             id="use3724"
             xlink:href="#path3682"
             y="0"
             x="0" />
          <use
             x="0"
             y="0"
             xlink:href="#path3682"
             id="use3726"
             transform="translate(-9.694989,-7.941706)"
             width="384"
             height="256" />
          <use
             height="256"
             width="384"
             transform="translate(-10.77183,-5.970046)"
             id="use3728"
             xlink:href="#path3682"
             y="0"
             x="0" />
          <use
             x="0"
             y="0"
             xlink:href="#path3682"
             id="use3730"
             transform="translate(-11.84868,-3.998376)"
             width="384"
             height="256" />
          <use
             height="256"
             width="384"
             transform="translate(-12.92551,-2.026701)"
             id="use3732"
             xlink:href="#path3682"
             y="0"
             x="0" />
          <use
             x="0"
             y="0"
             xlink:href="#path3682"
             id="use3734"
             transform="translate(-0.140945,-9.950507)"
             width="384"
             height="256" />
          <use
             height="256"
             width="384"
             transform="translate(-7.467082,-2.049771)"
             id="use3736"
             xlink:href="#path3682"
             y="0"
             x="0" />
          <use
             x="0"
             y="0"
             xlink:href="#path3682"
             id="use3738"
             transform="translate(-7.43117,-4.204517)"
             width="384"
             height="256" />
          <use
             height="256"
             width="384"
             transform="translate(-7.215695,-6.287438)"
             id="use3740"
             xlink:href="#path3682"
             y="0"
             x="0" />
          <use
             x="0"
             y="0"
             xlink:href="#path3682"
             id="use3742"
             transform="translate(-6.066497,-8.08306)"
             width="384"
             height="256" />
          <use
             height="256"
             width="384"
             transform="translate(-4.091313,-9.232258)"
             id="use3744"
             xlink:href="#path3682"
             y="0"
             x="0" />
          <use
             x="0"
             y="0"
             xlink:href="#path3682"
             id="use3746"
             transform="translate(-2.223866,-9.735032)"
             width="384"
             height="256" />
          <path
             sodipodi:nodetypes="cccc"
             id="path3760"
             d="M 189.85683,69.024632 L 189.85683,74.894293 C 188.16213,74.894293 187.3367,74.849969 183.34685,75.53462 C 183.34685,73.585919 182.03769,69.842821 189.85683,69.024632 z "
             style="fill:#169253;fill-opacity:1;fill-rule:evenodd;stroke:#000000;stroke-width:0.5;stroke-linecap:butt;stroke-linejoin:miter;stroke-miterlimit:4;stroke-dasharray:none;stroke-opacity:1" />
          <use
             x="0"
             y="0"
             xlink:href="#path3662"
             id="use3837"
             transform="matrix(-0.721596,-0.344276,-0.430605,0.902541,375.4722,75.34545)"
             width="384"
             height="256" />
          <use
             x="0"
             y="0"
             xlink:href="#path3662"
             id="use3839"
             transform="matrix(-0.965345,-0.260976,-0.260976,0.965345,403.5319,53.0686)"
             width="384"
             height="256" />
          <path
             sodipodi:type="arc"
             style="fill:#f8d80e;fill-opacity:1;fill-rule:nonzero;stroke:#000000;stroke-width:0.55281061;stroke-linecap:square;stroke-linejoin:round;stroke-miterlimit:4;stroke-dasharray:none;stroke-dashoffset:0.99999998;stroke-opacity:1"
             id="path3841"
             sodipodi:cx="189.625"
             sodipodi:cy="83.155975"
             sodipodi:rx="2.7968287"
             sodipodi:ry="1.5382558"
             d="M 192.42183 83.155975 A 2.7968287 1.5382558 0 1 1  186.82817,83.155975 A 2.7968287 1.5382558 0 1 1  192.42183 83.155975 z"
             transform="matrix(-0.818064,0,0,1,349.1446,0)" />
          <path
             sodipodi:type="arc"
             style="fill:#000000;fill-opacity:1;fill-rule:nonzero;stroke:none;stroke-width:0.5;stroke-linecap:square;stroke-linejoin:round;stroke-miterlimit:4;stroke-dasharray:none;stroke-dashoffset:0.99999998;stroke-opacity:1"
             id="path3843"
             sodipodi:cx="189.43575"
             sodipodi:cy="77.477005"
             sodipodi:rx="0.48233163"
             sodipodi:ry="0.48233163"
             d="M 189.91808 77.477005 A 0.48233163 0.48233163 0 1 1  188.95341,77.477005 A 0.48233163 0.48233163 0 1 1  189.91808 77.477005 z"
             transform="matrix(-1.375,0,0,1.375,455.1901,-29.05388)" />
          <use
             x="0"
             y="0"
             xlink:href="#path3682"
             id="use3845"
             transform="matrix(-1,0,0,1,386.3996,0.4268)"
             width="384"
             height="256" />
          <use
             height="256"
             width="384"
             transform="matrix(-1,0,0,1,389.432,1.006406)"
             id="use3847"
             xlink:href="#path3682"
             y="0"
             x="0" />
          <use
             x="0"
             y="0"
             xlink:href="#path3682"
             id="use3849"
             transform="matrix(-1,0,0,1,392.4643,1.799697)"
             width="384"
             height="256" />
          <use
             height="256"
             width="384"
             transform="matrix(-1,0,0,1,395.4967,3.07483)"
             id="use3851"
             xlink:href="#path3682"
             y="0"
             x="0" />
          <use
             x="0"
             y="0"
             xlink:href="#path3682"
             id="use3853"
             transform="matrix(-1,0,0,1,397.3696,-5.504228e-2)"
             width="384"
             height="256" />
          <use
             height="256"
             width="384"
             transform="matrix(-1,0,0,1,393.0623,-7.941706)"
             id="use3855"
             xlink:href="#path3682"
             y="0"
             x="0" />
          <use
             x="0"
             y="0"
             xlink:href="#path3682"
             id="use3857"
             transform="matrix(-1,0,0,1,394.1391,-5.970046)"
             width="384"
             height="256" />
          <use
             height="256"
             width="384"
             transform="matrix(-1,0,0,1,395.216,-3.998376)"
             id="use3859"
             xlink:href="#path3682"
             y="0"
             x="0" />
          <use
             x="0"
             y="0"
             xlink:href="#path3682"
             id="use3861"
             transform="matrix(-1,0,0,1,396.2928,-2.026701)"
             width="384"
             height="256" />
          <use
             height="256"
             width="384"
             transform="matrix(-1,0,0,1,383.5082,-9.950507)"
             id="use3863"
             xlink:href="#path3682"
             y="0"
             x="0" />
          <use
             x="0"
             y="0"
             xlink:href="#path3682"
             id="use3865"
             transform="matrix(-1,0,0,1,390.8344,-2.049771)"
             width="384"
             height="256" />
          <use
             height="256"
             width="384"
             transform="matrix(-1,0,0,1,390.7985,-4.204517)"
             id="use3867"
             xlink:href="#path3682"
             y="0"
             x="0" />
          <use
             x="0"
             y="0"
             xlink:href="#path3682"
             id="use3869"
             transform="matrix(-1,0,0,1,390.583,-6.287438)"
             width="384"
             height="256" />
          <use
             height="256"
             width="384"
             transform="matrix(-1,0,0,1,389.4338,-8.08306)"
             id="use3871"
             xlink:href="#path3682"
             y="0"
             x="0" />
          <use
             x="0"
             y="0"
             xlink:href="#path3682"
             id="use3873"
             transform="matrix(-1,0,0,1,387.4586,-9.232258)"
             width="384"
             height="256" />
          <use
             height="256"
             width="384"
             transform="matrix(-1,0,0,1,385.5912,-9.735032)"
             id="use3875"
             xlink:href="#path3682"
             y="0"
             x="0" />
          <path
             sodipodi:nodetypes="czc"
             d="M 176.24171,83.575502 C 181.16476,81.563687 186.02082,80.219307 191.68364,80.219307 C 197.34646,80.219307 202.20254,81.563687 207.12559,83.575502"
             style="fill:none;fill-opacity:0.75;fill-rule:evenodd;stroke:#000000;stroke-width:0.5;stroke-linecap:square;stroke-linejoin:miter;stroke-miterlimit:4;stroke-opacity:1"
             id="path3748" />
          <path
             style="fill:#169253;fill-opacity:1;fill-rule:evenodd;stroke:#000000;stroke-width:0.5;stroke-linecap:butt;stroke-linejoin:miter;stroke-miterlimit:4;stroke-dasharray:none;stroke-opacity:1"
             d="M 193.51047,69.024632 L 193.51047,74.894293 C 195.20517,74.894293 196.0306,74.849969 200.02045,75.53462 C 200.02045,73.585919 201.32961,69.842821 193.51047,69.024632 z "
             id="path3879"
             sodipodi:nodetypes="cccc" />
          <rect
             rx="1.2042719"
             style="opacity:1;fill:#f8d80e;fill-opacity:1;fill-rule:nonzero;stroke:#000000;stroke-width:0.5;stroke-linecap:square;stroke-linejoin:round;stroke-miterlimit:4;stroke-dasharray:none;stroke-dashoffset:0.99999998;stroke-opacity:1"
             id="rect3680"
             width="3.7094781"
             height="2.7203066"
             x="190.11076"
             y="65.371407"
             ry="1.2042719" />
          <use
             x="0"
             y="0"
             xlink:href="#path3682"
             id="use3946"
             transform="translate(3.035727,-6.885875)"
             width="384"
             height="256" />
          <use
             height="256"
             width="384"
             transform="translate(3.035727,-4.635875)"
             id="use3948"
             xlink:href="#path3682"
             y="0"
             x="0" />
          <use
             x="0"
             y="0"
             xlink:href="#path3682"
             id="use3950"
             transform="translate(3.035727,-2.385875)"
             width="384"
             height="256" />
          <use
             height="256"
             width="384"
             transform="translate(3.032364,-0.135875)"
             id="use3952"
             xlink:href="#path3682"
             y="0"
             x="0" />
        </g>
        <g
           id="g4709"
           transform="matrix(1.953125,0,0,1.953125,0.373662,4.530422e-4)">
          <rect
             ry="0.17106366"
             rx="0.17106366"
             y="167.53925"
             x="187.39352"
             height="3.3674676"
             width="8.7812061"
             id="rect4058"
             style="opacity:1;fill:#db161c;fill-opacity:1;fill-rule:nonzero;stroke:#000000;stroke-width:0.49999979;stroke-linecap:square;stroke-linejoin:miter;stroke-miterlimit:4;stroke-dasharray:none;stroke-dashoffset:0.99999998;stroke-opacity:1" />
          <path
             style="fill:#db161c;fill-opacity:1;fill-rule:evenodd;stroke:#000000;stroke-width:0.5;stroke-linecap:butt;stroke-linejoin:bevel;stroke-miterlimit:4;stroke-dasharray:none;stroke-opacity:1"
             d="M 196.0716,167.53924 C 197.51292,170.45971 188.67404,179.76492 181.68265,186.43256 L 186.06189,186.43256 L 186.06189,189.93596 C 186.09729,187.71585 206.22914,170.08266 196.0716,167.53924 z "
             id="path4024"
             sodipodi:nodetypes="ccccc" />
          <path
             sodipodi:nodetypes="ccccc"
             id="path4022"
             d="M 187.54566,167.53924 C 186.10434,170.45971 194.94322,179.76492 201.93461,186.43256 L 197.55537,186.43256 L 197.55537,189.93596 C 197.51997,187.71585 177.38812,170.08266 187.54566,167.53924 z "
             style="fill:#db161c;fill-opacity:1;fill-rule:evenodd;stroke:#000000;stroke-width:0.5;stroke-linecap:butt;stroke-linejoin:bevel;stroke-miterlimit:4;stroke-dasharray:none;stroke-opacity:1" />
          <rect
             y="177.17043"
             x="186.74942"
             height="4.1571813"
             width="10.118423"
             id="rect4693"
             style="opacity:1;fill:#db161c;fill-opacity:1;fill-rule:nonzero;stroke:#000000;stroke-width:0.5;stroke-linecap:square;stroke-linejoin:bevel;stroke-miterlimit:4;stroke-dasharray:none;stroke-dashoffset:0.99999998;stroke-opacity:1" />
        </g>
      </g>
    </g>
  </g>
</svg>
