<?xml version="1.0" encoding="UTF-8" standalone="no"?>
<!-- Created with Inkscape (http://www.inkscape.org/) -->
<svg
   xmlns:svg="http://www.w3.org/2000/svg"
   xmlns="http://www.w3.org/2000/svg"
   version="1.0"
   width="600"
   height="300"
   id="svg1307">
  <defs
     id="defs1316" />
  <rect
     width="600"
     height="140"
     x="0"
     y="160"
     style="opacity:1;fill:#006a00;fill-opacity:1;fill-rule:nonzero;stroke:none;stroke-width:0;stroke-miterlimit:4;stroke-dasharray:none;stroke-opacity:1"
     id="rect9238" />
  <rect
     width="600"
     height="158"
     x="0"
     y="1.6653345e-014"
     style="opacity:1;fill:#ff0000;fill-opacity:1;fill-rule:nonzero;stroke:none;stroke-width:0;stroke-miterlimit:4;stroke-dasharray:none;stroke-opacity:1"
     id="rect9240" />
  <path
     d="M 195.25645,131.25616 C 169.23745,131.6875 153.17295,138.69715 141.00985,144.33931 C 128.45448,150.16352 120.03596,154.54079 97.342985,154.54079 C 74.65001,154.54079 66.231475,150.16346 53.676088,144.33931 C 41.594865,138.7352 25.710886,131.82957 0,131.31375 L 0,160.76534 C 20.392495,161.15045 28.640247,165.41571 40.607092,170.96676 C 53.162536,176.79099 69.814302,184.05 97.342985,184.05 C 124.8716,184.05 141.5753,176.79101 154.13081,170.96676 C 166.68597,165.14255 175.10466,160.76534 197.79765,160.76534 C 220.49051,160.76534 228.90912,165.14256 241.46453,170.96676 C 254.02001,176.79099 270.72353,184.05 298.2523,184.05 C 325.78094,184.05 342.43253,176.79101 354.98809,170.96676 C 367.5436,165.14255 376.0139,160.76534 398.70669,160.76534 C 421.39993,160.76534 429.81841,165.14256 442.37384,170.96676 C 454.9292,176.79099 471.58116,184.05 499.10917,184.05 C 526.63818,184.05 543.34197,176.79101 555.89751,170.96676 C 568.45275,165.14255 576.87143,160.76534 599.56436,160.76534 C 622.25715,160.76534 630.67574,165.14256 643.23124,170.96676 C 655.7868,176.79099 672.49038,184.05 700.019,184.05 C 727.54766,184.05 744.25124,176.79101 756.80651,170.96676 C 769.36206,165.14255 777.78064,160.76534 800.47356,160.76534 C 823.16638,160.76534 831.58502,165.14256 844.1404,170.96676 C 856.69599,176.79099 873.39963,184.05 900.92831,184.05 C 928.45691,184.05 945.16045,176.79101 957.71595,170.96676 C 969.1679,165.6545 977.1902,161.56185 995.73,160.88069 L 995.73,131.37145 C 971.52221,132.28054 956.26769,138.92472 944.59515,144.33931 C 932.03971,150.16352 923.62117,154.54079 900.92831,154.54079 C 878.2351,154.54079 869.81672,150.16346 857.26112,144.33931 C 844.70584,138.51521 828.00226,131.25616 800.47356,131.25616 C 772.94485,131.25616 756.24125,138.5152 743.68612,144.33931 C 731.13032,150.16352 722.71188,154.54079 700.019,154.54079 C 677.32593,154.54079 668.90736,150.16346 656.35201,144.33931 C 643.79661,138.51521 627.09306,131.25616 599.56436,131.25616 C 572.03566,131.25616 555.33194,138.5152 542.77662,144.33931 C 530.22121,150.16352 521.80258,154.54079 499.10917,154.54079 C 476.41674,154.54079 467.99812,150.16346 455.44271,144.33931 C 442.88739,138.51521 426.23555,131.25616 398.70669,131.25616 C 371.17838,131.25616 354.47461,138.5152 341.91921,144.33931 C 329.36377,150.16352 320.9452,154.54079 298.2523,154.54079 C 275.55927,154.54079 267.14084,150.16346 254.58533,144.33931 C 242.02996,138.51521 225.32626,131.25616 197.79765,131.25616 C 196.93736,131.25616 196.09571,131.24232 195.25645,131.25616 z "
     style="fill:#ffffff;fill-opacity:1;fill-rule:evenodd;stroke:none;stroke-width:16;stroke-linecap:butt;stroke-linejoin:miter;stroke-miterlimit:4;stroke-dasharray:none;stroke-opacity:1"
     id="path2511" />
</svg>
