<?xml version="1.0" encoding="UTF-8" standalone="no"?>
<!-- Created with Inkscape (http://www.inkscape.org/) -->
<svg
   xmlns:dc="http://purl.org/dc/elements/1.1/"
   xmlns:cc="http://web.resource.org/cc/"
   xmlns:rdf="http://www.w3.org/1999/02/22-rdf-syntax-ns#"
   xmlns:svg="http://www.w3.org/2000/svg"
   xmlns="http://www.w3.org/2000/svg"
   xmlns:xlink="http://www.w3.org/1999/xlink"
   xmlns:sodipodi="http://inkscape.sourceforge.net/DTD/sodipodi-0.dtd"
   xmlns:inkscape="http://www.inkscape.org/namespaces/inkscape"
   width="9000"
   height="6000"
   id="svg2"
   sodipodi:version="0.32"
   inkscape:version="0.43"
   version="1.0"
   sodipodi:docbase="C:\Documents and Settings\David Nelson\Archives\Svg"
   sodipodi:docname="Naval_Jack_of_Thailand.svg">
  <defs
     id="defs4" />
  <sodipodi:namedview
     id="base"
     pagecolor="#ffffff"
     bordercolor="#666666"
     borderopacity="1.0"
     inkscape:pageopacity="0.0"
     inkscape:pageshadow="2"
     inkscape:zoom="0.062166667"
     inkscape:cx="4500"
     inkscape:cy="3000"
     inkscape:document-units="px"
     inkscape:current-layer="layer1"
     inkscape:window-width="756"
     inkscape:window-height="540"
     inkscape:window-x="56"
     inkscape:window-y="59"
     showguides="true"
     inkscape:guide-bbox="true" />
  <metadata
     id="metadata7">
    <rdf:RDF>
      <cc:Work
         rdf:about="">
        <dc:format>image/svg+xml</dc:format>
        <dc:type
           rdf:resource="http://purl.org/dc/dcmitype/StillImage" />
      </cc:Work>
    </rdf:RDF>
  </metadata>
  <g
     inkscape:label="Layer 1"
     inkscape:groupmode="layer"
     id="layer1">
    <rect
       width="9000"
       height="6000"
       fill="#ce1126"
       id="red stripes" />
    <rect
       width="9000"
       height="4000"
       y="1000"
       fill="white"
       id="white stripes" />
    <rect
       width="9000"
       height="2000"
       y="2000"
       fill="#002649"
       id="blue stripe" />
    <g
       id="g3828"
       transform="translate(-1.732623e-5,0)">
      <use
         height="256"
         width="384"
         transform="matrix(0.707107,0.707107,-0.707107,0.707107,3554.531,-2178.949)"
         id="use2623"
         xlink:href="#path2619"
         y="0"
         x="0" />
      <g
         transform="scale(23.4375,23.4375)"
         id="g2430">
        <path
           id="rect2270"
           style="color:#000000;fill:#ffff00;fill-opacity:1;fill-rule:evenodd;stroke:#000000;stroke-width:1;stroke-linecap:square;stroke-linejoin:bevel;marker:none;marker-start:none;marker-mid:none;marker-end:none;stroke-miterlimit:4;stroke-dashoffset:0;stroke-opacity:1;visibility:visible;display:inline;overflow:visible"
           d="M 184.5,77.600003 L 184.5,70.550003 L 199.5,70.550003 L 199.5,77.600003 L 184.5,77.600003 z "
           sodipodi:nodetypes="ccccc" />
        <path
           style="fill:none;fill-opacity:0.75;fill-rule:evenodd;stroke:#000000;stroke-width:1px;stroke-linecap:butt;stroke-linejoin:miter;stroke-opacity:1"
           d="M 186.35,70.6 L 186.35,77.4"
           id="path2276" />
        <path
           id="path2278"
           d="M 190.11667,70.6 L 190.11667,77.4"
           style="fill:none;fill-opacity:0.75;fill-rule:evenodd;stroke:#000000;stroke-width:1px;stroke-linecap:butt;stroke-linejoin:miter;stroke-opacity:1" />
        <path
           style="fill:none;fill-opacity:0.75;fill-rule:evenodd;stroke:#000000;stroke-width:1px;stroke-linecap:butt;stroke-linejoin:miter;stroke-opacity:1"
           d="M 188.23334,70.6 L 188.23334,77.4"
           id="path2280" />
        <path
           id="path2282"
           d="M 192,70.6 L 192,77.4"
           style="fill:none;fill-opacity:0.75;fill-rule:evenodd;stroke:#000000;stroke-width:1px;stroke-linecap:butt;stroke-linejoin:miter;stroke-opacity:1" />
        <rect
           style="opacity:1;color:#000000;fill:#ffff00;fill-opacity:1;fill-rule:evenodd;stroke:#000000;stroke-width:1;stroke-linecap:butt;stroke-linejoin:miter;marker:none;marker-start:none;marker-mid:none;marker-end:none;stroke-miterlimit:4;stroke-dasharray:none;stroke-dashoffset:0;stroke-opacity:1;visibility:visible;display:inline;overflow:visible"
           id="rect2299"
           width="29.9"
           height="5.1999998"
           x="177.05"
           y="91.5" />
        <rect
           style="opacity:1;color:#000000;fill:#ffff00;fill-opacity:1;fill-rule:evenodd;stroke:#000000;stroke-width:1.02757025;stroke-linecap:butt;stroke-linejoin:miter;marker:none;marker-start:none;marker-mid:none;marker-end:none;stroke-miterlimit:4;stroke-dasharray:none;stroke-dashoffset:0;stroke-opacity:1;visibility:visible;display:inline;overflow:visible"
           id="rect2295"
           width="32.944099"
           height="11.4"
           x="175.52795"
           y="80.5" />
        <rect
           y="82.884979"
           x="173.49138"
           height="6.6299548"
           width="37.017044"
           id="rect2297"
           style="opacity:1;color:#000000;fill:#ffff00;fill-opacity:1;fill-rule:evenodd;stroke:#000000;stroke-width:1.02756953;stroke-linecap:butt;stroke-linejoin:miter;marker:none;marker-start:none;marker-mid:none;marker-end:none;stroke-miterlimit:4;stroke-dasharray:none;stroke-dashoffset:0;stroke-opacity:1;visibility:visible;display:inline;overflow:visible"
           ry="3.3149774" />
        <path
           id="path1353"
           style="fill:#ffff00;fill-opacity:1;fill-rule:evenodd;stroke:#000000;stroke-width:1px;stroke-linecap:butt;stroke-linejoin:bevel;stroke-opacity:1"
           d="M 184.6,70.6 C 180.6282,68.420619 183.02314,66.50652 185.60001,64.6 L 185.60001,62.55 L 187.38315,58.394707 L 189.6353,48.910686 C 186.8954,48.267197 190.26475,43.729684 192,40.6 C 193.73525,43.729684 197.1046,48.267197 194.3647,48.910686 L 196.61685,58.394707 L 198.39999,62.55 L 198.39999,64.6 C 200.97686,66.50652 203.3718,68.420619 199.4,70.6 L 184.6,70.6 z "
           sodipodi:nodetypes="cccccccccccc" />
        <path
           id="path2228"
           style="fill:none;fill-opacity:0.75;fill-rule:evenodd;stroke:#000000;stroke-width:1px;stroke-linecap:butt;stroke-linejoin:miter;stroke-opacity:1"
           d="M 188.4,53.8 L 189.6,56.8 L 192,51.2 L 194.4,56.8 L 195.6,53.8"
           sodipodi:nodetypes="ccccc" />
        <path
           id="path2232"
           style="fill:none;fill-opacity:0.75;fill-rule:evenodd;stroke:#000000;stroke-width:1px;stroke-linecap:butt;stroke-linejoin:miter;stroke-opacity:1"
           d="M 187.4,58.4 L 189.4,60.6 L 192,58.4 L 194.6,60.6 L 196.6,58.4"
           sodipodi:nodetypes="ccccc" />
        <path
           id="path2246"
           style="color:#000000;fill:none;fill-opacity:1;fill-rule:evenodd;stroke:#000000;stroke-width:1;stroke-linecap:square;stroke-linejoin:bevel;marker:none;marker-start:none;marker-mid:none;marker-end:none;stroke-miterlimit:4;stroke-dashoffset:0;stroke-opacity:1;visibility:visible;display:inline;overflow:visible"
           d="M 185.60001,62.5 L 198.39999,62.5"
           sodipodi:nodetypes="cc" />
        <path
           style="fill:none;fill-opacity:0.75;fill-rule:evenodd;stroke:#000000;stroke-width:1px;stroke-linecap:butt;stroke-linejoin:miter;stroke-opacity:1"
           d="M 197.65,70.6 L 197.65,77.4"
           id="path2364" />
        <path
           id="path2366"
           d="M 193.88333,70.6 L 193.88333,77.4"
           style="fill:none;fill-opacity:0.75;fill-rule:evenodd;stroke:#000000;stroke-width:1px;stroke-linecap:butt;stroke-linejoin:miter;stroke-opacity:1" />
        <path
           style="fill:none;fill-opacity:0.75;fill-rule:evenodd;stroke:#000000;stroke-width:1px;stroke-linecap:butt;stroke-linejoin:miter;stroke-opacity:1"
           d="M 195.76666,70.6 L 195.76666,77.4"
           id="path2368" />
        <path
           id="path2370"
           d="M 192,70.6 L 192,77.4"
           style="fill:none;fill-opacity:0.75;fill-rule:evenodd;stroke:#000000;stroke-width:1px;stroke-linecap:butt;stroke-linejoin:miter;stroke-opacity:1" />
        <path
           id="path2268"
           style="fill:#ffff00;fill-opacity:1;fill-rule:evenodd;stroke:#000000;stroke-width:1px;stroke-linecap:butt;stroke-linejoin:miter;stroke-opacity:1"
           d="M 192,74.3 L 188.86,78.5 L 185.72,74.3 L 182.58,78.5 L 179.44,74.3 L 176.3,78.5 C 175.94549,79.135868 174.88281,80.507603 176.3,80.507603 L 207.7,80.507603 C 209.11719,80.507603 208.05451,79.135868 207.7,78.5 L 204.56,74.3 L 201.42,78.5 L 198.28,74.3 L 195.14,78.5 L 192,74.3 z "
           sodipodi:nodetypes="cccccccccccccc" />
        <path
           sodipodi:nodetypes="cc"
           d="M 185.60001,64.5 L 198.39999,64.5"
           style="color:#000000;fill:none;fill-opacity:1;fill-rule:evenodd;stroke:#000000;stroke-width:1;stroke-linecap:square;stroke-linejoin:bevel;marker:none;marker-start:none;marker-mid:none;marker-end:none;stroke-miterlimit:4;stroke-dashoffset:0;stroke-opacity:1;visibility:visible;display:inline;overflow:visible"
           id="path2383" />
      </g>
      <path
         sodipodi:nodetypes="csczccccccccccss"
         id="path2450"
         d="M 3903.2625,2892.8979 C 4056.7418,2892.8979 4080.4219,2706.8137 4080.4219,2589.683 C 4080.4219,2475.6513 4022.3327,2396.9871 4158.7807,2396.9871 C 4120.4548,2348.5003 4071.5498,2304.7424 4025.8437,2252.4299 C 3969.6216,2188.0814 3947.2312,2119.5294 3872.6002,2119.5294 L 3950.183,2222.901 C 3836.9205,2222.901 3826.3948,2378.3252 3950.183,2378.3252 C 3950.183,2434.6791 3968.8777,2491.8469 4005.9009,2513.2223 L 3973.8537,2548.4126 L 4005.9009,2583.6028 L 3973.2169,2618.793 L 4005.9009,2653.9833 C 4005.9009,2789.0088 3824.0841,2858.542 3824.0841,2730.2288 C 4006.8539,2730.2288 3822.1608,2582.1178 3782.8125,2548.8281 C 3782.8125,2548.8281 3746.4844,2708.8568 3746.4844,2750.3906 C 3746.4844,2802.0776 3811.7859,2892.8979 3903.2625,2892.8979 z "
         style="fill:#ffff00;fill-opacity:1;fill-rule:evenodd;stroke:#000000;stroke-width:23.4375px;stroke-linecap:butt;stroke-linejoin:miter;stroke-opacity:1" />
      <use
         height="256"
         width="384"
         transform="matrix(-1,0,0,1,9000,0)"
         id="use2452"
         xlink:href="#path2450"
         y="0"
         x="0" />
      <path
         sodipodi:nodetypes="ccccccccccccccc"
         id="path2610"
         d="M 4414.3066,3643.0664 C 4414.3066,3897.3518 4414.3066,4427.4902 4414.3066,4427.4902 C 4414.3066,4685.1171 4050.724,4721.6102 3954.3457,4490.4785 C 4001.6883,4498.0465 4054.4855,4484.0445 4111.084,4454.5898 C 3790.3594,4302.7334 3703.436,4111.2645 3597.6563,3923.584 C 3573.4816,4225.7027 3562.819,4520.0191 3747.8027,4694.8242 L 3809.3262,4583.4961 C 4074.66,4989.727 4365.6682,4861.0542 4500,5047.8516 C 4634.3318,4861.054 4925.34,4989.727 5190.6738,4583.4961 L 5252.1973,4694.8242 C 5437.181,4520.0194 5426.5184,4225.7027 5402.3438,3923.584 C 5296.564,4111.2645 5209.6409,4302.7334 4888.916,4454.5898 C 4945.5143,4484.0445 4998.3117,4498.0463 5045.6543,4490.4785 C 4949.276,4721.6105 4585.6934,4685.1173 4585.6934,4427.4902 C 4585.6934,4427.4902 4585.6934,3897.3518 4585.6934,3643.0664"
         style="fill:#ffff00;fill-opacity:1;fill-rule:evenodd;stroke:#000000;stroke-width:23.4375;stroke-linecap:butt;stroke-linejoin:miter;stroke-miterlimit:4;stroke-opacity:1" />
      <path
         sodipodi:nodetypes="cccc"
         d="M 3604.6875,3951.5625 C 3696.513,4678.9402 4214.9262,4709.4984 4500,4926.5625 C 4500,4926.5625 4214.9262,4709.4984 4500,4926.5625 C 4785.0738,4709.4984 5303.487,4678.9402 5395.3125,3951.5625"
         style="fill:none;fill-opacity:0.75;fill-rule:evenodd;stroke:#000000;stroke-width:23.4375px;stroke-linecap:butt;stroke-linejoin:miter;stroke-opacity:1"
         id="path2513" />
      <g
         transform="scale(23.4375,23.4375)"
         style="fill:#ffff00;fill-opacity:1"
         id="g2537">
        <path
           style="fill:#ffff00;fill-opacity:1;fill-rule:evenodd;stroke:#000000;stroke-width:1px;stroke-linecap:butt;stroke-linejoin:miter;stroke-opacity:1"
           d="M 172.9581,155.51656 C 168.28641,155.51656 160.21135,157.56506 165.04602,163.42865 C 162.75687,168.1379 163.61515,172.21767 165.52075,176.08798 C 165.24746,172.6756 164.62063,169.13065 170.90096,168.17589 L 172.9581,155.51656 z "
           id="path2524"
           sodipodi:nodetypes="ccccc" />
        <path
           style="fill:#ffff00;fill-opacity:1;fill-rule:evenodd;stroke:#000000;stroke-width:1px;stroke-linecap:butt;stroke-linejoin:miter;stroke-opacity:1"
           d="M 171.21745,157.09898 L 170.38944,168.33414 C 166.54381,166.08523 167.5351,158.8957 171.21745,157.09898 z "
           id="path2526"
           sodipodi:nodetypes="ccc" />
      </g>
      <use
         height="256"
         width="384"
         transform="matrix(0.707107,0.707107,-0.707107,0.707107,4055.848,-2047.935)"
         id="use2570"
         xlink:href="#g2537"
         y="0"
         x="0" />
      <use
         x="0"
         y="0"
         xlink:href="#g2537"
         id="use2576"
         transform="matrix(-1,7.849624e-17,-1.143833e-16,-1,9000.012,7743.722)"
         width="384"
         height="256" />
      <use
         x="0"
         y="0"
         xlink:href="#g2537"
         id="use2572"
         transform="matrix(1.861575e-16,1,-1,1.569925e-16,8371.866,-628.1288)"
         width="384"
         height="256" />
      <use
         height="256"
         width="384"
         transform="matrix(-0.707107,-0.707107,0.707107,-0.707107,4944.171,9791.653)"
         id="use2578"
         xlink:href="#g2537"
         y="0"
         x="0" />
      <use
         height="256"
         width="384"
         transform="matrix(-0.707107,0.707107,-0.707107,-0.707107,10419.8,3427.711)"
         id="use2574"
         xlink:href="#g2537"
         y="0"
         x="0" />
      <use
         x="0"
         y="0"
         xlink:href="#g2537"
         id="use2580"
         transform="matrix(-1.143833e-16,-1,1,-7.849624e-17,628.1543,8371.847)"
         width="384"
         height="256" />
      <use
         height="256"
         width="384"
         transform="matrix(0.707107,-0.707107,0.707107,0.707107,-1419.774,4316.016)"
         id="use2582"
         xlink:href="#g2537"
         y="0"
         x="0" />
      <path
         id="path2635"
         d="M 4924.8047,3309.8145 C 4917.8177,3310.2052 4911.3708,3313.6973 4907.2266,3319.3359 L 4767.334,3492.9199 C 4760.4668,3499.0983 4757.8685,3508.7339 4760.6988,3517.5272 C 4763.5291,3526.3205 4771.26,3532.6313 4780.4419,3533.644 C 4789.6237,3534.6565 4798.5441,3530.182 4803.2227,3522.2168 L 4943.8477,3348.6328 C 4950.0614,3341.5186 4951.398,3331.3699 4947.2379,3322.8895 C 4943.0777,3314.4094 4934.2338,3309.2548 4924.8047,3309.8145 L 4924.8047,3309.8145 z "
         style="fill:#ffff00;fill-opacity:1;fill-rule:evenodd;stroke:#000000;stroke-width:23.4375;stroke-linecap:round;stroke-linejoin:miter;stroke-miterlimit:4;stroke-dasharray:none;stroke-opacity:1" />
      <path
         id="path2530"
         d="M 4500,3353.6133 C 4215.2348,3353.6133 3982.178,3587.4028 3982.1777,3872.168 C 3982.1777,4156.9331 4215.2348,4389.99 4500,4389.9902 C 4784.7652,4389.9902 5017.822,4156.9331 5017.8223,3872.168 C 5017.8223,3587.4028 4784.7652,3353.6135 4500,3353.6133 z M 4500,3564.5508 C 4670.6348,3564.5508 4806.8848,3701.5331 4806.8848,3872.168 C 4806.8848,4042.8028 4670.6348,4179.0527 4500,4179.0527 C 4329.3652,4179.0527 4193.1152,4042.8028 4193.1152,3872.168 C 4193.1152,3701.5331 4329.3652,3564.5508 4500,3564.5508 z "
         style="color:#000000;fill:#ffff00;fill-opacity:1;fill-rule:evenodd;stroke:#000000;stroke-width:23.4375;stroke-linecap:butt;stroke-linejoin:miter;marker:none;marker-start:none;marker-mid:none;marker-end:none;stroke-miterlimit:4;stroke-dasharray:none;stroke-dashoffset:0;stroke-opacity:1;visibility:visible;display:inline;overflow:visible" />
      <path
         transform="matrix(23.4375,0,0,23.4375,0,-14.0625)"
         d="M 209.6 165.8 A 17.6 17.6 0 1 1  174.4,165.8 A 17.6 17.6 0 1 1  209.6 165.8 z"
         sodipodi:ry="17.6"
         sodipodi:rx="17.6"
         sodipodi:cy="165.8"
         sodipodi:cx="192"
         id="path2520"
         style="color:#000000;fill:none;fill-opacity:0;fill-rule:evenodd;stroke:#000000;stroke-width:1;stroke-linecap:butt;stroke-linejoin:miter;marker:none;marker-start:none;marker-mid:none;marker-end:none;stroke-miterlimit:4;stroke-dasharray:none;stroke-dashoffset:0;stroke-opacity:1;visibility:visible;display:inline;overflow:visible"
         sodipodi:type="arc" />
      <g
         transform="scale(23.4375,23.4375)"
         id="g2598">
        <path
           sodipodi:type="arc"
           style="opacity:1;color:#000000;fill:#ffff00;fill-opacity:1;fill-rule:evenodd;stroke:#000000;stroke-width:1;stroke-linecap:butt;stroke-linejoin:miter;marker:none;marker-start:none;marker-mid:none;marker-end:none;stroke-miterlimit:4;stroke-dasharray:none;stroke-dashoffset:0;stroke-opacity:1;visibility:visible;display:inline;overflow:visible"
           id="path2528"
           sodipodi:cx="185.16479"
           sodipodi:cy="165.11778"
           sodipodi:rx="2.627547"
           sodipodi:ry="2.627547"
           d="M 187.79234 165.11778 A 2.627547 2.627547 0 1 1  182.53725,165.11778 A 2.627547 2.627547 0 1 1  187.79234 165.11778 z"
           transform="translate(-10.69787,8.222046e-2)" />
        <use
           x="0"
           y="0"
           xlink:href="#path2528"
           id="use2584"
           transform="matrix(0.707107,0.707107,-0.707107,0.707107,173.0494,-87.37903)"
           width="384"
           height="256" />
        <use
           height="256"
           width="384"
           transform="matrix(-0.707107,0.707107,-0.707107,-0.707107,444.579,146.2484)"
           id="use2588"
           xlink:href="#path2528"
           y="0"
           x="0" />
        <use
           x="0"
           y="0"
           xlink:href="#path2528"
           id="use2590"
           transform="matrix(-1,-3.361027e-18,-2.712049e-24,-1,384.0009,330.3991)"
           width="384"
           height="256" />
        <use
           x="0"
           y="0"
           xlink:href="#path2528"
           id="use2592"
           transform="matrix(-0.707107,-0.707107,0.707107,-0.707107,210.9515,417.7781)"
           width="384"
           height="256" />
        <use
           x="0"
           y="0"
           xlink:href="#path2528"
           id="use2594"
           transform="matrix(-3.588709e-17,-1,1,0,26.80097,357.1999)"
           width="384"
           height="256" />
        <use
           height="256"
           width="384"
           transform="matrix(0.707107,-0.707107,0.707107,0.707107,-60.57805,184.1505)"
           id="use2596"
           xlink:href="#path2528"
           y="0"
           x="0" />
      </g>
      <path
         sodipodi:nodetypes="cssssccscsssscsc"
         id="path2473"
         d="M 4491.2109,2450.6836 C 4494.0813,2450.5029 4497.0823,2450.6836 4500,2450.6836 C 4574.6953,2450.6836 4634.0332,2510.7539 4634.0332,2585.4492 C 4634.0332,2660.1445 4574.6953,2719.4824 4500,2719.4824 C 4425.3047,2719.4824 4365.2344,2660.1445 4365.2344,2585.4492 C 4365.2344,2513.6716 4420.598,2455.1266 4491.2109,2450.6836 z M 4585.6934,3650.4499 C 4585.6934,3281.9493 4585.6934,3107.9864 4585.6934,2822.0215 C 4585.6934,2813.7605 4590.003,2795.5413 4597.4121,2778.0762 C 4667.6541,2742.3558 4716.0645,2669.456 4716.0645,2585.4492 C 4716.0645,2466.3698 4619.0794,2368.6523 4500,2368.6523 C 4496.2788,2368.6523 4492.6908,2368.4639 4489.0137,2368.6523 C 4375.0212,2374.4965 4283.2031,2470.091 4283.2031,2585.4492 C 4283.2031,2669.456 4332.1313,2742.3558 4402.5879,2778.0762 C 4409.997,2795.5413 4414.3066,2813.7602 4414.3066,2822.0215 C 4414.3066,3107.9864 4414.3066,3281.9493 4414.3066,3650.4499"
         style="fill:#ffff00;fill-opacity:1;fill-rule:evenodd;stroke:#000000;stroke-width:23.43799973;stroke-linecap:round;stroke-linejoin:miter;stroke-miterlimit:4;stroke-dasharray:none;stroke-opacity:1" />
      <path
         id="path2619"
         d="M 4908.9326,2765.9372 C 4887.0743,2739.8044 4860.0832,2722.3615 4831.2867,2715.3455 C 4802.4902,2708.3292 4770.8864,2712.394 4747.6673,2731.815 C 4724.4483,2751.236 4715.4239,2781.154 4717.2398,2810.737 C 4719.056,2840.3203 4730.8922,2870.4394 4752.7505,2896.5722 C 4774.6088,2922.7052 4802.6316,2940.24 4831.428,2947.256 C 4860.2245,2954.272 4891.2666,2950.6774 4914.4856,2931.2564 C 4937.7047,2911.8352 4947.2909,2881.4475 4945.4749,2851.8642 C 4943.6587,2822.2812 4930.7909,2792.0702 4908.9326,2765.9372 z M 4872.9771,2796.0115 C 4888.8375,2814.9738 4897.2853,2836.7262 4898.4042,2854.9509 C 4899.5231,2873.1757 4894.4353,2886.9164 4884.4113,2895.3007 C 4874.3871,2903.685 4859.9637,2906.2643 4842.2236,2901.942 C 4824.4835,2897.6196 4804.5666,2885.4602 4788.7059,2866.4981 C 4772.8455,2847.5358 4764.8677,2826.345 4763.7487,2808.1205 C 4762.6298,2789.8957 4767.7177,2776.155 4777.7416,2767.7707 C 4787.7656,2759.3862 4802.1893,2756.8071 4819.9294,2761.1295 C 4837.6695,2765.4516 4857.1165,2777.0491 4872.9771,2796.0115 z "
         style="color:#000000;fill:#ffff00;fill-opacity:1;fill-rule:evenodd;stroke:#000000;stroke-width:23.4375;stroke-linecap:round;stroke-linejoin:miter;marker:none;marker-start:none;marker-mid:none;marker-end:none;stroke-miterlimit:4;stroke-dasharray:none;stroke-dashoffset:0;stroke-opacity:1;visibility:visible;display:inline;overflow:visible" />
      <path
         id="path2612"
         d="M 4601.8066,2611.084 C 4592.9297,2611.0158 4584.776,2615.9684 4580.7441,2623.8771 C 4576.7121,2631.7859 4577.494,2641.2935 4582.7637,2648.4375 C 4627.403,2715.3727 4691.6529,2771.1274 4788.5742,2800.0488 C 4801.114,2803.6894 4814.2305,2796.4753 4817.8711,2783.9355 C 4821.5116,2771.3958 4814.2976,2758.2792 4801.7578,2754.6387 C 4714.961,2728.7384 4661.5666,2682.0258 4621.582,2622.0703 C 4617.3105,2615.2591 4609.8464,2611.1123 4601.8066,2611.084 z "
         style="fill:#ffff00;fill-opacity:1;fill-rule:evenodd;stroke:#000000;stroke-width:23.4375;stroke-linecap:round;stroke-linejoin:miter;stroke-miterlimit:4;stroke-dasharray:none;stroke-opacity:1" />
      <use
         x="0"
         y="0"
         xlink:href="#path2619"
         id="use2625"
         transform="matrix(0.154818,0.987943,-0.987943,0.154818,6715.685,-1434.256)"
         width="384"
         height="256" />
      <use
         height="256"
         width="384"
         transform="matrix(1.507927e-2,0.999886,-0.999886,1.507927e-2,7189.132,-860.8226)"
         id="use2627"
         xlink:href="#path2619"
         y="0"
         x="0" />
      <path
         id="path2631"
         d="M 4625.2441,3788.0859 C 4619.1223,3788.3278 4613.3384,3790.9568 4609.1309,3795.4102 L 4454.5898,3949.9512 C 4447.6015,3955.5827 4444.4421,3964.7105 4446.4542,3973.4571 C 4448.4663,3982.204 4455.296,3989.0337 4464.0429,3991.0458 C 4472.7895,3993.0579 4481.9173,3989.8985 4487.5488,3982.9102 L 4642.0898,3828.3691 C 4649.0288,3821.659 4651.1445,3811.3814 4647.4205,3802.4761 C 4643.6965,3793.5708 4634.8941,3787.8588 4625.2441,3788.0859 z "
         style="fill:#ffff00;fill-opacity:1;fill-rule:evenodd;stroke:#000000;stroke-width:23.4375;stroke-linecap:round;stroke-linejoin:miter;stroke-miterlimit:4;stroke-dasharray:none;stroke-opacity:1" />
      <path
         id="path2633"
         d="M 4857.4219,2865.9668 C 4850.7516,2867.283 4844.9817,2871.4308 4841.6084,2877.3337 C 4838.2352,2883.2367 4837.5914,2890.3137 4839.8438,2896.7285 L 4932.1289,3186.0352 C 4934.2146,3194.493 4940.8186,3201.0966 4949.2765,3203.1816 C 4957.7344,3205.2668 4966.6509,3202.4895 4972.4288,3195.9701 C 4978.2068,3189.4509 4979.8927,3180.2653 4976.8066,3172.1191 L 4884.5215,2882.0801 C 4880.9895,2870.5287 4869.2576,2863.553 4857.4219,2865.9668 L 4857.4219,2865.9668 z "
         style="fill:#ffff00;fill-opacity:1;fill-rule:evenodd;stroke:#000000;stroke-width:23.4375;stroke-linecap:round;stroke-linejoin:miter;stroke-miterlimit:4;stroke-dasharray:none;stroke-opacity:1" />
      <g
         transform="scale(23.4375,23.4375)"
         id="g2506">
        <path
           style="color:#000000;fill:#ffff00;fill-opacity:1;fill-rule:evenodd;stroke:#000000;stroke-width:1;stroke-linecap:butt;stroke-linejoin:miter;marker:none;marker-start:none;marker-mid:none;marker-end:none;stroke-miterlimit:4;stroke-dashoffset:0;stroke-opacity:1;visibility:visible;display:inline;overflow:visible"
           d="M 159.69205,124.32635 L 224.30794,124.32635 L 226.80794,130.7128 L 157.19205,130.7128 L 159.69205,124.32635 z "
           id="rect2454"
           sodipodi:nodetypes="ccccc" />
        <g
           id="g2464"
           transform="translate(0,-0.188011)">
          <rect
             y="124.51459"
             x="165.55801"
             height="6.3859973"
             width="3.2334523"
             id="rect2460"
             style="opacity:1;color:#000000;fill:#ffff00;fill-opacity:1;fill-rule:evenodd;stroke:#000000;stroke-width:0.99999958;stroke-linecap:butt;stroke-linejoin:miter;marker:none;marker-start:none;marker-mid:none;marker-end:none;stroke-miterlimit:4;stroke-dasharray:none;stroke-dashoffset:0;stroke-opacity:1;visibility:visible;display:inline;overflow:visible" />
          <use
             height="256"
             width="384"
             transform="translate(7,0)"
             id="use2462"
             xlink:href="#rect2460"
             y="0"
             x="0" />
        </g>
        <use
           x="0"
           y="0"
           xlink:href="#g2464"
           id="use2469"
           transform="matrix(-1,0,0,1,384,0)"
           width="384"
           height="256" />
      </g>
    </g>
  </g>
</svg>
