<?xml version="1.0" encoding="UTF-8" standalone="no"?>
<!-- Created with Inkscape (http://www.inkscape.org/) -->
<svg
   xmlns:dc="http://purl.org/dc/elements/1.1/"
   xmlns:cc="http://web.resource.org/cc/"
   xmlns:rdf="http://www.w3.org/1999/02/22-rdf-syntax-ns#"
   xmlns:svg="http://www.w3.org/2000/svg"
   xmlns="http://www.w3.org/2000/svg"
   xmlns:xlink="http://www.w3.org/1999/xlink"
   xmlns:sodipodi="http://inkscape.sourceforge.net/DTD/sodipodi-0.dtd"
   xmlns:inkscape="http://www.inkscape.org/namespaces/inkscape"
   width="9000"
   height="6000"
   id="svg2"
   sodipodi:version="0.32"
   inkscape:version="0.43"
   version="1.0"
   sodipodi:docbase="C:\Program Files\Inkscape"
   sodipodi:docname="Thailand.svg">
  <defs
     id="defs4">
    <linearGradient
       id="linearGradient2601">
      <stop
         style="stop-color:#7b7342;stop-opacity:1;"
         offset="0"
         id="stop2605" />
      <stop
         style="stop-color:#fbeb86;stop-opacity:1;"
         offset="1"
         id="stop2607" />
    </linearGradient>
    <linearGradient
       id="linearGradient2584">
      <stop
         style="stop-color:#fbeb86;stop-opacity:1;"
         offset="0"
         id="stop2586" />
      <stop
         id="stop2588"
         offset="0.75"
         style="stop-color:#7b7342;stop-opacity:1;" />
      <stop
         id="stop2590"
         offset="1"
         style="stop-color:#fbeb86;stop-opacity:1;" />
    </linearGradient>
    <linearGradient
       id="linearGradient2575">
      <stop
         style="stop-color:#fbeb86;stop-opacity:1;"
         offset="0"
         id="stop2577" />
      <stop
         style="stop-color:#fbeb86;stop-opacity:0;"
         offset="1"
         id="stop2579" />
    </linearGradient>
    <linearGradient
       inkscape:collect="always"
       xlink:href="#linearGradient2550"
       id="linearGradient2556"
       x1="133.9362"
       y1="166.72597"
       x2="267.61923"
       y2="166.72597"
       gradientUnits="userSpaceOnUse" />
    <linearGradient
       y2="167.4341"
       x2="224.32999"
       y1="164.58865"
       x1="224.32999"
       gradientUnits="userSpaceOnUse"
       id="linearGradient2599"
       xlink:href="#linearGradient2550"
       inkscape:collect="always" />
    <linearGradient
       inkscape:collect="always"
       xlink:href="#linearGradient2601"
       id="linearGradient2581"
       x1="209.37079"
       y1="155.96468"
       x2="209.37079"
       y2="164.53145"
       gradientUnits="userSpaceOnUse" />
    <linearGradient
       inkscape:collect="always"
       xlink:href="#linearGradient2584"
       id="linearGradient2692"
       x1="210.84088"
       y1="168.30154"
       x2="210.84088"
       y2="164.75606"
       gradientUnits="userSpaceOnUse" />
    <linearGradient
       inkscape:collect="always"
       xlink:href="#linearGradient2601"
       id="linearGradient6769"
       gradientUnits="userSpaceOnUse"
       x1="209.37079"
       y1="155.96468"
       x2="209.37079"
       y2="164.53145"
       gradientTransform="translate(0,-5744)" />
    <linearGradient
       inkscape:collect="always"
       xlink:href="#linearGradient2584"
       id="linearGradient6771"
       gradientUnits="userSpaceOnUse"
       x1="210.84088"
       y1="168.30154"
       x2="210.84088"
       y2="164.75606"
       gradientTransform="translate(0,-5744)" />
    <linearGradient
       inkscape:collect="always"
       xlink:href="#linearGradient2601"
       id="linearGradient6962"
       gradientUnits="userSpaceOnUse"
       gradientTransform="matrix(4.266667e-2,0,0,4.266667e-2,0,3.938802e-5)"
       x1="209.37079"
       y1="155.96468"
       x2="209.37079"
       y2="164.53145" />
    <linearGradient
       inkscape:collect="always"
       xlink:href="#linearGradient2584"
       id="linearGradient6964"
       gradientUnits="userSpaceOnUse"
       gradientTransform="matrix(4.266667e-2,0,0,4.266667e-2,0,3.938802e-5)"
       x1="210.84088"
       y1="168.30154"
       x2="210.84088"
       y2="164.75606" />
  </defs>
  <sodipodi:namedview
     id="base"
     pagecolor="#ffffff"
     bordercolor="#666666"
     borderopacity="1.0"
     inkscape:pageopacity="0.0"
     inkscape:pageshadow="2"
     inkscape:zoom="0.062166662"
     inkscape:cx="4500"
     inkscape:cy="3000.0002"
     inkscape:document-units="px"
     inkscape:current-layer="layer1"
     inkscape:window-width="756"
     inkscape:window-height="540"
     inkscape:window-x="42"
     inkscape:window-y="99"
     showguides="true"
     inkscape:guide-bbox="true" />
  <metadata
     id="metadata7">
    <rdf:RDF>
      <cc:Work
         rdf:about="">
        <dc:format>image/svg+xml</dc:format>
        <dc:type
           rdf:resource="http://purl.org/dc/dcmitype/StillImage" />
      </cc:Work>
    </rdf:RDF>
  </metadata>
  <g
     inkscape:label="Layer 1"
     inkscape:groupmode="layer"
     id="layer1">
    <rect
       style="fill:#ce1126"
       y="-0.00048828125"
       x="0"
       width="9000"
       height="6000.0005"
       id="red stripes" />
    <rect
       style="fill:#ffffff"
       x="0"
       width="9000"
       height="4000.0005"
       y="999.99951"
       id="white stripes" />
    <rect
       style="fill:#002649"
       x="0"
       width="9000"
       height="2000"
       y="2000"
       id="blue stripe" />
    <path
       sodipodi:type="arc"
       style="opacity:1;fill:#ce1126;fill-opacity:1;fill-rule:nonzero;stroke:none;stroke-width:0.75;stroke-linecap:round;stroke-linejoin:miter;stroke-miterlimit:4;stroke-dasharray:none;stroke-dashoffset:0.99999998;stroke-opacity:1"
       id="red disk"
       sodipodi:cx="1624.665"
       sodipodi:cy="2815.0132"
       sodipodi:rx="1013.4049"
       sodipodi:ry="1013.4049"
       d="M 2638.0699 2815.0132 A 1013.4049 1013.4049 0 1 1  611.26013,2815.0132 A 1013.4049 1013.4049 0 1 1  2638.0699 2815.0132 z"
       transform="matrix(1.973545,0,0,1.973545,1293.65,-2555.555)" />
    <g
       id="g1685">
      <path
         style="fill:#f3ecde;fill-opacity:1;fill-rule:nonzero;stroke:#000000;stroke-width:23.4375;stroke-linecap:butt;stroke-linejoin:miter;stroke-miterlimit:4;stroke-dasharray:none;stroke-opacity:1"
         d="M 3155.2734,1876.4648 C 3145.3748,1893.3773 3134.347,1908.7336 3120.1172,1918.2117 C 3050.8751,1964.3391 3060.6872,2013.382 3060.791,2058.1055 C 3060.8658,2090.2781 3058.0137,2132.6977 3008.0566,2189.2078 C 2888.9677,2323.9195 2913.1031,2467.8609 3000,2605.957 C 3008.6805,2619.7523 3019.9662,2632.7039 3029.2969,2646.2391 C 3054.806,2616.5883 3080.868,2585.5852 3106.9336,2553.2227 C 3106.8148,2553.0492 3107.0527,2552.6625 3106.9336,2552.4891 C 3070.8485,2500.1812 3137.1584,2474.1211 3203.6133,2474.1211 C 3338.4673,2474.1211 3339.8438,2407.7742 3339.8438,2362.0594 C 3339.8438,2251.6594 3368.3965,2260.2539 3400.6348,2260.2539 C 3453.1486,2260.2539 3488.6505,2354.7352 3557.373,2354.7352 C 3616.9277,2354.7352 3648.1934,2329.1016 3648.1934,2329.1016 C 3709.8619,2539.2984 3810.2986,2766.0445 3949.2188,2939.2078 C 4043.1115,3058.7203 4047.5691,3541.875 4003.418,3565.4297 C 3960.3905,3588.3844 3972.3898,3627.8086 3978.5156,3665.7703 L 3973.3887,3667.2352 L 4298.584,3667.2352 C 4298.584,3570.4828 4274.4143,3477.1406 4274.4141,3364.7461 C 4274.4141,3030.5766 4230.4688,2943.3234 4230.4688,2873.2898 C 4230.4688,2704.1531 4439.5622,2747.8758 4611.3281,2778.075 C 4781.7117,2808.0328 4878.6851,2824.95 5132.8125,2824.95 C 5132.8125,2824.95 5184.9042,2887.1016 5321.0449,3031.493 C 5563.1691,3288.293 5534.1026,3519.2625 5504.8828,3536.1328 C 5480.5519,3550.1789 5466.3574,3526.5867 5474.1211,3667.2352 L 5823.4863,3667.2352 C 5829.6502,3562.343 5821.4147,3572.7891 5798.584,3523.6805 C 5742.6504,3403.3687 5784.9558,3369.5578 5671.875,3151.6102 C 5515.7341,2850.6703 5626.4119,2836.1086 5573.7305,2559.8133 L 5802.2461,3132.5672 C 5799.3637,3135.45 5794.8968,3138.7055 5791.2598,3143.5547 C 5785.1067,3151.7578 5770.7208,3186.7359 5784.668,3200.6836 C 5795.4668,3211.4812 5808.4045,3230.8617 5827.1484,3240.2344 C 5840.2174,3246.7688 5856.9274,3251.7023 5866.6992,3261.4734 C 5878.8436,3273.6187 5892.4012,3294.5016 5906.25,3308.3484 C 5914.3898,3316.4883 5934.1071,3338.7562 5945.0684,3344.2383 C 5958.5937,3351 5970.8306,3347.8992 5991.9434,3347.8992 C 6015.128,3347.8992 6026.5076,3345.3023 6045.4102,3340.575 C 6050.1131,3339.4008 6088.6228,3338.6906 6088.623,3329.5898 C 6088.623,3308.1797 6086.1204,3302.7469 6071.0449,3293.7 C 6054.0422,3283.5 6053.5341,3274.0594 6045.4102,3257.8125 C 6035.7237,3238.4391 6025.7653,3234.0398 6006.5918,3229.2469 C 5981.2223,3222.9047 5982.2379,3215.8805 5967.041,3200.6836 C 5953.2164,3186.8578 5932.9399,3180.0023 5927.4902,3158.2031 C 5924.3421,3145.6102 5917.5792,3126.3188 5906.25,3114.9891 C 5879.6576,3088.3969 5877.3731,3125.9766 5849.1211,3125.9766 C 5605.2916,2589.1055 5663.8448,2641.9477 5635.2539,2507.8125 C 5548.0561,2098.7227 5445.6452,1510.9852 4547.6074,1510.9852 C 4394.4708,1510.9852 4294.4616,1535.1563 4204.834,1535.1563 C 4086.3124,1535.1563 3895.819,1466.7234 3769.043,1574.707 C 3769.043,1582.0406 3769.043,1589.3391 3769.043,1596.6797 C 3769.043,1611.5484 3770.1291,1620.4289 3769.043,1625.243 C 3768.8655,1625.8945 3768.589,1626.9258 3768.3105,1627.4414 C 3768.2339,1627.5609 3767.662,1628.0602 3767.5781,1628.1727 C 3767.3948,1628.3859 3767.0611,1628.7234 3766.8457,1628.9063 C 3766.7295,1628.9906 3766.2382,1629.5602 3766.1133,1629.6375 C 3765.4432,1630.0008 3764.1019,1630.1438 3763.1836,1630.3711 C 3759.878,1631.0602 3754.9828,1631.1023 3747.8027,1631.1023 C 3730.226,1631.1023 3718.9542,1632.4055 3713.3789,1636.9617 C 3707.257,1642.6102 3708.2016,1653.607 3713.3789,1674.3164 C 3713.5901,1675.1602 3713.2437,1676.4656 3713.3789,1677.2461 C 3713.4663,1677.8203 3714.0645,1678.9031 3714.1113,1679.4422 C 3714.1338,1679.7961 3714.1062,1680.5719 3714.1113,1680.907 C 3714.108,1681.2375 3714.1313,1682.0578 3714.1113,1682.3719 C 3714.0832,1682.6789 3714.1556,1683.5461 3714.1113,1683.8367 C 3714.0853,1683.9797 3713.4089,1684.432 3713.3789,1684.5703 C 3713.3452,1684.7062 3713.4164,1685.1703 3713.3789,1685.3016 C 3713.3377,1685.4305 3713.4237,1685.9109 3713.3789,1686.0352 C 3713.3304,1686.1547 3712.6985,1686.6492 3712.6465,1686.7664 C 3712.5909,1686.8813 3712.7055,1687.3898 3712.6465,1687.5 C 3712.5841,1687.6055 3711.9797,1688.1281 3711.9141,1688.2313 C 3711.8452,1688.332 3711.9863,1688.8687 3711.9141,1688.9648 C 3711.7634,1689.1523 3711.3448,1689.5227 3711.1816,1689.6961 C 3710.9278,1689.9469 3709.9966,1690.2094 3709.7168,1690.4297 C 3709.5246,1690.5703 3709.1876,1691.0344 3708.9844,1691.1609 C 3700.0228,1696.3969 3681.4678,1690.0125 3670.166,1678.7109 C 3663.6089,1672.1531 3640.762,1662.2461 3627.6855,1665.5273 C 3627.5409,1665.5672 3627.0952,1665.4828 3626.9531,1665.5273 C 3626.3951,1665.7172 3625.2703,1666.0102 3624.7559,1666.2586 C 3624.3788,1666.4578 3623.6407,1666.7578 3623.291,1666.9922 C 3623.1776,1667.0742 3622.6688,1667.6391 3622.5586,1667.7234 C 3622.4552,1667.8195 3621.926,1668.3586 3621.8262,1668.457 C 3621.7298,1668.5602 3621.1863,1669.0828 3621.0938,1669.1883 C 3620.8268,1669.5234 3620.5936,1670.2805 3620.3613,1670.6531 C 3620.288,1670.7844 3619.6983,1671.2531 3619.6289,1671.3867 C 3619.5635,1671.525 3619.6901,1671.975 3619.6289,1672.118 C 3619.5152,1672.4156 3618.9926,1673.2687 3618.8965,1673.5828 C 3618.6349,1674.5602 3618.255,1676.0883 3618.1641,1677.2461 C 3618.1437,1677.6422 3618.1641,1678.2938 3618.1641,1678.7109 C 3618.1641,1681.3336 3610.2373,1739.6156 3609.375,1743.1641 C 3598.2574,1740.3844 3575.7628,1726.3172 3549.3164,1726.3172 C 3549.198,1726.3172 3548.7035,1726.3125 3548.584,1726.3172 C 3548.4633,1726.3289 3547.9732,1726.3008 3547.8516,1726.3172 C 3547.7288,1726.3406 3547.2429,1726.2891 3547.1191,1726.3172 C 3546.9945,1726.3523 3546.5123,1727.0109 3546.3867,1727.0508 C 3546.2602,1727.0953 3545.7818,1726.9992 3545.6543,1727.0508 C 3533.5866,1732.2445 3517.3209,1760.1023 3509.7656,1770.2625 C 3509.3063,1770.8648 3508.6877,1772.018 3508.3008,1772.4609 C 3508.1803,1772.5898 3507.6799,1773.0844 3507.5684,1773.1922 C 3507.363,1773.368 3507.004,1773.8367 3506.8359,1773.9258 C 3506.7616,1773.9469 3506.168,1773.9281 3506.1035,1773.9258 C 3503.0041,1772.3766 3460.882,1748.4516 3443.8477,1748.2898 C 3443.5324,1748.2969 3442.6793,1748.2688 3442.3828,1748.2898 C 3442.2396,1748.3062 3441.7887,1748.2711 3441.6504,1748.2898 C 3441.5173,1748.3156 3441.0459,1748.993 3440.918,1749.0234 C 3440.7954,1749.0586 3440.3027,1748.9836 3440.1855,1749.0234 C 3440.074,1749.068 3439.5591,1748.9742 3439.4531,1749.0234 C 3439.353,1749.0773 3438.8149,1749.6961 3438.7207,1749.7547 C 3438.5564,1749.8977 3438.1275,1750.3242 3437.9883,1750.4883 C 3437.9252,1750.575 3437.3123,1751.1281 3437.2559,1751.2195 C 3437.2127,1751.325 3437.2922,1751.843 3437.2559,1751.9531 C 3433.7843,1765.8398 3428.3077,1791.4078 3424.0723,1808.3484 C 3423.4549,1810.8187 3422.6508,1813.125 3421.875,1814.9414 C 3421.7168,1815.293 3421.3069,1816.0805 3421.1426,1816.4063 C 3420.9755,1816.7203 3420.5831,1817.5805 3420.4102,1817.8711 C 3419.9702,1818.5695 3419.4206,1819.5094 3418.9453,1820.0672 C 3418.849,1820.175 3418.3106,1820.7 3418.2129,1820.8008 C 3418.0146,1820.993 3417.6841,1821.3609 3417.4805,1821.532 C 3417.1711,1821.7758 3416.3367,1822.0688 3416.0156,1822.2656 C 3415.6908,1822.4484 3414.8869,1822.8563 3414.5508,1822.9969 C 3414.2074,1823.1117 3413.4401,1823.6555 3413.0859,1823.7305 C 3412.9666,1823.7516 3412.474,1823.7141 3412.3535,1823.7305 C 3412.2321,1823.7422 3411.7437,1823.7211 3411.6211,1823.7305 C 3401.3482,1824.15 3386.6494,1811.2453 3372.0703,1803.9539 C 3357.5564,1796.6977 3348.4873,1793.0297 3342.7734,1792.2352 C 3342.4294,1792.1977 3341.6276,1792.2563 3341.3086,1792.2352 C 3341.1551,1792.2305 3340.7236,1792.2352 3340.5762,1792.2352 C 3340.2928,1792.2469 3339.3722,1792.207 3339.1113,1792.2352 C 3338.9864,1792.2539 3338.4987,1792.2117 3338.3789,1792.2352 C 3338.1499,1792.2914 3337.8555,1792.8961 3337.6465,1792.9688 C 3337.5466,1793.0086 3337.0092,1792.9242 3336.9141,1792.9688 C 3336.7329,1793.0672 3336.3455,1793.5875 3336.1816,1793.7 C 3336.1038,1793.7609 3335.5228,1793.6367 3335.4492,1793.7 C 3335.3794,1793.7703 3335.5153,1794.3609 3335.4492,1794.4336 C 3335.3243,1794.5836 3334.8279,1795.0008 3334.7168,1795.1648 C 3331.913,1800.2461 3333.6827,1810.9523 3328.8574,1820.0672 C 3328.6793,1820.3859 3328.3212,1821.218 3328.125,1821.532 C 3327.6105,1822.3148 3326.5704,1823.7117 3325.9277,1824.4617 C 3325.7937,1824.6117 3325.335,1825.0477 3325.1953,1825.1953 C 3317.4113,1832.9789 3301.065,1861.9547 3295.8984,1867.6758 C 3295.7306,1867.8469 3295.3059,1868.2969 3295.166,1868.407 C 3295.1184,1868.4141 3294.4732,1868.4187 3294.4336,1868.407 C 3275.2973,1863.1359 3251.1138,1834.4977 3235.1074,1828.8563 C 3234.7669,1828.7461 3233.9759,1828.2117 3233.6426,1828.125 C 3233.313,1828.0477 3232.4995,1828.1766 3232.1777,1828.125 C 3231.8597,1828.0852 3231.0227,1827.4078 3230.7129,1827.3914 C 3230.407,1827.3891 3229.5455,1828.1016 3229.248,1828.125 C 3229.1016,1828.1437 3228.66,1828.0992 3228.5156,1828.125 C 3228.3736,1828.1578 3227.9231,1828.0852 3227.7832,1828.125 C 3227.508,1828.2187 3226.5844,1828.732 3226.3184,1828.8563 C 3226.1878,1828.9266 3225.7141,1828.7789 3225.5859,1828.8563 C 3225.4601,1828.943 3224.9768,1829.4961 3224.8535,1829.5898 C 3224.7326,1829.6906 3224.2395,1830.2133 3224.1211,1830.3211 C 3224.0053,1830.4406 3223.5019,1830.9281 3223.3887,1831.0547 C 3223.278,1831.1883 3222.7643,1831.643 3222.6563,1831.7859 C 3222.4455,1832.0906 3222.1238,1832.9109 3221.9238,1833.2508 C 3221.8266,1833.4312 3221.2859,1833.7945 3221.1914,1833.9844 C 3215.1298,1846.1063 3206.2875,1862.8898 3195.5566,1877.1961 C 3190.7334,1883.6273 3183.5873,1891.1109 3175.7813,1894.043 C 3171.8782,1895.5078 3167.8945,1895.5148 3164.0625,1894.043 C 3160.2305,1892.5711 3156.2925,1889.5734 3153.0762,1883.7891 C 3153.1866,1883.6156 3152.9662,1883.2313 3153.0762,1883.0555 C 3154.1559,1881.3398 3154.234,1878.2508 3155.2734,1876.4648 z "
         id="path6100" />
      <path
         sodipodi:nodetypes="ccc"
         id="path2773"
         d="M 2996.0166,2604.7641 C 2904.3722,2683.0523 2808.8625,2757.4781 2706.5534,2825.1047 C 2906.5976,2778.6164 2976.0347,2701.3969 3063.6321,2628.4523"
         style="fill:#ffffff;fill-opacity:1;fill-rule:evenodd;stroke:#000000;stroke-width:23.4375px;stroke-linecap:butt;stroke-linejoin:miter;stroke-opacity:1" />
      <path
         sodipodi:nodetypes="ccccc"
         id="path2775"
         d="M 2961.1816,2649.1688 C 2942.8073,2664.1664 2924.8059,2679.5451 2906.0503,2694.1795 L 2924.8935,2724.7426 C 2945.6205,2711.5661 2966.8607,2696.378 2981.2233,2682.9279 L 2961.1816,2649.1688 z "
         style="fill:#c7691b;fill-opacity:1;fill-rule:evenodd;stroke:none;stroke-width:3;stroke-linecap:butt;stroke-linejoin:miter;stroke-miterlimit:4;stroke-dasharray:none;stroke-opacity:1" />
      <path
         style="fill:#f3ecde;fill-opacity:1;fill-rule:evenodd;stroke:#000000;stroke-width:23.4375px;stroke-linecap:butt;stroke-linejoin:miter;stroke-opacity:1"
         d="M 3697.998,2478.5156 C 3677.5552,2568.7031 3642.334,2735.3039 3642.334,2817.6258 C 3642.334,2925.7734 3692.8711,2986.4508 3692.8711,3220.4578 C 3692.8711,3332.1516 3697.1789,3484.95 3635.7422,3546.3867 C 3601.7873,3580.3406 3588.2625,3643.282 3595.459,3667.2352 L 3927.9785,3667.2352 C 3927.9785,3558.3562 3910.2487,3575.6391 3898.6816,3532.4695 C 3861.7723,3394.7227 3887.655,3101.3883 3927.2461,2910.6445 C 3831.4397,2783.5219 3754.8741,2630.7117 3697.998,2478.5156 z "
         id="path6102" />
      <path
         id="path2617"
         d="M 3378.6621,2260.2539 C 3371.3759,2260.9992 3364.5952,2263.6406 3358.8867,2269.043 C 3347.4171,2280.443 3339.8438,2305.9969 3339.8438,2362.0594 C 3339.8438,2380.9875 3339.4397,2403.7547 3329.5898,2423.5828 C 3365.8355,2376.6 3402.5749,2329.0336 3438.7207,2281.493 L 3437.9883,2274.9023 C 3426.0609,2265.8602 3413.9273,2260.2539 3400.6348,2260.2539 C 3393.079,2260.2539 3385.493,2259.5555 3378.6621,2260.2539 z M 3329.5898,2423.5828 C 3329.3112,2424.1453 3329.1518,2424.4922 3328.8574,2425.0477 C 3329.19,2424.6187 3329.2573,2424.0141 3329.5898,2423.5828 z M 3312.7441,2445.5555 C 3293.4462,2462.6414 3260.5048,2474.1211 3203.6133,2474.1211 C 3191.153,2474.1211 3178.7684,2475.218 3166.9922,2477.0508 C 3146.8978,2502.7922 3126.8116,2527.8047 3106.9336,2552.4891 C 3106.9298,2552.5523 3106.9484,2553.1523 3106.9336,2553.2227 C 3103.6753,2557.268 3100.6692,2560.9383 3097.4121,2564.9414 C 3096.6518,2565.8789 3095.9747,2566.9359 3095.2148,2567.8711 C 3094.3005,2568.9914 3093.1992,2570.4141 3092.2852,2571.532 C 3091.3727,2572.6547 3090.2672,2573.3438 3089.3555,2574.4617 C 3088.5921,2575.3945 3087.9213,2576.4633 3087.1582,2577.3914 C 3085.6416,2579.25 3084.2784,2581.4039 3082.7637,2583.2508 C 3077.8868,2589.1594 3072.9762,2595.0164 3068.1152,2600.8289 C 3067.4353,2601.6492 3066.5977,2602.2094 3065.918,2603.0273 C 3064.9434,2604.1898 3063.9619,2605.5305 3062.9883,2606.6883 C 3062.0229,2607.8484 3061.023,2609.1961 3060.0586,2610.3516 C 3058.9622,2611.6547 3057.4915,2612.7164 3056.3965,2614.0125 C 3053.6719,2617.268 3051.0579,2620.3125 3048.3398,2623.5352 C 3045.1209,2627.325 3042.0232,2631.5039 3038.8184,2635.2539 C 3038.25,2635.9219 3037.9216,2636.7844 3037.3535,2637.45 C 3034.7285,2640.518 3031.9109,2643.2016 3029.2969,2646.2391 C 2912.7565,2781.7008 2803.519,2884.2023 2710.6934,2904.0516 C 2937.1071,2893.6055 3127.2579,2684.0273 3312.7441,2445.5555 z "
         style="fill:#ffffff;fill-opacity:1;fill-rule:evenodd;stroke:#000000;stroke-width:23.4375;stroke-linecap:butt;stroke-linejoin:miter;stroke-miterlimit:4;stroke-dasharray:none;stroke-opacity:1" />
      <path
         id="path6064"
         d="M 3737.5488,2602.2938 L 3795.4102,3043.2117 L 3755.8594,3299.5594 L 3792.4805,3482.6648 L 3876.709,3478.2703 C 3856.073,3325.4063 3880.1182,3081.8719 3914.7949,2912.8406 C 3844.8605,2819.1516 3786.2039,2712.4617 3737.5488,2602.2938 z "
         style="fill:#dbb495;fill-opacity:1;fill-rule:evenodd;stroke:none;stroke-width:1px;stroke-linecap:butt;stroke-linejoin:miter;stroke-opacity:1" />
      <path
         style="fill:#f3ecde;fill-opacity:1;fill-rule:evenodd;stroke:#000000;stroke-width:23.4375px;stroke-linecap:butt;stroke-linejoin:miter;stroke-opacity:1"
         d="M 4719.7266,2796.3867 C 4698.1303,3192.9305 4790.7715,3222.3375 4790.7715,3377.9297 C 4790.7712,3567.0352 4708.7196,3497.318 4721.9238,3667.2352 L 5049.3164,3667.2352 C 5049.3164,3565.118 4982.6709,3538.9477 4980.4688,3196.2891 C 4979.4748,3041.6367 5006.9243,2923.2656 5052.2461,2824.2188 C 4906.6877,2821.6852 4817.5807,2812.0898 4719.7266,2796.3867 z "
         id="path6104" />
      <path
         id="path5984"
         d="M 4945.3125,1571.0438 L 4955.5664,1683.1055 C 5182.7897,1734.0492 5239.4344,1895.3133 5303.4668,1976.0742 L 5425.0488,1919.6766 C 5412.9731,1900.5445 5399.978,1881.5859 5386.2305,1863.2813 C 5290.6692,1736.0414 5153.1026,1629.4781 4945.3125,1571.0438 z "
         style="fill:#dbb495;fill-opacity:1;fill-rule:evenodd;stroke:none;stroke-width:1px;stroke-linecap:butt;stroke-linejoin:miter;stroke-opacity:1" />
      <path
         id="path5942"
         d="M 3553.7109,1780.5164 C 3553.0823,1780.6805 3552.0736,1781.1234 3551.5137,1781.25 C 3551.4499,1781.25 3550.8509,1781.2523 3550.7813,1781.25 C 3520.1365,1783.582 3476.0742,1797.6047 3476.0742,1859.618 C 3476.0742,2003.6414 3615.6387,2223.1219 3459.9609,2277.832 C 3467.217,2284.5328 3474.1369,2292.1289 3481.2012,2299.0711 C 3504.9963,2322.4617 3528.3823,2343.0164 3557.373,2343.0164 C 3581.4302,2343.0164 3622.8117,2335.173 3636.5041,2330.2487 C 3637.1039,2330.0331 3637.3887,2329.0019 3637.969,2328.7839 C 3638.0376,2328.7019 3638.6325,2328.8683 3638.7014,2328.7839 C 3640.564,2326.562 3642.2473,2324.0987 3644.5608,2322.1933 C 3644.6801,2322.0691 3645.1725,2321.5839 3645.2932,2321.4597 C 3669.2025,2300.5651 3681.6897,2287.3324 3692.1387,2264.6484 C 3692.1485,2264.407 3692.1291,2264.1586 3692.1387,2263.9148 C 3693.48,2229.9258 3691.6732,2188.6523 3687.0117,2140.1367 L 3670.166,2084.4727 L 3666.5039,2084.4727 L 3644.5313,2084.4727 L 3638.6719,2084.4727 L 3635.0098,2080.0781 C 3562.8982,1992.3984 3535.0184,1913.9766 3539.7949,1854.4922 C 3542.1832,1824.75 3552.798,1799.2125 3571.2891,1781.9813 C 3571.2905,1781.8992 3571.2895,1781.318 3571.2891,1781.25 C 3567.9173,1780.95 3563.588,1780.4273 3558.8379,1780.5164 C 3558.6813,1780.5211 3558.2566,1780.5187 3558.1055,1780.5164 C 3557.5137,1780.4953 3556.5265,1780.507 3555.9082,1780.5164 C 3555.8374,1780.5164 3555.2398,1780.5164 3555.1758,1780.5164 C 3555.1059,1780.5141 3554.5071,1780.5164 3554.4434,1780.5164 C 3554.3316,1780.5445 3553.8366,1780.4836 3553.7109,1780.5164 z "
         style="fill:#dbb495;fill-opacity:1;fill-rule:evenodd;stroke:none;stroke-width:1px;stroke-linecap:butt;stroke-linejoin:miter;stroke-opacity:1"
         sodipodi:nodetypes="cscsccsscscccsccccccsccsssssc" />
      <path
         sodipodi:nodetypes="cscccsssssccc"
         id="path5922"
         d="M 4967.2852,2460.9375 C 4766.8575,2499.7031 4564.0484,2427.2859 4360.8398,2475.5859 C 4195.3005,2514.9328 4059.9513,2669.5969 4098.6328,2917.2352 L 4134.5215,3460.6922 L 4267.0898,3458.4961 C 4264.324,3428.6133 4262.6953,3397.5164 4262.6953,3364.7461 C 4262.6953,3031.6031 4218.75,2948.2266 4218.75,2873.2898 C 4218.75,2828.5922 4233.3166,2795.2219 4258.3008,2773.6805 C 4283.2849,2752.1414 4317.4378,2742.5977 4355.7129,2739.2578 C 4432.263,2732.5758 4527.7936,2751.2836 4613.5254,2766.3563 C 4782.2395,2796.0188 4877.3972,2812.9055 5125.4883,2813.2313 C 5069.067,2725.5141 4995.2859,2641.043 5003.9063,2541.5039 L 4967.2852,2460.9375 z "
         style="fill:#dbb495;fill-opacity:1;fill-rule:nonzero;stroke:none;stroke-width:1;stroke-linecap:butt;stroke-linejoin:miter;stroke-miterlimit:4;stroke-opacity:1" />
      <path
         id="rect2911"
         d="M 4519.7754,1510.9852 C 4382.2791,1513.6406 4288.8598,1535.1563 4204.834,1535.1563 C 4171.6901,1535.1563 4132.7419,1529.5172 4091.3086,1524.1688 L 4091.3086,2334.9609 L 4986.3281,2358.3984 L 4986.3281,1571.7773 C 4866.2513,1533.0844 4721.9433,1510.9852 4547.6074,1510.9852 C 4538.0365,1510.9852 4528.9418,1510.8094 4519.7754,1510.9852 z "
         style="fill:#fbeb86;fill-opacity:1;fill-rule:nonzero;stroke:#000000;stroke-width:23.4375;stroke-linecap:round;stroke-linejoin:miter;stroke-miterlimit:4;stroke-dasharray:none;stroke-dashoffset:0.99999998;stroke-opacity:1" />
      <path
         id="rect2913"
         d="M 4519.7754,1510.9852 C 4382.2791,1513.6406 4288.8598,1535.1563 4204.834,1535.1563 C 4198.5839,1535.1563 4192.4215,1534.7672 4185.791,1534.4227 L 4185.791,2247.0703 L 4878.6621,2258.7891 L 4878.6621,1543.2117 C 4782.3771,1522.5 4672.6256,1510.9852 4547.6074,1510.9852 C 4538.0365,1510.9852 4528.9418,1510.8094 4519.7754,1510.9852 z "
         style="fill:#169253;fill-opacity:1;fill-rule:nonzero;stroke:#ea7c20;stroke-width:23.4375;stroke-linecap:round;stroke-linejoin:miter;stroke-miterlimit:4;stroke-dasharray:none;stroke-dashoffset:0.99999998;stroke-opacity:1" />
      <path
         id="path6078"
         d="M 5261.7188,2091.7969 L 5221.4355,2112.3047 C 5298.5426,2563.3758 5366.6566,2471.0508 5465.332,2732.6648 C 5536.4437,2921.2008 5526.192,3163.0453 5633.0566,3429.9305 L 5755.3711,3429.9305 C 5751.7985,3412.4414 5748.9689,3394.9875 5745.1172,3376.4648 C 5734.7051,3326.3953 5717.7722,3264.9609 5661.6211,3156.7383 C 5582.9937,3005.1937 5570.6714,2923.3242 5572.2656,2846.1914 C 5573.8099,2771.468 5587.0584,2702.8805 5564.209,2574.4617 C 5564.1635,2574.2086 5564.2547,2573.9859 5564.209,2573.7305 L 5261.7188,2091.7969 z "
         style="fill:#dbb495;fill-opacity:1;fill-rule:evenodd;stroke:none;stroke-width:1px;stroke-linecap:butt;stroke-linejoin:miter;stroke-opacity:1" />
      <path
         id="path2886"
         d="M 5509.2773,3322.9969 L 5507.8125,3344.2383 C 5533.1726,3437.0414 5524.5246,3504.7758 5511.4746,3528.075 L 5800.7813,3528.075 C 5800.0964,3526.6523 5799.2974,3525.2156 5798.584,3523.6805 C 5764.6305,3450.6469 5766.3323,3409.6641 5748.0469,3339.8438 L 5696.7773,3363.2813 L 5649.1699,3332.5195 L 5577.3926,3373.5352 L 5509.2773,3322.9969 z "
         style="fill:#000000;fill-opacity:1;fill-rule:evenodd;stroke:#000000;stroke-width:23.4375px;stroke-linecap:butt;stroke-linejoin:miter;stroke-opacity:1" />
      <path
         id="path5912"
         d="M 4731.4453,2809.5703 C 4729.2902,2854.3617 4728.7959,2894.4352 4729.248,2930.4188 C 4893.0394,2973.1313 4860.3516,3282.7875 4860.3516,3436.5234 L 4987.0605,3440.918 C 4977.4312,3382.6898 4969.4501,3305.2242 4968.75,3196.2891 C 4967.7949,3047.707 4993.9896,2932.8398 5036.1328,2835.2039 C 4907.592,2832.3305 4820.2591,2823.3984 4731.4453,2809.5703 z "
         style="fill:#dbb495;fill-opacity:1;fill-rule:evenodd;stroke:none;stroke-width:1px;stroke-linecap:butt;stroke-linejoin:miter;stroke-opacity:1" />
      <path
         id="path2860"
         d="M 4886.7188,3362.5477 L 4841.3086,3416.7469 L 4814.9414,3382.3242 L 4790.7715,3400.6336 C 4787.002,3496.8516 4758.1669,3514.725 4738.7695,3548.5828 L 5023.6816,3548.5828 C 5012.277,3511.1109 4999.3437,3462.8672 4990.7227,3387.45 L 4976.8066,3376.4648 L 4928.4668,3413.0859 L 4886.7188,3362.5477 z "
         style="fill:#000000;fill-opacity:1;fill-rule:evenodd;stroke:#000000;stroke-width:23.4375px;stroke-linecap:butt;stroke-linejoin:miter;stroke-opacity:1" />
      <path
         id="path2829"
         d="M 4274.4141,3347.168 L 4215.0879,3413.0859 L 4155.0293,3362.5477 L 4102.2949,3407.2266 L 4045.8984,3354.4922 C 4045.8984,3354.4922 4036.1109,3369.4148 4032.7148,3374.2664 L 4030.5176,3385.9852 C 4030.1602,3443.3695 4025.9843,3493.2914 4019.5313,3525.8789 L 4287.5977,3525.8789 C 4281.4066,3475.2492 4274.4143,3422.3602 4274.4141,3364.7461 C 4274.4141,3358.8117 4274.4412,3352.9477 4274.4141,3347.168 z "
         style="fill:#000000;fill-opacity:1;fill-rule:evenodd;stroke:#000000;stroke-width:23.4375px;stroke-linecap:butt;stroke-linejoin:miter;stroke-opacity:1" />
      <path
         sodipodi:nodetypes="ccccccccc"
         id="path2816"
         d="M 3776.0688,3366.5086 L 3734.6191,3398.4375 L 3696.4519,3367.3219 C 3696.0902,3367.5984 3675.0398,3494.1539 3651.8555,3530.8688 C 3733.6425,3530.8688 3815.4298,3530.8688 3897.2168,3530.8688 C 3887.3845,3490.7789 3882.2152,3434.0555 3881.1035,3375.7313 C 3874.6755,3372.7898 3862.0847,3369.4148 3852.6204,3369.6562 L 3816.6504,3398.4375 L 3776.0688,3366.5086 z "
         style="fill:#000000;fill-opacity:1;fill-rule:evenodd;stroke:none;stroke-width:1px;stroke-linecap:butt;stroke-linejoin:miter;stroke-opacity:1" />
      <path
         id="path2644"
         d="M 3400.6348,1435.5469 C 3363.4999,1450.7555 3325.1484,1468.0641 3299.9719,1500.6937 C 3256.1018,1544.3625 3232.7016,1603.2961 3219.2264,1662.682 C 3201.6335,1735.0406 3190.523,1810.2234 3155.7698,1877.0367 C 3156.8588,1912.1156 3206.9016,1881.382 3208.3966,1858.5211 C 3213.4252,1829.1445 3241.9739,1820.5148 3260.3834,1845.8039 C 3275.8781,1867.3078 3304.3814,1873.7742 3312.7812,1843.0078 C 3329.9494,1829.2664 3325.5619,1795.3687 3347.0421,1792.0875 C 3372.5503,1794.6891 3397.2021,1836.7336 3420.9211,1815.9563 C 3435.7249,1796.6297 3421.7084,1744.6758 3454.5844,1750.0875 C 3477.1805,1752.8461 3507.2447,1789.9266 3521.2008,1755.1945 C 3529.0969,1726.6406 3561.7732,1719.0094 3585.2517,1733.9578 C 3620.64,1758.1687 3613.5865,1700.693 3617.5826,1680.0797 C 3627.3998,1647.4172 3667.9043,1675.0008 3684.1491,1689.1172 C 3707.0161,1703.1984 3721.0612,1680.757 3709.4918,1661.0953 C 3703.5848,1625.8969 3740.3055,1631.5359 3762.0314,1630.5797 C 3776.1638,1619.7023 3770.8692,1585.7531 3764.7715,1577.0156 C 3751.2837,1578.5742 3741.3776,1542.0656 3724.9629,1531.4414 C 3687.6307,1492.5984 3641.756,1461.9984 3590.6234,1444.5703 C 3553.2555,1429.0312 3511.7988,1424.7211 3471.6541,1424.5664 C 3447.8055,1426.8937 3423.9659,1429.9687 3400.6348,1435.5469 z "
         style="fill:#d0071c;fill-opacity:1;fill-rule:nonzero;stroke:#000000;stroke-width:23.4375;stroke-linecap:butt;stroke-linejoin:miter;stroke-miterlimit:4;stroke-opacity:1" />
      <path
         id="path2730"
         d="M 3684.082,1493.407 L 3677.4902,1524.1688 L 3588.1348,1541.0156 L 3559.5703,1610.5945 L 3450.4395,1624.5117 L 3392.5781,1708.0078 L 3294.4336,1674.3164 L 3250.4883,1722.6563 L 3205.8105,1724.1211 C 3199.3097,1753.6453 3192.1212,1783.2539 3183.8379,1810.5469 C 3379.8546,1790.1937 3565.1763,1704.9375 3739.0137,1548.3398 C 3723.7772,1528.2633 3705.3403,1509.7031 3684.082,1493.407 z "
         style="fill:#ea7c20;fill-opacity:1;fill-rule:evenodd;stroke:#000000;stroke-width:23.4375px;stroke-linecap:butt;stroke-linejoin:miter;stroke-opacity:1" />
      <g
         transform="scale(23.4375,23.4375)"
         id="g6113">
        <path
           style="fill:url(#linearGradient6962);fill-opacity:1;fill-rule:evenodd;stroke:#000000;stroke-width:1px;stroke-linecap:butt;stroke-linejoin:miter;stroke-opacity:1"
           d="M 259.19529,156.46875 C 262.89618,156.61352 263.41399,159.00953 261.41404,164.03125 L 137.13279,164.03125 C 135.06833,158.84754 135.66097,156.46875 139.69529,156.46875 L 258.82029,156.46875 C 258.94636,156.46875 259.07591,156.46408 259.19529,156.46875 z M 257.07029,159.46875 C 257.01369,159.46304 256.94095,159.46875 256.88279,159.46875 L 207.00779,159.46875 C 206.07724,159.46875 205.32029,160.2257 205.32029,161.15625 C 205.32029,162.08681 206.07724,162.84375 207.00779,162.84375 L 256.88279,162.84375 C 257.81333,162.84375 258.57029,162.0868 258.57029,161.15625 C 258.57029,160.28387 257.91934,159.55446 257.07029,159.46875 z M 191.69529,159.46875 C 191.63869,159.46304 191.56595,159.46875 191.50779,159.46875 L 141.63279,159.46875 C 140.70224,159.46875 139.94529,160.22571 139.94529,161.15625 C 139.94529,162.0868 140.70225,162.84375 141.63279,162.84375 L 191.50779,162.84375 C 192.43834,162.84375 193.19529,162.08681 193.19529,161.15625 C 193.19529,160.28386 192.54435,159.55446 191.69529,159.46875 z "
           id="path1640" />
        <path
           style="fill:#fbeb86;fill-opacity:1;fill-rule:evenodd;stroke:#000000;stroke-width:0.5;stroke-linecap:butt;stroke-linejoin:miter;stroke-miterlimit:4;stroke-dasharray:none;stroke-opacity:1"
           d="M 259.125,157.90625 C 256.70977,159.02234 261.24275,160.71248 258.84375,162.09375 C 257.09194,162.81179 259.22339,165.21515 260.28125,163.5 C 262.50062,161.92481 261.49747,158.773 259.46875,157.53125 L 259.13089,157.89983 L 259.125,157.90625 z "
           id="path2573" />
        <path
           style="fill:#fbeb86;fill-opacity:1;fill-rule:evenodd;stroke:#000000;stroke-width:0.5;stroke-linecap:butt;stroke-linejoin:miter;stroke-miterlimit:4;stroke-dasharray:none;stroke-opacity:1"
           d="M 194.9375,157.90625 C 192.52227,159.02234 197.05525,160.71248 194.65625,162.09375 C 192.90138,162.82182 195.0443,165.20863 196.09375,163.5 C 198.31312,161.92481 197.30997,158.773 195.28125,157.53125 L 194.94339,157.89983 L 194.9375,157.90625 z "
           id="path2565" />
        <path
           style="fill:#fbeb86;fill-opacity:1;fill-rule:evenodd;stroke:#000000;stroke-width:0.5;stroke-linecap:butt;stroke-linejoin:miter;stroke-miterlimit:4;stroke-dasharray:none;stroke-opacity:1"
           d="M 138.6875,157.875 C 136.09504,159.47815 136.66704,163.59667 139.6875,164.3125 C 141.58225,162.53476 138.9973,162.38027 139,160.75 C 139.68,159.43329 140.99343,158.6949 139.0625,157.53125 L 138.69392,157.86911 L 138.6875,157.875 z "
           id="path2569" />
        <path
           style="fill:#fbeb86;fill-opacity:1;fill-rule:evenodd;stroke:#000000;stroke-width:0.5;stroke-linecap:butt;stroke-linejoin:miter;stroke-miterlimit:4;stroke-dasharray:none;stroke-opacity:1"
           d="M 202.875,157.875 C 200.28254,159.47815 200.85454,163.59667 203.875,164.3125 C 205.76975,162.53476 203.1848,162.38027 203.1875,160.75 C 203.56706,159.56295 205.37995,158.97573 203.59375,157.90625 C 203.38148,157.26754 203.12846,157.56619 202.875,157.875 z "
           id="path2571" />
        <path
           style="fill:url(#linearGradient6964);fill-opacity:1;fill-rule:evenodd;stroke:#000000;stroke-width:1px;stroke-linecap:butt;stroke-linejoin:miter;stroke-opacity:1"
           d="M 261.41809,164.0419 L 137.13735,164.0419 C 134.03053,164.97805 133.64996,167.27732 132.93621,169.41001 L 265.61923,169.41001 C 264.90548,167.27732 264.52491,164.97805 261.41809,164.0419 z "
           id="path1659"
           sodipodi:nodetypes="ccccc" />
        <path
           style="fill:#fbeb86;fill-opacity:1;fill-rule:evenodd;stroke:#000000;stroke-width:1px;stroke-linecap:butt;stroke-linejoin:miter;stroke-opacity:1"
           d="M 163.7785,164.03735 L 166.32124,164.03735 L 165.04987,159.32856 L 163.7785,164.03735 z "
           id="path1663"
           sodipodi:nodetypes="cccc" />
        <path
           sodipodi:nodetypes="cccc"
           id="path1665"
           d="M 234.77694,164.03735 L 232.2342,164.03735 L 233.50557,159.32856 L 234.77694,164.03735 z "
           style="fill:#fbeb86;fill-opacity:1;fill-rule:evenodd;stroke:#000000;stroke-width:1px;stroke-linecap:butt;stroke-linejoin:miter;stroke-opacity:1" />
        <path
           sodipodi:nodetypes="cccc"
           id="path2548"
           d="M 197.99815,164.03735 L 200.54089,164.03735 L 199.26952,160.82856 L 197.99815,164.03735 z "
           style="fill:#fbeb86;fill-opacity:1;fill-rule:evenodd;stroke:#000000;stroke-width:1px;stroke-linecap:butt;stroke-linejoin:miter;stroke-opacity:1" />
      </g>
      <path
         id="path5897"
         d="M 2953.125,2302.0008 C 2952.9412,2302.5234 2952.5726,2302.9453 2952.3926,2303.4656 C 2952.214,2303.9836 2951.8352,2304.4148 2951.6602,2304.9305 C 2951.4938,2305.4227 2951.0909,2305.9031 2950.9277,2306.3953 C 2950.282,2308.3359 2950.0584,2310.3141 2949.4629,2312.2547 C 2949.2534,2312.9461 2948.9334,2313.7617 2948.7305,2314.4531 C 2946.6375,2321.4984 2945.0569,2328.6234 2943.6035,2335.6922 C 2943.1355,2337.9703 2942.5423,2340.007 2942.1387,2342.2852 C 2941.9669,2343.2766 2941.5659,2344.2234 2941.4063,2345.2148 C 2941.373,2345.4141 2941.4391,2345.7469 2941.4063,2345.9461 C 2940.9755,2348.6742 2941.0148,2351.2734 2940.6738,2354.0039 C 2940.6401,2354.2641 2940.7066,2354.475 2940.6738,2354.7352 C 2940.581,2355.4945 2940.0274,2356.1742 2939.9414,2356.9336 C 2939.8938,2357.3344 2939.9869,2357.9977 2939.9414,2358.3984 C 2939.8882,2358.8953 2939.9918,2359.3664 2939.9414,2359.8633 C 2939.8854,2360.3836 2939.9941,2360.8055 2939.9414,2361.3281 C 2939.8908,2361.8531 2939.2563,2362.2656 2939.209,2362.793 C 2939.1623,2363.2828 2939.2526,2363.7656 2939.209,2364.2578 C 2939.167,2364.7547 2939.2481,2365.2258 2939.209,2365.7227 C 2939.1656,2366.2453 2939.2491,2366.6648 2939.209,2367.1875 C 2939.1727,2367.6844 2939.2425,2368.1531 2939.209,2368.6523 C 2939.0888,2370.3234 2938.5647,2372.107 2938.4766,2373.7781 C 2938.4646,2374.0289 2938.4878,2374.2633 2938.4766,2374.5117 C 2938.4377,2375.2945 2938.5084,2375.925 2938.4766,2376.7078 C 2938.4674,2376.9586 2938.485,2377.193 2938.4766,2377.4414 C 2938.4445,2378.2781 2938.5007,2379.5344 2938.4766,2380.3711 C 2938.4714,2380.5703 2938.4813,2380.9031 2938.4766,2381.1023 C 2938.4562,2381.8875 2938.4902,2382.5156 2938.4766,2383.3008 C 2938.4576,2384.5477 2938.4791,2385.7148 2938.4766,2386.9617 C 2938.4745,2387.7492 2938.4719,2388.3727 2938.4766,2389.1602 C 2938.4836,2390.4094 2938.4534,2391.5719 2938.4766,2392.8211 C 2938.4948,2393.8711 2938.4463,2394.7008 2938.4766,2395.7508 C 2938.6875,2403.1031 2939.1403,2410.3453 2939.9414,2417.7234 C 2940.0558,2418.7781 2940.5477,2419.5984 2940.6738,2420.6531 C 2940.7999,2421.7078 2940.536,2423.2617 2940.6738,2424.3164 C 2940.8116,2425.3711 2941.2567,2426.1891 2941.4063,2427.2461 C 2941.5558,2428.3008 2941.2452,2429.1187 2941.4063,2430.1758 C 2941.5673,2431.2328 2941.9662,2432.7797 2942.1387,2433.8367 C 2944.0357,2445.4617 2946.9647,2457.3258 2950.1953,2468.993 C 2951.37,2473.2375 2952.5152,2477.1984 2953.8574,2481.4453 C 2957.8845,2494.1883 2962.3223,2506.7672 2967.7734,2519.5313 C 2970.0448,2524.8492 2972.5948,2530.3242 2975.0977,2535.6445 C 2983.6078,2553.7313 2993.4384,2571.7922 3004.3945,2589.8438 C 3005.0391,2590.9055 3005.9395,2591.7117 3006.5918,2592.7734 C 3007.2441,2593.8352 3007.3966,2595.375 3008.0566,2596.4344 C 3008.7166,2597.4961 3009.5862,2598.3047 3010.2539,2599.3641 C 3010.4269,2599.6406 3010.8103,2599.7906 3010.9863,2600.0977 C 3011.1277,2600.318 3010.8431,2600.6063 3010.9863,2600.8289 C 3011.2526,2601.3141 3011.4457,2601.743 3011.7188,2602.2938 C 3011.8591,2602.5094 3012.3089,2602.8117 3012.4512,2603.0273 C 3012.5248,2603.1797 3012.3773,2603.6016 3012.4512,2603.7586 C 3012.6755,2604.0984 3012.9555,2604.1523 3013.1836,2604.4922 C 3018.1268,2611.8727 3024.2773,2619.5953 3030.0293,2627.1961 C 3045.762,2608.7953 3062.3147,2590.1414 3078.3691,2570.8008 C 3079.1327,2569.8797 3079.803,2568.7922 3080.5664,2567.8711 C 3081.4404,2566.6828 3081.8902,2565.3375 3082.7637,2564.2078 C 3083.1045,2563.7953 3083.8877,2563.8914 3084.2285,2563.4766 C 3084.8107,2562.7383 3085.1114,2561.9883 3085.6934,2561.2781 C 3024.0616,2501.0766 2981.715,2411.7609 2953.125,2302.0008 z "
         style="fill:#dbb495;fill-opacity:1;fill-rule:evenodd;stroke:none;stroke-width:1px;stroke-linecap:butt;stroke-linejoin:miter;stroke-opacity:1" />
      <path
         id="path2619"
         d="M 2995.6055,2702.6367 C 2979.3942,2720.4938 2963.1525,2737.7625 2947.2656,2753.9063 L 2978.0273,2784.668 C 2996.5612,2770.9242 3014.7213,2755.8422 3032.959,2739.9891 L 2995.6055,2702.6367 z "
         style="fill:#c7691b;fill-opacity:1;fill-rule:evenodd;stroke:none;stroke-width:3;stroke-linecap:butt;stroke-linejoin:miter;stroke-miterlimit:4;stroke-dasharray:none;stroke-opacity:1" />
      <path
         id="path2621"
         d="M 3125.9766,2548.0945 C 3111.0234,2566.7578 3096.1057,2585.1141 3081.2988,2603.0273 L 3127.4414,2648.4375 C 3143.3962,2631.525 3159.2597,2614.4133 3175.0488,2596.4344 L 3125.9766,2548.0945 z "
         style="fill:#c7691b;fill-opacity:1;fill-rule:evenodd;stroke:none;stroke-width:3;stroke-linecap:butt;stroke-linejoin:miter;stroke-miterlimit:4;stroke-dasharray:none;stroke-opacity:1" />
      <path
         id="path2633"
         d="M 3158.9355,2631.5906 C 3130.0127,2663.4211 3100.699,2693.925 3071.0449,2721.6797 C 3083.4652,2752.05 3092.073,2785.6008 3093.0176,2824.2188 C 3095.5837,2929.1203 3004.3943,3124.1719 3004.3945,3201.4148 C 3004.3945,3302.707 3129.4603,3498.593 3301.7578,3246.825 L 3255.6152,3207.2742 C 3173.2245,3402.4125 2983.504,3271.6289 3175.7813,3012.45 C 3266.013,2890.8234 3217.7991,2733.907 3158.9355,2631.5906 z "
         style="fill:#dbb495;fill-opacity:1;fill-rule:evenodd;stroke:#000000;stroke-width:23.4375;stroke-linecap:butt;stroke-linejoin:miter;stroke-miterlimit:4;stroke-dasharray:none;stroke-opacity:1" />
      <path
         id="path5881"
         d="M 3155.2734,2652.0984 C 3150.1127,2657.6883 3145.0903,2663.4398 3139.8926,2668.9453 C 3168.0745,2793.7031 3153.952,2925.9258 3130.3711,3059.325 C 3140.4776,3041.9789 3152.5066,3023.6648 3166.2598,3005.1258 C 3209.3437,2947.0523 3219.5419,2881.2305 3211.6699,2816.1609 C 3204.4821,2756.7469 3181.0655,2699.9086 3155.2734,2652.0984 z "
         style="fill:#f3ecde;fill-opacity:1;fill-rule:evenodd;stroke:none;stroke-width:1px;stroke-linecap:butt;stroke-linejoin:miter;stroke-opacity:1" />
      <path
         id="path2811"
         d="M 3856.9336,3402.832 L 3815.918,3436.5234 L 3775.6348,3406.493 L 3736.8164,3438.7195 L 3693.6035,3406.493 L 3686.2793,3411.6211 C 3682.0692,3445.1484 3675.3415,3476.5219 3664.3066,3502.4414 L 3892.0898,3502.4414 C 3887.4905,3477.1781 3884.3102,3448.7859 3882.5684,3417.4805 L 3856.9336,3402.832 z "
         style="fill:#ea7c20;fill-opacity:1;fill-rule:evenodd;stroke:#fbeb86;stroke-width:23.4375px;stroke-linecap:butt;stroke-linejoin:miter;stroke-opacity:1" />
      <path
         id="path2699"
         d="M 3697.998,2478.5156 C 3677.5552,2568.7031 3642.334,2735.3039 3642.334,2817.6258 C 3642.334,2925.7734 3692.8711,2986.4508 3692.8711,3220.4578 C 3692.8711,3332.1516 3697.1789,3484.95 3635.7422,3546.3867 C 3601.7873,3580.3406 3588.2625,3643.282 3595.459,3667.2352 L 3927.9785,3667.2352 C 3927.9785,3558.3562 3910.2487,3575.6391 3898.6816,3532.4695 C 3861.7723,3394.7227 3887.655,3101.3883 3927.2461,2910.6445 C 3831.4397,2783.5219 3754.8741,2630.7117 3697.998,2478.5156 z "
         style="fill:none;fill-opacity:0.75;fill-rule:evenodd;stroke:#000000;stroke-width:23.4375px;stroke-linecap:butt;stroke-linejoin:miter;stroke-opacity:1" />
      <path
         id="path2858"
         d="M 4886.7188,3397.7039 L 4841.3086,3451.9031 L 4814.9414,3417.4805 L 4787.1094,3437.9883 C 4780.9549,3483.8414 4768.0488,3505.7789 4754.8828,3525.1453 L 5016.3574,3525.1453 C 5009.0979,3498.9375 5002.0233,3467.1 4995.8496,3426.2695 L 4976.8066,3411.6211 L 4928.4668,3448.2422 L 4886.7188,3397.7039 z "
         style="fill:#ea7c20;fill-opacity:1;fill-rule:evenodd;stroke:#fbeb86;stroke-width:23.4375px;stroke-linecap:butt;stroke-linejoin:miter;stroke-opacity:1" />
      <path
         id="path2825"
         d="M 4274.4141,3377.9297 L 4215.0879,3443.8477 L 4155.0293,3394.043 L 4102.2949,3437.9883 L 4045.8984,3385.9852 L 4029.0527,3431.3953 C 4027.9723,3458.0883 4026.5761,3482.3039 4023.9258,3502.4414 C 4104.3947,3502.4414 4243.8895,3502.4414 4283.9355,3502.4414 C 4279.2431,3462.9211 4275.1505,3421.7273 4274.4141,3377.9297 z "
         style="fill:#ea7c20;fill-opacity:1;fill-rule:evenodd;stroke:#fbeb86;stroke-width:23.4375px;stroke-linecap:butt;stroke-linejoin:miter;stroke-opacity:1" />
      <path
         id="path2726"
         d="M 5003.9323,2541.6844 C 4994.9334,2645.5945 5075.7708,2733.1688 5132.8774,2825.0602"
         style="fill:none;fill-opacity:0.75;fill-rule:nonzero;stroke:#000000;stroke-width:23.4375;stroke-linecap:butt;stroke-linejoin:miter;stroke-miterlimit:4;stroke-opacity:1" />
      <rect
         transform="matrix(0.871711,0.49002,-0.49002,0.871711,0,0)"
         y="-78.509506"
         x="3684.4973"
         height="34.066704"
         width="34.066704"
         id="rect2735"
         style="fill:#8c0a12;fill-opacity:1;fill-rule:nonzero;stroke:#000000;stroke-width:7.34695101;stroke-linecap:butt;stroke-linejoin:miter;stroke-miterlimit:4;stroke-dasharray:none;stroke-dashoffset:0.99999998;stroke-opacity:1" />
      <use
         height="256"
         width="384"
         transform="matrix(0.999606,-2.806025e-2,2.806025e-2,0.999606,38.57991,69.91062)"
         id="use2737"
         xlink:href="#rect2735"
         y="0"
         x="0" />
      <use
         x="0"
         y="0"
         xlink:href="#rect2735"
         id="use2741"
         transform="matrix(0.993342,-0.1152,0.1152,0.993342,-8.725781,333.479)"
         width="384"
         height="256" />
      <use
         height="256"
         width="384"
         transform="matrix(0.979045,-0.203646,0.203646,0.979045,-44.25881,608.3784)"
         id="use2743"
         xlink:href="#rect2735"
         y="0"
         x="0" />
      <use
         x="0"
         y="0"
         xlink:href="#rect2735"
         id="use2745"
         transform="matrix(0.982258,-0.187533,0.187533,0.982258,50.2395,511.9442)"
         width="384"
         height="256" />
      <use
         height="256"
         width="384"
         transform="matrix(0.968712,-0.248188,0.248188,0.968712,50.08294,685.9389)"
         id="use2747"
         xlink:href="#rect2735"
         y="0"
         x="0" />
      <path
         transform="matrix(19.18472,0,0,19.18472,601.5825,292.8984)"
         d="M 142.93534 68.870796 A 1.4791051 1.4791051 0 1 1  139.97713,68.870796 A 1.4791051 1.4791051 0 1 1  142.93534 68.870796 z"
         sodipodi:ry="1.4791051"
         sodipodi:rx="1.4791051"
         sodipodi:cy="68.870796"
         sodipodi:cx="141.45624"
         id="path2756"
         style="fill:#ea7c20;fill-opacity:1;fill-rule:nonzero;stroke:#000000;stroke-width:0.5;stroke-linecap:butt;stroke-linejoin:miter;stroke-miterlimit:4;stroke-dasharray:none;stroke-dashoffset:0.99999998;stroke-opacity:1"
         sodipodi:type="arc" />
      <use
         height="256"
         width="384"
         transform="translate(69.33305,-99.79713)"
         id="use2758"
         xlink:href="#path2756"
         y="0"
         x="0" />
      <use
         x="0"
         y="0"
         xlink:href="#path2756"
         id="use2760"
         transform="translate(139.7166,-33.60963)"
         width="384"
         height="256" />
      <use
         height="256"
         width="384"
         transform="translate(168.0801,-127.1018)"
         id="use2762"
         xlink:href="#path2756"
         y="0"
         x="0" />
      <use
         x="0"
         y="0"
         xlink:href="#path2756"
         id="use2764"
         transform="translate(259.4737,-103.9924)"
         width="384"
         height="256" />
      <path
         sodipodi:nodetypes="cssssc"
         id="path2771"
         d="M 3266.1061,2029.4391 C 3256.879,2022.2273 3230.5847,2020.5305 3213.9241,2024.6953 C 3197.1211,2028.8953 3196.991,2037.8742 3192.577,2055.5297 C 3188.6953,2071.057 3185.7996,2093.9883 3206.8085,2088.7359 C 3234.1657,2081.8969 3250.5417,2100.8906 3261.3621,2079.2484 C 3267.3105,2067.3516 3269.6845,2047.3312 3266.1061,2029.4391 z "
         style="fill:#000000;fill-opacity:1;fill-rule:evenodd;stroke:none;stroke-width:1px;stroke-linecap:butt;stroke-linejoin:miter;stroke-opacity:1" />
      <path
         id="path5999"
         d="M 3911.8652,1546.1414 C 3906.963,1546.2187 3902.5491,1546.6945 3897.9492,1546.875 C 3816.9919,1550.032 3783.0319,1568.7586 3756.5918,1590.0867 L 3767.5781,1593.0164 C 3795.6066,1581.7078 3819.2109,1575.4594 3840.8203,1573.2422 C 3862.7522,1570.9922 3882.2433,1572.5273 3900.8789,1575.4383 C 3936.4031,1580.9906 3968.9123,1591.282 4014.4043,1592.2852 C 4020.0293,1584.0703 4023.4191,1568.1398 4028.3203,1552.0008 C 3981.7992,1547.4961 3943.3786,1545.6516 3911.8652,1546.1414 z "
         style="fill:#dbb495;fill-opacity:1;fill-rule:evenodd;stroke:none;stroke-width:1px;stroke-linecap:butt;stroke-linejoin:miter;stroke-opacity:1" />
      <path
         id="path6013"
         d="M 4031.9824,1608.3984 C 4031.9843,1608.4641 4031.9759,1609.0547 4031.9824,1609.1297 L 4032.7148,1608.3984 C 4032.6338,1608.4594 4032.0495,1608.3375 4031.9824,1608.3984 z "
         style="fill:#6b00f0;fill-opacity:0.2469136;fill-rule:evenodd;stroke:none;stroke-width:1px;stroke-linecap:butt;stroke-linejoin:miter;stroke-opacity:1" />
      <path
         sodipodi:nodetypes="csssssssssssssssc"
         id="path2847"
         d="M 4066.9887,1522.6289 C 4035.1816,1527.8695 4040.3986,1576.9922 4022.8812,1600.35 C 4006.9378,1621.6078 3999.4992,1624.2258 3993.3305,1648.9008 C 3985.0235,1682.1281 3997.632,1702.7555 3979.8457,1720.5422 C 3966.3637,1734.0234 3961.8506,1769.7352 3951.24,1790.9555 C 3940.4309,1812.5742 3928.1529,1835.0883 3914.411,1848.8297 C 3896.1166,1867.125 3893.1602,1896.593 3882.843,1917.2273 C 3869.4825,1943.9484 3877.5818,1987.718 3877.5818,2017.193 C 3877.5818,2050.5961 3878.8191,2085.9 3872.3205,2111.8945 C 3864.0195,2145.1008 3849.7022,2162.393 3835.4913,2190.8156 C 3823.849,2214.0984 3824.9688,2256.1453 3824.9688,2285.5195 C 3824.9688,2323.8398 3829.8832,2362.0102 3835.4913,2401.268 C 3841.5131,2443.4203 3840.7526,2495.9273 3840.7526,2538.0609 C 3840.7526,2565.4313 3865.5736,2600.5148 3872.3205,2627.5031 C 3880.2724,2659.3102 3869.9416,2696.9063 3877.5818,2727.4688 C 3887.2228,2766.0328 3894.6284,2785.132 3903.8883,2822.1703 C 3909.5688,2844.893 3905.0081,2867.6977 3914.411,2886.5039"
         style="fill:none;fill-opacity:0.75;fill-rule:evenodd;stroke:#000000;stroke-width:23.4375px;stroke-linecap:round;stroke-linejoin:miter;stroke-opacity:1" />
      <path
         id="path6019"
         d="M 3734.6191,2361.3281 L 3671.6309,2368.6523 C 3723.0281,2531.5547 3798.1753,2701.0734 3895.0195,2845.4578 C 3894.7003,2838.2016 3894.4472,2831.4516 3892.8223,2824.95 C 3883.6889,2788.418 3876.2175,2769.5203 3866.4551,2730.4688 C 3857.6637,2695.3031 3867.4413,2657.5078 3860.5957,2630.1258 C 3857.7525,2618.7539 3850.2148,2603.5406 3843.0176,2587.6453 C 3835.8204,2571.7523 3829.1016,2555.0695 3829.1016,2537.8406 C 3829.1016,2536.1602 3829.0999,2534.4258 3829.1016,2532.7148 L 3734.6191,2361.3281 z "
         style="fill:#dbb495;fill-opacity:1;fill-rule:evenodd;stroke:none;stroke-width:1px;stroke-linecap:butt;stroke-linejoin:miter;stroke-opacity:1" />
      <path
         id="path2849"
         d="M 3648.1934,2329.1016 C 3657.6199,2361.232 3667.7177,2393.8594 3678.9551,2426.5125 C 3686.4933,2424.0633 3693.5733,2419.7859 3699.4629,2414.0625 C 3861.7303,2272.2703 3990.0427,2154.9984 4091.3086,2044.1883 L 4091.3086,1883.7891 C 4088.0613,1886.3555 4085.1431,1889.2969 4082.5195,1892.5781 C 4031.1258,1956.2156 3670.6795,2308.6593 3645.797,2323.0252 L 3648.1934,2329.1016 z "
         style="fill:#fbeb86;fill-opacity:1;fill-rule:evenodd;stroke:#000000;stroke-width:23.4375;stroke-linecap:round;stroke-linejoin:round;stroke-miterlimit:4;stroke-dasharray:none;stroke-opacity:1"
         sodipodi:nodetypes="cccccccc" />
      <path
         id="path2884"
         d="M 5509.2773,3350.8289 C 5509.3409,3351.075 5509.2143,3351.3187 5509.2773,3351.5625 C 5526.6356,3418.957 5526.3038,3472.7273 5519.5313,3504.6375 L 5790.5273,3504.6375 C 5768.6306,3451.425 5765.6637,3414.682 5754.6387,3364.7461 L 5696.7773,3391.1133 L 5649.1699,3360.3516 L 5577.3926,3402.0984 L 5509.2773,3350.8289 z "
         style="fill:#ea7c20;fill-opacity:1;fill-rule:evenodd;stroke:#fbeb86;stroke-width:23.4375px;stroke-linecap:butt;stroke-linejoin:miter;stroke-opacity:1" />
      <path
         id="path2904"
         d="M 4269.2871,2339.3555 L 4269.2871,2780.2734 C 4295.1049,2759.85 4331.7877,2750.9484 4374.7559,2749.5117 L 4374.7559,2342.2852 L 4269.2871,2339.3555 z "
         style="fill:#ea7c20;fill-opacity:1;fill-rule:evenodd;stroke:#000000;stroke-width:23.4375;stroke-linecap:butt;stroke-linejoin:miter;stroke-miterlimit:4;stroke-dasharray:none;stroke-opacity:1" />
      <path
         id="path2930"
         d="M 4986.3281,1718.2617 L 4986.3281,1883.0555 C 5149.7231,2055.9305 5391.9305,2338.2797 5575.1953,2633.7891 L 5578.125,2587.6453 L 5583.252,2584.7156 L 5592.7734,2578.125 C 5591.2547,2530.5211 5471.3489,2311.4062 5313.7207,2092.5281 L 5460.9375,1957.7625 C 5441.7654,1923.2602 5420.5784,1889.6484 5396.4844,1857.4219 L 5243.4082,1998.0469 C 5161.0029,1891.7461 5071.7873,1791.6445 4986.3281,1718.2617 z "
         style="fill:#fbeb86;fill-opacity:1;fill-rule:evenodd;stroke:#000000;stroke-width:23.4375;stroke-linecap:butt;stroke-linejoin:miter;stroke-miterlimit:4;stroke-dasharray:none;stroke-opacity:1" />
      <g
         transform="scale(23.4375,23.4375)"
         id="g5809">
        <use
           x="0"
           y="0"
           xlink:href="#rect5795"
           id="use5807"
           transform="translate(3,14.5)"
           width="384"
           height="256" />
        <use
           height="256"
           width="384"
           transform="translate(9,10)"
           id="use5805"
           xlink:href="#rect5795"
           y="0"
           x="0" />
        <rect
           style="opacity:1;fill:#fbeb86;fill-opacity:1;fill-rule:nonzero;stroke:#000000;stroke-width:0.7500003;stroke-linecap:round;stroke-linejoin:miter;stroke-miterlimit:4;stroke-dasharray:none;stroke-dashoffset:0.99999998;stroke-opacity:1"
           id="rect5795"
           width="3.0291595"
           height="3.0291595"
           x="181.78181"
           y="-86.346939"
           transform="matrix(0.707107,0.707107,-0.707107,0.707107,0,0)" />
        <use
           x="0"
           y="0"
           xlink:href="#rect5795"
           id="use5799"
           transform="translate(8.5,0.5)"
           width="384"
           height="256" />
        <use
           height="256"
           width="384"
           transform="translate(4,5)"
           id="use5801"
           xlink:href="#rect5795"
           y="0"
           x="0" />
        <use
           x="0"
           y="0"
           xlink:href="#rect5795"
           id="use5803"
           transform="translate(-1,9.5)"
           width="384"
           height="256" />
      </g>
      <path
         sodipodi:nodetypes="csscc"
         id="path2800"
         d="M 3644.377,2072.8477 C 3502.6568,1900.5305 3537.8302,1766.1516 3644.4457,1768.357 C 3787.489,1771.3195 3741.9216,1912.0828 3701.8887,1961.8125 C 3681.5259,1987.1062 3667.7456,2011.6664 3666.3075,2072.8031 L 3644.377,2072.8477 z "
         style="fill:none;fill-opacity:0.75;fill-rule:evenodd;stroke:#000000;stroke-width:23.4375px;stroke-linecap:butt;stroke-linejoin:miter;stroke-opacity:1" />
      <path
         sodipodi:nodetypes="cssssssssssssssc"
         id="path2803"
         d="M 3708.1413,1694.7844 C 3710.5479,1703.0766 3713.1497,1713.0586 3723.8538,1715.7352 C 3734.4267,1718.3789 3743.0358,1722.7266 3753.533,1719.2273 C 3758.9316,1717.4273 3758.7703,1696.8305 3758.7703,1691.2922 C 3758.7703,1681.7039 3758.7769,1670.3156 3760.5162,1663.3594 C 3761.1192,1660.9477 3776.9175,1652.5406 3779.7204,1651.1391 C 3788.5835,1646.707 3791.4323,1644.1547 3805.9078,1644.1547 C 3817.5466,1644.1547 3829.1855,1644.1547 3840.8243,1644.1547 C 3854.584,1644.1547 3855.4828,1650.4148 3858.2827,1661.6133 C 3859.113,1664.9344 3858.2827,1677.0891 3858.2827,1684.3102 C 3858.2827,1697.2102 3863.5819,1698.307 3873.9952,1703.5148 C 3884.7354,1708.8844 3892.6734,1705.6172 3894.945,1696.5305 C 3898.1733,1683.6187 3896.2664,1677.5391 3907.1658,1672.0898 C 3913.1939,1669.0758 3929.8521,1672.5234 3935.0991,1673.8359 C 3946.3137,1676.6391 3953.4291,1684.3078 3957.795,1693.0383 C 3962.2948,1702.0383 3965.7424,1707.9703 3975.2531,1717.4812"
         style="fill:none;fill-opacity:0.75;fill-rule:evenodd;stroke:#000000;stroke-width:23.4375px;stroke-linecap:round;stroke-linejoin:miter;stroke-opacity:1" />
      <path
         id="path2805"
         d="M 3123.1451,1952.1586 C 3132.0152,1966.2352 3142.2473,1977.6023 3162.9499,1982.7773 C 3179.1232,1986.8203 3176.0918,1970.0156 3178.2595,1961.3438"
         style="fill:none;fill-opacity:0.75;fill-rule:evenodd;stroke:#000000;stroke-width:23.4375px;stroke-linecap:round;stroke-linejoin:miter;stroke-opacity:1" />
      <path
         sodipodi:nodetypes="cc"
         id="path2807"
         d="M 3770.5012,1604.0063 C 3881.4171,1558.793 3919.2928,1603.868 4021.017,1604.0063"
         style="fill:none;fill-opacity:0.75;fill-rule:evenodd;stroke:#000000;stroke-width:23.4375px;stroke-linecap:round;stroke-linejoin:miter;stroke-opacity:1" />
      <path
         sodipodi:nodetypes="cc"
         id="path2845"
         d="M 3698.1799,1958.9719 C 3706.2504,1895.3273 3683.565,1890.6469 3668.4666,1867.5469"
         style="fill:none;fill-opacity:0.75;fill-rule:evenodd;stroke:#000000;stroke-width:23.4375px;stroke-linecap:round;stroke-linejoin:miter;stroke-opacity:1" />
      <path
         sodipodi:nodetypes="cccccsc"
         id="rect2916"
         d="M 4519.7754,1510.9852 C 4450.3385,1512.3281 4391.6857,1518.4781 4340.332,1524.1688 L 4340.332,2034.668 L 4715.332,2034.668 L 4715.332,1518.3094 C 4662.6935,1513.3945 4606.9744,1510.9852 4547.6074,1510.9852 C 4538.0365,1510.9852 4528.9418,1510.8094 4519.7754,1510.9852 z "
         style="fill:none;fill-opacity:1;fill-rule:nonzero;stroke:#ea7c20;stroke-width:23.4375;stroke-linecap:round;stroke-linejoin:miter;stroke-miterlimit:4;stroke-dasharray:none;stroke-dashoffset:0.99999998;stroke-opacity:1" />
      <path
         id="path2754"
         d="M 3155.2734,1876.4648 C 3145.3748,1893.3773 3134.347,1908.7336 3120.1172,1918.2117 C 3050.8751,1964.3391 3060.6872,2013.382 3060.791,2058.1055 C 3060.8658,2090.2781 3058.0137,2132.6977 3008.0566,2189.2078 C 2888.9677,2323.9195 2913.1031,2467.8609 3000,2605.957 C 3008.6805,2619.7523 3019.9662,2632.7039 3029.2969,2646.2391 C 3054.806,2616.5883 3080.868,2585.5852 3106.9336,2553.2227 C 3106.8148,2553.0492 3107.0527,2552.6625 3106.9336,2552.4891 C 3070.8485,2500.1812 3137.1584,2474.1211 3203.6133,2474.1211 C 3338.4673,2474.1211 3339.8438,2407.7742 3339.8438,2362.0594 C 3339.8438,2251.6594 3368.3965,2260.2539 3400.6348,2260.2539 C 3453.1486,2260.2539 3488.6505,2354.7352 3557.373,2354.7352 C 3616.9277,2354.7352 3648.1934,2329.1016 3648.1934,2329.1016 C 3709.8619,2539.2984 3810.2986,2766.0445 3949.2188,2939.2078 C 4043.1115,3058.7203 4047.5691,3541.875 4003.418,3565.4297 C 3960.3905,3588.3844 3972.3898,3627.8086 3978.5156,3665.7703 L 3973.3887,3667.2352 L 4298.584,3667.2352 C 4298.584,3570.4828 4274.4143,3477.1406 4274.4141,3364.7461 C 4274.4141,3030.5766 4230.4688,2943.3234 4230.4688,2873.2898 C 4230.4688,2704.1531 4439.5622,2747.8758 4611.3281,2778.075 C 4781.7117,2808.0328 4878.6851,2824.95 5132.8125,2824.95 C 5132.8125,2824.95 5184.9042,2887.1016 5321.0449,3031.493 C 5563.1691,3288.293 5534.1026,3519.2625 5504.8828,3536.1328 C 5480.5519,3550.1789 5466.3574,3526.5867 5474.1211,3667.2352 L 5823.4863,3667.2352 C 5829.6502,3562.343 5821.4147,3572.7891 5798.584,3523.6805 C 5742.6504,3403.3687 5784.9558,3369.5578 5671.875,3151.6102 C 5515.7341,2850.6703 5626.4119,2836.1086 5573.7305,2559.8133 L 5802.2461,3132.5672 C 5799.3637,3135.45 5794.8968,3138.7055 5791.2598,3143.5547 C 5785.1067,3151.7578 5770.7208,3186.7359 5784.668,3200.6836 C 5795.4668,3211.4812 5808.4045,3230.8617 5827.1484,3240.2344 C 5840.2174,3246.7688 5856.9274,3251.7023 5866.6992,3261.4734 C 5878.8436,3273.6187 5892.4012,3294.5016 5906.25,3308.3484 C 5914.3898,3316.4883 5934.1071,3338.7562 5945.0684,3344.2383 C 5958.5937,3351 5970.8306,3347.8992 5991.9434,3347.8992 C 6015.128,3347.8992 6026.5076,3345.3023 6045.4102,3340.575 C 6050.1131,3339.4008 6088.6228,3338.6906 6088.623,3329.5898 C 6088.623,3308.1797 6086.1204,3302.7469 6071.0449,3293.7 C 6054.0422,3283.5 6053.5341,3274.0594 6045.4102,3257.8125 C 6035.7237,3238.4391 6025.7653,3234.0398 6006.5918,3229.2469 C 5981.2223,3222.9047 5982.2379,3215.8805 5967.041,3200.6836 C 5953.2164,3186.8578 5932.9399,3180.0023 5927.4902,3158.2031 C 5924.3421,3145.6102 5917.5792,3126.3188 5906.25,3114.9891 C 5879.6576,3088.3969 5877.3731,3125.9766 5849.1211,3125.9766 C 5605.2916,2589.1055 5663.8448,2641.9477 5635.2539,2507.8125 C 5548.0561,2098.7227 5445.6452,1510.9852 4547.6074,1510.9852 C 4394.4708,1510.9852 4294.4616,1535.1563 4204.834,1535.1563 C 4086.3124,1535.1563 3895.819,1466.7234 3769.043,1574.707 C 3769.043,1582.0406 3769.043,1589.3391 3769.043,1596.6797 C 3769.043,1611.5484 3770.1291,1620.4289 3769.043,1625.243 C 3768.8655,1625.8945 3768.589,1626.9258 3768.3105,1627.4414 C 3768.2339,1627.5609 3767.662,1628.0602 3767.5781,1628.1727 C 3767.3948,1628.3859 3767.0611,1628.7234 3766.8457,1628.9063 C 3766.7295,1628.9906 3766.2382,1629.5602 3766.1133,1629.6375 C 3765.4432,1630.0008 3764.1019,1630.1438 3763.1836,1630.3711 C 3759.878,1631.0602 3754.9828,1631.1023 3747.8027,1631.1023 C 3730.226,1631.1023 3718.9542,1632.4055 3713.3789,1636.9617 C 3707.257,1642.6102 3708.2016,1653.607 3713.3789,1674.3164 C 3713.5901,1675.1602 3713.2437,1676.4656 3713.3789,1677.2461 C 3713.4663,1677.8203 3714.0645,1678.9031 3714.1113,1679.4422 C 3714.1338,1679.7961 3714.1062,1680.5719 3714.1113,1680.907 C 3714.108,1681.2375 3714.1313,1682.0578 3714.1113,1682.3719 C 3714.0832,1682.6789 3714.1556,1683.5461 3714.1113,1683.8367 C 3714.0853,1683.9797 3713.4089,1684.432 3713.3789,1684.5703 C 3713.3452,1684.7062 3713.4164,1685.1703 3713.3789,1685.3016 C 3713.3377,1685.4305 3713.4237,1685.9109 3713.3789,1686.0352 C 3713.3304,1686.1547 3712.6985,1686.6492 3712.6465,1686.7664 C 3712.5909,1686.8813 3712.7055,1687.3898 3712.6465,1687.5 C 3712.5841,1687.6055 3711.9797,1688.1281 3711.9141,1688.2313 C 3711.8452,1688.332 3711.9863,1688.8687 3711.9141,1688.9648 C 3711.7634,1689.1523 3711.3448,1689.5227 3711.1816,1689.6961 C 3710.9278,1689.9469 3709.9966,1690.2094 3709.7168,1690.4297 C 3709.5246,1690.5703 3709.1876,1691.0344 3708.9844,1691.1609 C 3700.0228,1696.3969 3681.4678,1690.0125 3670.166,1678.7109 C 3663.6089,1672.1531 3640.762,1662.2461 3627.6855,1665.5273 C 3627.5409,1665.5672 3627.0952,1665.4828 3626.9531,1665.5273 C 3626.3951,1665.7172 3625.2703,1666.0102 3624.7559,1666.2586 C 3624.3788,1666.4578 3623.6407,1666.7578 3623.291,1666.9922 C 3623.1776,1667.0742 3622.6688,1667.6391 3622.5586,1667.7234 C 3622.4552,1667.8195 3621.926,1668.3586 3621.8262,1668.457 C 3621.7298,1668.5602 3621.1863,1669.0828 3621.0938,1669.1883 C 3620.8268,1669.5234 3620.5936,1670.2805 3620.3613,1670.6531 C 3620.288,1670.7844 3619.6983,1671.2531 3619.6289,1671.3867 C 3619.5635,1671.525 3619.6901,1671.975 3619.6289,1672.118 C 3619.5152,1672.4156 3618.9926,1673.2687 3618.8965,1673.5828 C 3618.6349,1674.5602 3618.255,1676.0883 3618.1641,1677.2461 C 3618.1437,1677.6422 3618.1641,1678.2938 3618.1641,1678.7109 C 3618.1641,1681.3336 3610.2373,1739.6156 3609.375,1743.1641 C 3598.2574,1740.3844 3575.7628,1726.3172 3549.3164,1726.3172 C 3549.198,1726.3172 3548.7035,1726.3125 3548.584,1726.3172 C 3548.4633,1726.3289 3547.9732,1726.3008 3547.8516,1726.3172 C 3547.7288,1726.3406 3547.2429,1726.2891 3547.1191,1726.3172 C 3546.9945,1726.3523 3546.5123,1727.0109 3546.3867,1727.0508 C 3546.2602,1727.0953 3545.7818,1726.9992 3545.6543,1727.0508 C 3533.5866,1732.2445 3517.3209,1760.1023 3509.7656,1770.2625 C 3509.3063,1770.8648 3508.6877,1772.018 3508.3008,1772.4609 C 3508.1803,1772.5898 3507.6799,1773.0844 3507.5684,1773.1922 C 3507.363,1773.368 3507.004,1773.8367 3506.8359,1773.9258 C 3506.7616,1773.9469 3506.168,1773.9281 3506.1035,1773.9258 C 3503.0041,1772.3766 3460.882,1748.4516 3443.8477,1748.2898 C 3443.5324,1748.2969 3442.6793,1748.2688 3442.3828,1748.2898 C 3442.2396,1748.3062 3441.7887,1748.2711 3441.6504,1748.2898 C 3441.5173,1748.3156 3441.0459,1748.993 3440.918,1749.0234 C 3440.7954,1749.0586 3440.3027,1748.9836 3440.1855,1749.0234 C 3440.074,1749.068 3439.5591,1748.9742 3439.4531,1749.0234 C 3439.353,1749.0773 3438.8149,1749.6961 3438.7207,1749.7547 C 3438.5564,1749.8977 3438.1275,1750.3242 3437.9883,1750.4883 C 3437.9252,1750.575 3437.3123,1751.1281 3437.2559,1751.2195 C 3437.2127,1751.325 3437.2922,1751.843 3437.2559,1751.9531 C 3433.7843,1765.8398 3428.3077,1791.4078 3424.0723,1808.3484 C 3423.4549,1810.8187 3422.6508,1813.125 3421.875,1814.9414 C 3421.7168,1815.293 3421.3069,1816.0805 3421.1426,1816.4063 C 3420.9755,1816.7203 3420.5831,1817.5805 3420.4102,1817.8711 C 3419.9702,1818.5695 3419.4206,1819.5094 3418.9453,1820.0672 C 3418.849,1820.175 3418.3106,1820.7 3418.2129,1820.8008 C 3418.0146,1820.993 3417.6841,1821.3609 3417.4805,1821.532 C 3417.1711,1821.7758 3416.3367,1822.0688 3416.0156,1822.2656 C 3415.6908,1822.4484 3414.8869,1822.8563 3414.5508,1822.9969 C 3414.2074,1823.1117 3413.4401,1823.6555 3413.0859,1823.7305 C 3412.9666,1823.7516 3412.474,1823.7141 3412.3535,1823.7305 C 3412.2321,1823.7422 3411.7437,1823.7211 3411.6211,1823.7305 C 3401.3482,1824.15 3386.6494,1811.2453 3372.0703,1803.9539 C 3357.5564,1796.6977 3348.4873,1793.0297 3342.7734,1792.2352 C 3342.4294,1792.1977 3341.6276,1792.2563 3341.3086,1792.2352 C 3341.1551,1792.2305 3340.7236,1792.2352 3340.5762,1792.2352 C 3340.2928,1792.2469 3339.3722,1792.207 3339.1113,1792.2352 C 3338.9864,1792.2539 3338.4987,1792.2117 3338.3789,1792.2352 C 3338.1499,1792.2914 3337.8555,1792.8961 3337.6465,1792.9688 C 3337.5466,1793.0086 3337.0092,1792.9242 3336.9141,1792.9688 C 3336.7329,1793.0672 3336.3455,1793.5875 3336.1816,1793.7 C 3336.1038,1793.7609 3335.5228,1793.6367 3335.4492,1793.7 C 3335.3794,1793.7703 3335.5153,1794.3609 3335.4492,1794.4336 C 3335.3243,1794.5836 3334.8279,1795.0008 3334.7168,1795.1648 C 3331.913,1800.2461 3333.6827,1810.9523 3328.8574,1820.0672 C 3328.6793,1820.3859 3328.3212,1821.218 3328.125,1821.532 C 3327.6105,1822.3148 3326.5704,1823.7117 3325.9277,1824.4617 C 3325.7937,1824.6117 3325.335,1825.0477 3325.1953,1825.1953 C 3317.4113,1832.9789 3301.065,1861.9547 3295.8984,1867.6758 C 3295.7306,1867.8469 3295.3059,1868.2969 3295.166,1868.407 C 3295.1184,1868.4141 3294.4732,1868.4187 3294.4336,1868.407 C 3275.2973,1863.1359 3251.1138,1834.4977 3235.1074,1828.8563 C 3234.7669,1828.7461 3233.9759,1828.2117 3233.6426,1828.125 C 3233.313,1828.0477 3232.4995,1828.1766 3232.1777,1828.125 C 3231.8597,1828.0852 3231.0227,1827.4078 3230.7129,1827.3914 C 3230.407,1827.3891 3229.5455,1828.1016 3229.248,1828.125 C 3229.1016,1828.1437 3228.66,1828.0992 3228.5156,1828.125 C 3228.3736,1828.1578 3227.9231,1828.0852 3227.7832,1828.125 C 3227.508,1828.2187 3226.5844,1828.732 3226.3184,1828.8563 C 3226.1878,1828.9266 3225.7141,1828.7789 3225.5859,1828.8563 C 3225.4601,1828.943 3224.9768,1829.4961 3224.8535,1829.5898 C 3224.7326,1829.6906 3224.2395,1830.2133 3224.1211,1830.3211 C 3224.0053,1830.4406 3223.5019,1830.9281 3223.3887,1831.0547 C 3223.278,1831.1883 3222.7643,1831.643 3222.6563,1831.7859 C 3222.4455,1832.0906 3222.1238,1832.9109 3221.9238,1833.2508 C 3221.8266,1833.4312 3221.2859,1833.7945 3221.1914,1833.9844 C 3215.1298,1846.1063 3206.2875,1862.8898 3195.5566,1877.1961 C 3190.7334,1883.6273 3183.5873,1891.1109 3175.7813,1894.043 C 3171.8782,1895.5078 3167.8945,1895.5148 3164.0625,1894.043 C 3160.2305,1892.5711 3156.2925,1889.5734 3153.0762,1883.7891 C 3153.1866,1883.6156 3152.9662,1883.2313 3153.0762,1883.0555 C 3154.1559,1881.3398 3154.234,1878.2508 3155.2734,1876.4648 z "
         style="fill:none;fill-opacity:0.75;fill-rule:nonzero;stroke:#000000;stroke-width:23.4375;stroke-linecap:butt;stroke-linejoin:miter;stroke-miterlimit:4;stroke-dasharray:none;stroke-opacity:1" />
      <rect
         transform="matrix(0.707107,0.707107,-0.707107,0.707107,0,0)"
         y="-964.32104"
         x="4254.6289"
         height="42.150211"
         width="42.150211"
         id="rect4702"
         style="fill:#8c0a12;fill-opacity:1;fill-rule:nonzero;stroke:#000000;stroke-width:11.71875763;stroke-linecap:round;stroke-linejoin:miter;stroke-miterlimit:4;stroke-dasharray:none;stroke-dashoffset:0.99999998;stroke-opacity:1" />
      <use
         height="256"
         width="384"
         transform="translate(48.21403,-48.2112)"
         id="use5577"
         xlink:href="#rect4702"
         y="0"
         x="0" />
      <use
         x="0"
         y="0"
         xlink:href="#rect4702"
         id="use5579"
         transform="translate(101.0939,-93.32838)"
         width="384"
         height="256" />
      <use
         height="256"
         width="384"
         transform="translate(157.0844,-146.2034)"
         id="use5581"
         xlink:href="#rect4702"
         y="0"
         x="0" />
      <use
         x="0"
         y="0"
         xlink:href="#rect4702"
         id="use5583"
         transform="translate(209.9643,-199.0784)"
         width="384"
         height="256" />
      <use
         height="256"
         width="384"
         transform="translate(265.9547,-251.9534)"
         id="use5585"
         xlink:href="#rect4702"
         y="0"
         x="0" />
      <use
         x="0"
         y="0"
         xlink:href="#rect4702"
         id="use5587"
         transform="translate(318.8346,-301.7346)"
         width="384"
         height="256" />
      <use
         height="256"
         width="384"
         transform="translate(367.0486,-354.6096)"
         id="use5589"
         xlink:href="#rect4702"
         y="0"
         x="0" />
      <path
         sodipodi:nodetypes="cc"
         id="path5591"
         d="M 3620.2687,3595.7953 C 3643.2038,3600.3211 3667.2949,3600.2531 3667.2949,3648.6984"
         style="fill:none;fill-opacity:0.75;fill-rule:evenodd;stroke:#000000;stroke-width:23.4375px;stroke-linecap:round;stroke-linejoin:miter;stroke-opacity:1" />
      <path
         sodipodi:nodetypes="cc"
         id="path5593"
         d="M 3714.3209,3653.107 C 3706.0202,3596.0742 3780.9148,3584.5734 3786.3295,3620.0414"
         style="fill:none;fill-opacity:0.75;fill-rule:evenodd;stroke:#000000;stroke-width:23.4375px;stroke-linecap:round;stroke-linejoin:miter;stroke-opacity:1" />
      <path
         sodipodi:nodetypes="cc"
         id="path5595"
         d="M 3843.6424,3651.6375 C 3843.5109,3629.3906 3874.5748,3621.9188 3911.2423,3617.1023"
         style="fill:none;fill-opacity:0.75;fill-rule:evenodd;stroke:#000000;stroke-width:23.4375px;stroke-linecap:round;stroke-linejoin:miter;stroke-opacity:1" />
      <path
         sodipodi:nodetypes="cc"
         id="path5599"
         d="M 3990.0502,3594.1219 C 4010.7101,3610.8164 4039.7637,3617.018 4041.6457,3657.1828"
         style="fill:none;fill-opacity:0.75;fill-rule:evenodd;stroke:#000000;stroke-width:23.4375px;stroke-linecap:round;stroke-linejoin:miter;stroke-opacity:1" />
      <path
         sodipodi:nodetypes="cc"
         id="path5601"
         d="M 4156.3022,3657.1828 C 4159.522,3631.9031 4202.3449,3587.0742 4257.5822,3618.9633"
         style="fill:none;fill-opacity:0.75;fill-rule:evenodd;stroke:#000000;stroke-width:23.4375px;stroke-linecap:round;stroke-linejoin:miter;stroke-opacity:1" />
      <path
         sodipodi:nodetypes="cc"
         id="path5603"
         d="M 4729.5853,3596.032 C 4757.6196,3594.3211 4781.7262,3599.1586 4794.5573,3622.7859"
         style="fill:none;fill-opacity:0.75;fill-rule:evenodd;stroke:#000000;stroke-width:23.4375px;stroke-linecap:round;stroke-linejoin:miter;stroke-opacity:1" />
      <path
         sodipodi:nodetypes="cc"
         id="path5605"
         d="M 4838.5092,3597.9445 C 4873.3732,3595.5656 4892.1441,3609.2813 4886.2828,3647.6273"
         style="fill:none;fill-opacity:0.75;fill-rule:evenodd;stroke:#000000;stroke-width:23.4375px;stroke-linecap:round;stroke-linejoin:miter;stroke-opacity:1" />
      <path
         id="path2697"
         d="M 4719.7266,2796.3867 C 4698.1303,3192.9305 4790.7715,3222.3375 4790.7715,3377.9297 C 4790.7712,3567.0352 4708.7196,3497.318 4721.9238,3667.2352 L 5049.3164,3667.2352 C 5049.3164,3565.118 4982.6709,3538.9477 4980.4688,3196.2891 C 4979.4748,3041.6367 5006.9243,2923.2656 5052.2461,2824.2188 C 4906.6877,2821.6852 4817.5807,2812.0898 4719.7266,2796.3867 z "
         style="fill:none;fill-opacity:0.75;fill-rule:evenodd;stroke:#000000;stroke-width:23.4375px;stroke-linecap:butt;stroke-linejoin:miter;stroke-opacity:1" />
      <path
         sodipodi:nodetypes="cc"
         id="path5607"
         d="M 5479.6678,3595.4273 C 5513.6168,3590.707 5530.5164,3607.3008 5544.8576,3627.0914"
         style="fill:none;fill-opacity:0.75;fill-rule:evenodd;stroke:#000000;stroke-width:23.4375px;stroke-linecap:round;stroke-linejoin:miter;stroke-opacity:1" />
      <path
         sodipodi:nodetypes="cc"
         id="path5609"
         d="M 5585.8341,3619.6406 C 5611.1248,3590.257 5684.55,3593.2195 5684.55,3647.5805"
         style="fill:none;fill-opacity:0.75;fill-rule:evenodd;stroke:#000000;stroke-width:23.4375px;stroke-linecap:round;stroke-linejoin:miter;stroke-opacity:1" />
      <use
         height="256"
         width="384"
         transform="translate(628.35,22.80443)"
         id="use5715"
         xlink:href="#rect4702"
         y="0"
         x="0" />
      <use
         x="0"
         y="0"
         xlink:href="#rect4702"
         id="use5717"
         transform="translate(628.35,339.2107)"
         width="384"
         height="256" />
      <use
         height="256"
         width="384"
         transform="translate(628.35,275.9295)"
         id="use5719"
         xlink:href="#rect4702"
         y="0"
         x="0" />
      <use
         height="256"
         width="384"
         transform="translate(628.35,212.6482)"
         id="use5723"
         xlink:href="#rect4702"
         y="0"
         x="0" />
      <use
         x="0"
         y="0"
         xlink:href="#rect4702"
         id="use5725"
         transform="translate(628.35,149.3669)"
         width="384"
         height="256" />
      <use
         height="256"
         width="384"
         transform="translate(628.35,86.08568)"
         id="use5727"
         xlink:href="#rect4702"
         y="0"
         x="0" />
      <g
         transform="scale(23.4375,23.4375)"
         id="g5817">
        <rect
           style="opacity:1;fill:#c0061a;fill-opacity:1;fill-rule:nonzero;stroke:#000000;stroke-width:0.5;stroke-linecap:round;stroke-linejoin:miter;stroke-miterlimit:4;stroke-dasharray:none;stroke-dashoffset:0.99999998;stroke-opacity:1"
           id="rect5683"
           width="2.0106339"
           height="2.9160903"
           x="180.54645"
           y="65.549149"
           ry="1.0055484"
           rx="1.005317" />
        <use
           x="0"
           y="0"
           xlink:href="#rect5683"
           id="use5697"
           transform="translate(0,23)"
           width="384"
           height="256" />
        <use
           height="256"
           width="384"
           transform="translate(0,20.125)"
           id="use5699"
           xlink:href="#rect5683"
           y="0"
           x="0" />
        <use
           x="0"
           y="0"
           xlink:href="#rect5683"
           id="use5701"
           transform="translate(0,17.24999)"
           width="384"
           height="256" />
        <use
           height="256"
           width="384"
           transform="translate(0,14.37499)"
           id="use5703"
           xlink:href="#rect5683"
           y="0"
           x="0" />
        <use
           x="0"
           y="0"
           xlink:href="#rect5683"
           id="use5705"
           transform="translate(0,11.49999)"
           width="384"
           height="256" />
        <use
           height="256"
           width="384"
           transform="translate(0,8.624991)"
           id="use5707"
           xlink:href="#rect5683"
           y="0"
           x="0" />
        <use
           x="0"
           y="0"
           xlink:href="#rect5683"
           id="use5709"
           transform="translate(0,5.749995)"
           width="384"
           height="256" />
        <use
           height="256"
           width="384"
           transform="translate(0,2.874996)"
           id="use5711"
           xlink:href="#rect5683"
           y="0"
           x="0" />
        <use
           height="256"
           width="384"
           transform="matrix(0.707107,-0.707107,0.707107,0.707107,7.95472,173.1963)"
           id="use5729"
           xlink:href="#rect5683"
           y="0"
           x="0" />
        <use
           x="0"
           y="0"
           xlink:href="#rect5683"
           id="use5731"
           transform="matrix(0,-1,1,0,119.9763,274.1157)"
           width="384"
           height="256" />
        <use
           height="256"
           width="384"
           transform="matrix(0,-1,1,0,123.8513,274.1157)"
           id="use5733"
           xlink:href="#rect5683"
           y="0"
           x="0" />
        <use
           x="0"
           y="0"
           xlink:href="#rect5683"
           id="use5735"
           transform="matrix(0,-1,1,0,127.7263,274.1157)"
           width="384"
           height="256" />
        <use
           height="256"
           width="384"
           transform="matrix(0,-1,1,0,131.6013,274.1157)"
           id="use5737"
           xlink:href="#rect5683"
           y="0"
           x="0" />
        <use
           x="0"
           y="0"
           xlink:href="#rect5683"
           id="use5739"
           transform="matrix(0,-1,1,0,135.4763,274.1157)"
           width="384"
           height="256" />
        <use
           height="256"
           width="384"
           transform="matrix(0,-1,1,0,135.4763,274.1157)"
           id="use5741"
           xlink:href="#rect5683"
           y="0"
           x="0" />
        <use
           x="0"
           y="0"
           xlink:href="#rect5683"
           id="use5743"
           transform="matrix(-1,0,0,-1,387.0236,158.409)"
           width="384"
           height="256" />
        <use
           height="256"
           width="384"
           transform="matrix(-1,0,0,-1,386.8986,155.3465)"
           id="use5745"
           xlink:href="#rect5683"
           y="0"
           x="0" />
        <use
           x="0"
           y="0"
           xlink:href="#rect5683"
           id="use5747"
           transform="matrix(-1,0,0,-1,386.7736,152.284)"
           width="384"
           height="256" />
        <use
           height="256"
           width="384"
           transform="matrix(-1,0,0,-1,386.6486,149.2215)"
           id="use5749"
           xlink:href="#rect5683"
           y="0"
           x="0" />
        <use
           x="0"
           y="0"
           xlink:href="#rect5683"
           id="use5751"
           transform="matrix(-1,0,0,-1,386.5236,146.159)"
           width="384"
           height="256" />
        <use
           height="256"
           width="384"
           transform="matrix(-1,0,0,-1,386.3986,143.0965)"
           id="use5753"
           xlink:href="#rect5683"
           y="0"
           x="0" />
        <use
           x="0"
           y="0"
           xlink:href="#rect5683"
           id="use5755"
           transform="matrix(-1,0,0,-1,386.2736,140.034)"
           width="384"
           height="256" />
        <use
           height="256"
           width="384"
           transform="matrix(-1,0,0,-1,386.1486,136.9715)"
           id="use5757"
           xlink:href="#rect5683"
           y="0"
           x="0" />
        <use
           x="0"
           y="0"
           xlink:href="#rect5683"
           id="use5759"
           transform="matrix(-1,0,0,-1,386.0236,133.909)"
           width="384"
           height="256" />
      </g>
      <use
         height="256"
         width="384"
         transform="translate(1346.811,-503.3205)"
         id="use5761"
         xlink:href="#rect4702"
         y="0"
         x="0" />
      <use
         x="0"
         y="0"
         xlink:href="#rect4702"
         id="use5763"
         transform="translate(1393.686,-456.4455)"
         width="384"
         height="256" />
      <use
         height="256"
         width="384"
         transform="translate(1440.561,-409.5705)"
         id="use5765"
         xlink:href="#rect4702"
         y="0"
         x="0" />
      <use
         x="0"
         y="0"
         xlink:href="#rect4702"
         id="use5767"
         transform="translate(1475.717,-362.6955)"
         width="384"
         height="256" />
      <use
         height="256"
         width="384"
         transform="translate(1522.592,-304.1018)"
         id="use5769"
         xlink:href="#rect4702"
         y="0"
         x="0" />
      <use
         x="0"
         y="0"
         xlink:href="#rect4702"
         id="use5771"
         transform="translate(1569.467,-245.508)"
         width="384"
         height="256" />
      <use
         height="256"
         width="384"
         transform="translate(1616.342,-186.9143)"
         id="use5773"
         xlink:href="#rect4702"
         y="0"
         x="0" />
      <use
         x="0"
         y="0"
         xlink:href="#rect4702"
         id="use5775"
         transform="translate(1651.499,-128.3206)"
         width="384"
         height="256" />
      <use
         height="256"
         width="384"
         transform="translate(1698.374,-69.72682)"
         id="use5777"
         xlink:href="#rect4702"
         y="0"
         x="0" />
      <use
         x="0"
         y="0"
         xlink:href="#rect4702"
         id="use5779"
         transform="translate(1745.249,-11.13307)"
         width="384"
         height="256" />
      <use
         height="256"
         width="384"
         transform="translate(1780.405,59.17943)"
         id="use5781"
         xlink:href="#rect4702"
         y="0"
         x="0" />
      <use
         x="0"
         y="0"
         xlink:href="#rect4702"
         id="use5783"
         transform="translate(1827.28,117.7732)"
         width="384"
         height="256" />
      <use
         x="0"
         y="0"
         xlink:href="#rect4702"
         id="use5787"
         transform="translate(1604.624,-327.5393)"
         width="384"
         height="256" />
      <use
         height="256"
         width="384"
         transform="translate(1651.499,-374.4143)"
         id="use5789"
         xlink:href="#rect4702"
         y="0"
         x="0" />
      <use
         x="0"
         y="0"
         xlink:href="#rect4702"
         id="use5791"
         transform="translate(1698.374,-421.2893)"
         width="384"
         height="256" />
      <path
         sodipodi:nodetypes="cccs"
         id="path5895"
         d="M 3078.2946,2284.5703 C 3130.908,2248.7063 3181.9078,2221.8352 3221.4713,2184.3469 C 3260.7923,2275.868 3184.6798,2434.0336 3071.1359,2356.1578 C 3059.7858,2335.7297 3046.1002,2306.5148 3078.2946,2284.5703 z "
         style="fill:#dbb495;fill-opacity:1;fill-rule:evenodd;stroke:none;stroke-width:1px;stroke-linecap:butt;stroke-linejoin:miter;stroke-opacity:1" />
      <path
         id="path5932"
         d="M 3344.2383,1805.4188 C 3344.2291,1805.5172 3344.2359,1806.0844 3344.2383,1806.1523 C 3344.2502,1806.2039 3344.2282,1806.818 3344.2383,1806.8836 C 3344.231,1807.0242 3344.261,1807.4203 3344.2383,1807.6172 C 3343.6887,1812.4031 3342.6886,1818.4359 3339.1113,1825.1953 L 3339.1113,1825.9266 C 3339.0975,1825.9664 3339.1392,1826.6016 3339.1113,1826.6602 C 3339.015,1826.8359 3338.5936,1827.0492 3338.3789,1827.3914 L 3337.6465,1828.125 C 3336.6738,1829.6016 3335.9749,1830.3188 3334.7168,1831.7859 L 3334.7168,1832.5195 C 3334.5431,1832.7117 3334.0727,1833.1594 3333.9844,1833.2508 L 3333.252,1833.2508 C 3333.1488,1833.3539 3332.6602,1833.818 3332.5195,1833.9844 C 3330.0701,1837.1273 3324.2805,1846.0195 3319.3359,1853.7586 C 3314.0381,1862.0531 3310.0409,1869.525 3305.4199,1875 C 3305.2641,1875.1781 3304.8455,1875.5578 3304.6875,1875.7313 L 3303.9551,1875.7313 C 3303.9614,1875.7711 3303.9537,1876.4227 3303.9551,1876.4648 C 3303.9178,1876.4648 3303.2848,1876.4437 3303.2227,1876.4648 C 3303.0844,1876.5609 3302.6798,1877.0461 3302.4902,1877.1961 L 3300.293,1879.3945 L 3296.6309,1880.1258 C 3296.625,1880.1281 3295.3013,1880.1211 3295.166,1880.1258 C 3295.0313,1880.1281 3294.6122,1880.1305 3294.4336,1880.1258 C 3294.3443,1880.1258 3293.8912,1880.1352 3293.7012,1880.1258 C 3293.4656,1880.1094 3291.5065,1880.1281 3291.5039,1880.1258 L 3291.5039,1879.3945 C 3277.9155,1875.6516 3266.9135,1866.7828 3256.3477,1858.1531 C 3247.1025,1850.6039 3237.6572,1843.2023 3232.9102,1840.575 C 3232.752,1840.4953 3232.324,1839.9117 3232.1777,1839.8438 C 3232.0437,1839.7875 3231.5667,1839.8859 3231.4453,1839.8438 C 3231.2428,1840.2047 3230.8362,1841.0461 3230.7129,1841.3086 C 3230.6269,1841.2969 3230.0477,1841.3109 3229.9805,1841.3086 C 3229.9076,1841.3836 3229.309,1841.9836 3229.248,1842.0398 C 3223.3291,1853.7516 3215.9913,1869.1078 3205.8105,1883.0555 C 3234.1418,1904.8711 3273.6916,1941.0328 3296.6309,1987.0594 C 3346.4883,2087.1 3446.433,2066.1094 3452.6367,2064.6961 C 3448.2577,2029.0805 3441.0478,2018.7187 3432.8613,2014.8914 C 3412.3608,2006.257 3384.0337,2034.2906 3365.4785,1812.743 C 3354.101,1807.207 3347.5676,1806.2766 3344.2383,1805.4188 z "
         style="fill:#dbb495;fill-opacity:1;fill-rule:evenodd;stroke:none;stroke-width:1px;stroke-linecap:butt;stroke-linejoin:miter;stroke-opacity:1" />
      <path
         sodipodi:nodetypes="cc"
         id="path5597"
         d="M 3694.5574,2278.4227 C 3694.5574,2199.6609 3687.443,2119.9828 3660.9195,2081.1891"
         style="fill:none;fill-opacity:0.75;fill-rule:evenodd;stroke:#000000;stroke-width:23.4375px;stroke-linecap:round;stroke-linejoin:miter;stroke-opacity:1" />
      <path
         id="path6039"
         d="M 5797.8516,3156.7383 C 5795.8261,3161.0859 5793.3216,3167.0156 5791.9922,3172.8516 C 5790.9427,3177.4594 5790.402,3181.9523 5790.5273,3185.3016 C 5790.578,3186.1664 5791.1454,3187.4977 5791.2598,3188.2313 C 5791.3245,3188.5828 5791.181,3189.382 5791.2598,3189.6961 C 5791.3451,3189.9937 5791.8942,3190.9055 5791.9922,3191.1609 C 5792.0442,3191.2805 5791.9373,3191.7867 5791.9922,3191.8945 C 5792.0524,3191.9813 5792.6618,3192.5508 5792.7246,3192.6258 C 5803.6155,3203.5172 5814.6637,3218.55 5827.1484,3227.0508 C 5828.7171,3228.0844 5830.6465,3229.1648 5832.2754,3229.9805 C 5843.8809,3235.7836 5861.6555,3240.3164 5874.7559,3253.418 C 5888.5662,3267.2273 5901.9187,3287.9039 5914.3066,3300.293 C 5918.8092,3304.7953 5925.5606,3312.3234 5932.6172,3319.3359 C 5939.6737,3326.3461 5947.879,3332.8266 5950.1953,3333.9844 C 5955.0527,3336.4125 5959.0903,3336.8531 5965.5762,3336.9141 C 5972.062,3336.975 5980.8134,3336.1805 5991.9434,3336.1805 C 6005.1893,3336.1805 6013.8839,3334.9875 6022.7051,3333.2508 C 5959.3137,3276.6961 5893.3484,3219.3141 5797.8516,3156.7383 z "
         style="fill:#dbb495;fill-opacity:1;fill-rule:evenodd;stroke:none;stroke-width:1px;stroke-linecap:butt;stroke-linejoin:miter;stroke-opacity:1" />
      <use
         x="0"
         y="0"
         xlink:href="#rect4702"
         id="use11229"
         transform="translate(449.6473,-769.6096)"
         width="384"
         height="256" />
      <use
         height="256"
         width="384"
         transform="translate(449.6473,-698.2885)"
         id="use11231"
         xlink:href="#rect4702"
         y="0"
         x="0" />
      <use
         x="0"
         y="0"
         xlink:href="#rect4702"
         id="use11233"
         transform="translate(449.6473,-127.7204)"
         width="384"
         height="256" />
      <use
         height="256"
         width="384"
         transform="translate(449.6473,-199.0416)"
         id="use11235"
         xlink:href="#rect4702"
         y="0"
         x="0" />
      <use
         x="0"
         y="0"
         xlink:href="#rect4702"
         id="use11237"
         transform="translate(449.6473,-270.3625)"
         width="384"
         height="256" />
      <use
         height="256"
         width="384"
         transform="translate(449.6473,-341.6834)"
         id="use11239"
         xlink:href="#rect4702"
         y="0"
         x="0" />
      <use
         x="0"
         y="0"
         xlink:href="#rect4702"
         id="use11241"
         transform="translate(449.6473,-413.0044)"
         width="384"
         height="256" />
      <use
         height="256"
         width="384"
         transform="translate(449.6473,-484.3254)"
         id="use11243"
         xlink:href="#rect4702"
         y="0"
         x="0" />
      <use
         x="0"
         y="0"
         xlink:href="#rect4702"
         id="use11245"
         transform="translate(449.6473,-555.6465)"
         width="384"
         height="256" />
      <use
         height="256"
         width="384"
         transform="translate(449.6473,-626.9678)"
         id="use11247"
         xlink:href="#rect4702"
         y="0"
         x="0" />
      <use
         height="256"
         width="384"
         transform="translate(496.4247,-62.42806)"
         id="use11249"
         xlink:href="#rect4702"
         y="0"
         x="0" />
      <use
         x="0"
         y="0"
         xlink:href="#rect4702"
         id="use11251"
         transform="translate(1239.665,-46.7917)"
         width="384"
         height="256" />
      <use
         height="256"
         width="384"
         transform="translate(563.7554,-61.15533)"
         id="use11253"
         xlink:href="#rect4702"
         y="0"
         x="0" />
      <use
         x="0"
         y="0"
         xlink:href="#rect4702"
         id="use11255"
         transform="translate(1169.735,-50.51897)"
         width="384"
         height="256" />
      <use
         height="256"
         width="384"
         transform="translate(1102.404,-49.88261)"
         id="use11257"
         xlink:href="#rect4702"
         y="0"
         x="0" />
      <use
         x="0"
         y="0"
         xlink:href="#rect4702"
         id="use11259"
         transform="translate(1035.073,-49.24624)"
         width="384"
         height="256" />
      <use
         height="256"
         width="384"
         transform="translate(967.7418,-48.60988)"
         id="use11261"
         xlink:href="#rect4702"
         y="0"
         x="0" />
      <use
         x="0"
         y="0"
         xlink:href="#rect4702"
         id="use11263"
         transform="translate(900.4111,-52.97351)"
         width="384"
         height="256" />
      <use
         height="256"
         width="384"
         transform="translate(833.08,-52.33715)"
         id="use11265"
         xlink:href="#rect4702"
         y="0"
         x="0" />
      <use
         x="0"
         y="0"
         xlink:href="#rect4702"
         id="use11267"
         transform="translate(765.7487,-56.70079)"
         width="384"
         height="256" />
      <use
         height="256"
         width="384"
         transform="translate(698.4177,-56.06442)"
         id="use11269"
         xlink:href="#rect4702"
         y="0"
         x="0" />
      <use
         x="0"
         y="0"
         xlink:href="#rect4702"
         id="use11271"
         transform="translate(631.0864,-55.42806)"
         width="384"
         height="256" />
      <use
         height="256"
         width="384"
         transform="translate(1239.665,-117.9973)"
         id="use11273"
         xlink:href="#rect4702"
         y="0"
         x="0" />
      <use
         x="0"
         y="0"
         xlink:href="#rect4702"
         id="use11275"
         transform="translate(1239.665,-189.2028)"
         width="384"
         height="256" />
      <use
         height="256"
         width="384"
         transform="translate(1239.665,-260.4083)"
         id="use11277"
         xlink:href="#rect4702"
         y="0"
         x="0" />
      <use
         x="0"
         y="0"
         xlink:href="#rect4702"
         id="use11279"
         transform="translate(1239.665,-331.6137)"
         width="384"
         height="256" />
      <use
         height="256"
         width="384"
         transform="translate(1239.665,-402.8194)"
         id="use11281"
         xlink:href="#rect4702"
         y="0"
         x="0" />
      <use
         x="0"
         y="0"
         xlink:href="#rect4702"
         id="use11283"
         transform="translate(1239.665,-474.025)"
         width="384"
         height="256" />
      <use
         height="256"
         width="384"
         transform="translate(1239.665,-545.2303)"
         id="use11285"
         xlink:href="#rect4702"
         y="0"
         x="0" />
      <use
         x="0"
         y="0"
         xlink:href="#rect4702"
         id="use11287"
         transform="translate(1239.665,-616.436)"
         width="384"
         height="256" />
      <use
         height="256"
         width="384"
         transform="translate(1239.665,-687.6415)"
         id="use11289"
         xlink:href="#rect4702"
         y="0"
         x="0" />
      <use
         x="0"
         y="0"
         xlink:href="#rect4702"
         id="use11291"
         transform="translate(1239.665,-758.8469)"
         width="384"
         height="256" />
    </g>
  </g>
</svg>
