<?xml version="1.0" encoding="UTF-8" standalone="no"?>
<!-- Created with Inkscape (http://www.inkscape.org/) -->
<svg
   xmlns:dc="http://purl.org/dc/elements/1.1/"
   xmlns:cc="http://web.resource.org/cc/"
   xmlns:rdf="http://www.w3.org/1999/02/22-rdf-syntax-ns#"
   xmlns:svg="http://www.w3.org/2000/svg"
   xmlns="http://www.w3.org/2000/svg"
   xmlns:sodipodi="http://inkscape.sourceforge.net/DTD/sodipodi-0.dtd"
   xmlns:inkscape="http://www.inkscape.org/namespaces/inkscape"
   width="600"
   height="300"
   id="svg2"
   sodipodi:version="0.32"
   inkscape:version="0.43"
   version="1.0"
   sodipodi:docbase="C:\Documents and Settings\David Nelson\Archives\Svg"
   sodipodi:docname="Flag of Tokelau.svg">
  <defs
     id="defs4" />
  <sodipodi:namedview
     id="base"
     pagecolor="#ffffff"
     bordercolor="#666666"
     borderopacity="1.0"
     inkscape:pageopacity="0.0"
     inkscape:pageshadow="2"
     inkscape:zoom="1.1083332"
     inkscape:cx="300.00002"
     inkscape:cy="150.00001"
     inkscape:document-units="px"
     inkscape:current-layer="layer1"
     inkscape:window-width="756"
     inkscape:window-height="540"
     inkscape:window-x="108"
     inkscape:window-y="135" />
  <metadata
     id="metadata7">
    <rdf:RDF>
      <cc:Work
         rdf:about="">
        <dc:format>image/svg+xml</dc:format>
        <dc:type
           rdf:resource="http://purl.org/dc/dcmitype/StillImage" />
      </cc:Work>
    </rdf:RDF>
  </metadata>
  <g
     inkscape:label="Layer 1"
     inkscape:groupmode="layer"
     id="layer1">
    <g
       id="g2333">
      <rect
         y="-2.4000001e-005"
         x="0"
         height="300.00003"
         width="600.00006"
         id="rect2311"
         style="fill:#003994;fill-opacity:1;fill-rule:evenodd;stroke:none;stroke-width:10;stroke-linecap:round;stroke-linejoin:round;stroke-miterlimit:4;stroke-dasharray:none;stroke-dashoffset:0;stroke-opacity:0.50196078" />
      <path
         sodipodi:nodetypes="ccscccscccscccccscscccscc"
         id="path1350"
         d="M 377.95431,188.80889 L 390.83911,188.80889 C 390.83911,188.80889 395.54109,182.98877 397.63518,173.27805 C 399.72927,163.56732 399.21548,149.96599 399.28264,144.90232 C 403.88237,144.3291 404.22724,155.97427 410.11413,160.22818 C 412.04349,150.06686 405.50089,146.7669 404.80825,141.82245 C 407.2778,141.908 408.99049,142.06688 412.38699,144.70515 C 415.78349,147.34343 418.23913,151.26806 419.09266,152.44268 C 421.61645,142.04485 412.97541,137.97704 406.02437,134.25341 C 413.56895,130.28261 418.06274,136.53147 421.14227,139.17853 C 422.05196,132.06505 414.39416,127.52032 409.49059,126.56589 C 404.58702,125.61146 401.63139,127.29339 398.85484,129.05263 C 399.92807,123.50244 399.96585,117.27138 407.06442,113.88614 C 405.09592,111.87289 397.38218,107.13429 391.81498,119.74507 C 382.66867,113.02864 378.53217,118.88944 379.90043,122.8041 C 376.25795,119.32192 367.80636,116.77378 361.49039,123.90765 C 365.13093,125.45252 367.20185,126.03588 370.52145,127.40872 C 373.84104,128.78156 377.21629,129.51224 381.31809,132.78336 C 383.07073,134.29962 379.36789,131.78323 374.92765,137.11128 C 372.34074,140.21545 372.2294,146.78333 372.94128,150.09002 C 374.72886,148.82042 376.31857,145.05454 380.8652,144.41164 C 378.96942,149.25671 376.92867,158.1792 380.99961,161.05025 C 385.30917,153.42257 385.11241,152.27035 387.08354,150.26839 C 389.0547,148.26645 393.19377,145.41475 393.76741,144.88685 C 395.3987,177.58078 377.95431,188.80889 377.95431,188.80889 z "
         style="fill:#009410;fill-opacity:1;fill-rule:evenodd;stroke:none;stroke-width:0.25;stroke-linecap:butt;stroke-linejoin:round;stroke-miterlimit:4;stroke-dasharray:none;stroke-opacity:1" />
      <path
         id="path2237"
         d="M 297.65627,77.083315 C 260.55047,78.261318 230.332,107.41824 227.34377,144.05381 L 240.97224,150.86804 C 240.96819,150.58199 240.97224,150.28703 240.97224,149.99999 C 240.97224,117.3407 267.34073,90.972206 300.00002,90.972206 C 316.37221,90.972208 331.162,97.612375 341.84031,108.33332 L 359.76565,108.33332 C 346.56246,89.465829 324.6945,77.083315 300.00002,77.083315 C 299.3723,77.083315 298.7577,77.06742 298.1337,77.083315 C 297.98015,77.087228 297.80961,77.078447 297.65627,77.083315 z M 233.50696,179.9045 C 244.95771,205.22546 270.47617,222.91666 300.00002,222.91666 C 324.6945,222.91666 346.56246,210.53415 359.76565,191.66666 L 341.84031,191.66666 C 331.162,202.3876 316.37219,209.02777 300.00002,209.02777 C 284.20194,209.02777 269.86983,202.86248 259.28822,192.79513 L 259.24481,192.75173 L 233.50696,179.9045 z "
         style="fill:#ffef00;fill-opacity:1;fill-rule:evenodd;stroke:none;stroke-width:19.15785408;stroke-linecap:round;stroke-linejoin:round;stroke-miterlimit:4;stroke-dashoffset:0;stroke-opacity:1" />
      <path
         id="path2229"
         d="M 297.56947,24.305533 C 239.89526,25.402313 191.60439,65.56214 178.08161,119.35762 L 190.84203,125.73783 C 201.91436,75.633765 246.54423,38.194423 300.00002,38.194423 C 347.06861,38.194425 387.31471,67.191086 403.81948,108.33332 L 418.57642,108.33332 C 401.34646,59.454961 354.7027,24.305533 300.00002,24.305533 C 299.72929,24.305533 299.4457,24.303815 299.17537,24.305533 C 298.63682,24.308956 298.10641,24.295322 297.56947,24.305533 z M 174.30557,150.217 C 174.42133,219.42652 230.76392,275.69444 300.00002,275.69444 C 354.7027,275.69446 401.34646,240.54501 418.57642,191.66666 L 403.81948,191.66666 C 387.31471,232.8089 347.06861,261.80555 300.00002,261.80555 C 240.65126,261.80557 192.1535,215.6881 188.41147,157.29166 L 174.30557,150.217 z "
         style="fill:#ffef00;fill-opacity:1;fill-rule:evenodd;stroke:none;stroke-width:10.64327526;stroke-linecap:round;stroke-linejoin:round;stroke-miterlimit:4;stroke-dashoffset:0;stroke-opacity:1" />
      <path
         id="path2235"
         d="M 297.43926,50.694425 C 250.12958,51.894576 210.94877,86.388309 202.43057,131.55381 L 215.408,138.06422 C 221.21111,96.513048 256.83256,64.583315 300.00002,64.583315 C 332.07894,64.583313 359.96301,82.229106 374.566,108.33332 L 390.1476,108.33332 C 374.36182,74.334358 339.87269,50.694425 300.00002,50.694425 C 299.35854,50.694425 298.72894,50.68224 298.0903,50.694425 C 297.87991,50.698438 297.64933,50.689095 297.43926,50.694425 z M 201.64932,163.93228 C 208.45361,212.09862 249.99163,249.30555 300.00002,249.30555 C 339.87269,249.30555 374.36182,225.66562 390.1476,191.66666 L 374.566,191.66666 C 359.96301,217.77087 332.07894,235.41666 300.00002,235.41666 C 260.30867,235.41666 227.02274,208.43276 217.40453,171.78818 L 201.64932,163.93228 z "
         style="fill:#ffef00;fill-opacity:1;fill-rule:evenodd;stroke:none;stroke-width:13.68419075;stroke-linecap:round;stroke-linejoin:round;stroke-miterlimit:4;stroke-dashoffset:0;stroke-opacity:1" />
      <path
         transform="matrix(1.388889,0,0,1.388889,0,-2.4e-5)"
         d="M 129,87.5 L 131.46987,95.100511 L 139.46162,95.100813 L 132.99634,99.798489 L 135.46564,107.39919 L 129,102.702 L 122.53436,107.39919 L 125.00366,99.798489 L 118.53838,95.100813 L 126.53013,95.100511 L 129,87.5 z "
         inkscape:randomized="0"
         inkscape:rounded="0"
         inkscape:flatsided="false"
         sodipodi:arg2="-0.9424778"
         sodipodi:arg1="-1.5707963"
         sodipodi:r2="4.2019997"
         sodipodi:r1="11"
         sodipodi:cy="98.5"
         sodipodi:cx="129"
         sodipodi:sides="5"
         id="path2304"
         style="fill:#ffffff;fill-opacity:1;fill-rule:evenodd;stroke:none;stroke-width:10;stroke-linecap:round;stroke-linejoin:round;stroke-miterlimit:4;stroke-dasharray:none;stroke-dashoffset:0;stroke-opacity:0.50196078"
         sodipodi:type="star" />
      <path
         transform="matrix(1.388889,0,0,1.388889,29.16614,13.88887)"
         sodipodi:type="star"
         style="fill:#ffffff;fill-opacity:1;fill-rule:evenodd;stroke:none;stroke-width:10;stroke-linecap:round;stroke-linejoin:round;stroke-miterlimit:4;stroke-dasharray:none;stroke-dashoffset:0;stroke-opacity:0.50196078"
         id="path2306"
         sodipodi:sides="5"
         sodipodi:cx="129"
         sodipodi:cy="98.5"
         sodipodi:r1="11"
         sodipodi:r2="4.2019997"
         sodipodi:arg1="-1.5707963"
         sodipodi:arg2="-0.9424778"
         inkscape:flatsided="false"
         inkscape:rounded="0"
         inkscape:randomized="0"
         d="M 129,87.5 L 131.46987,95.100511 L 139.46162,95.100813 L 132.99634,99.798489 L 135.46564,107.39919 L 129,102.702 L 122.53436,107.39919 L 125.00366,99.798489 L 118.53838,95.100813 L 126.53013,95.100511 L 129,87.5 z " />
      <path
         d="M 129,87.5 L 131.46987,95.100511 L 139.46162,95.100813 L 132.99634,99.798489 L 135.46564,107.39919 L 129,102.702 L 122.53436,107.39919 L 125.00366,99.798489 L 118.53838,95.100813 L 126.53013,95.100511 L 129,87.5 z "
         inkscape:randomized="0"
         inkscape:rounded="0"
         inkscape:flatsided="false"
         sodipodi:arg2="-0.9424778"
         sodipodi:arg1="-1.5707963"
         sodipodi:r2="4.2019997"
         sodipodi:r1="11"
         sodipodi:cy="98.5"
         sodipodi:cx="129"
         sodipodi:sides="5"
         id="path2308"
         style="fill:#ffffff;fill-opacity:1;fill-rule:evenodd;stroke:none;stroke-width:10;stroke-linecap:round;stroke-linejoin:round;stroke-miterlimit:4;stroke-dasharray:none;stroke-dashoffset:0;stroke-opacity:0.50196078"
         sodipodi:type="star"
         transform="matrix(1.388889,0,0,1.388889,58.33281,29.16638)" />
    </g>
  </g>
</svg>
