<?xml version="1.0" encoding="UTF-8" standalone="no"?>
<!-- Created with Inkscape (http://www.inkscape.org/) -->
<svg
   xmlns:svg="http://www.w3.org/2000/svg"
   xmlns="http://www.w3.org/2000/svg"
   version="1.0"
   x="0.0000000"
   y="0.0000000"
   width="744.09448"
   height="496.06299"
   id="svg548">
  <defs
     id="defs550" />
  <rect
     width="744.06134"
     height="496.04398"
     x="0.038207643"
     y="0.022900285"
     style="opacity:1.0000000;fill:#6abd51;fill-opacity:1.0000000;fill-rule:evenodd;stroke:none;stroke-width:2.0000000;stroke-linecap:round;stroke-linejoin:round;stroke-miterlimit:4.0000000;stroke-dasharray:none;stroke-dashoffset:0.0000000;stroke-opacity:1.0000000"
     id="rect1331" />
  <path
     d="M 0.0000000,438.03156 L 0.0000000,-0.00014500000 L 0.0000000,-0.00014500000 L 658.53190,-0.00014500000"
     style="font-size:12.000000px;opacity:0.37912086;fill:none;fill-opacity:1.0000000;fill-rule:evenodd;stroke-width:1.0000000pt"
     id="path2078" />
  <path
     d="M 658.53190,-0.00014500000 L 744.09448,-0.00014500000 L 744.09448,496.06287 L 0.0000000,496.06287 L 0.0000000,438.03156"
     style="font-size:12.000000px;opacity:0.37912086;fill:none;fill-opacity:1.0000000;fill-rule:evenodd;stroke-width:1.0000000pt"
     id="rect2060" />
  <g
     transform="translate(-1.187469,-1.883881)"
     id="g5789">
    <path
       d="M 507.01059 249.91537 A 133.77588 133.77588 0 1 1  239.45883,249.91537 A 133.77588 133.77588 0 1 1  507.01059 249.91537 z"
       style="opacity:1.0000000;fill:#ffe131;fill-opacity:1.0000000;fill-rule:evenodd;stroke:none;stroke-width:2.0000000;stroke-linecap:round;stroke-linejoin:round;stroke-miterlimit:4.0000000;stroke-dasharray:none;stroke-dashoffset:0.0000000;stroke-opacity:1.0000000"
       id="path1329" />
    <path
       d="M 321.78680,237.38603 C 315.88022,234.04008 315.92284,226.52207 316.22570,220.59472 C 315.73058,217.61072 314.92969,209.93413 318.82226,215.82388 C 321.21644,219.30234 325.21494,226.84417 329.58204,224.28029 C 325.35926,220.10031 323.13585,213.64878 325.58843,207.92354 C 327.89337,202.30867 330.96218,196.26107 337.36812,194.55474 C 343.11236,191.74841 349.37129,190.41944 355.29319,188.14546 C 360.29088,185.05188 365.06513,181.30641 368.09173,176.13106 C 369.12651,173.49131 375.28472,166.12377 372.89883,173.02638 C 371.20264,177.50041 369.37002,184.92612 368.09825,187.53716 C 375.10760,185.95496 380.94822,181.15777 384.74880,175.18921 C 390.83479,168.96969 397.91633,163.08388 406.61685,161.22991 C 414.57821,159.34364 402.62382,164.29610 403.82463,168.20180 C 403.27483,170.50677 401.25501,179.84203 405.39193,173.96980 C 410.46253,170.23843 415.53092,166.36415 420.85676,162.89005 C 427.67497,159.56374 435.49789,161.72398 442.76499,161.04268 C 446.95791,162.66948 454.97062,150.76091 450.74518,159.93709 C 448.01995,166.48659 440.46296,168.21655 434.16027,169.30652 C 429.94392,169.57876 423.02181,173.62384 422.91969,176.44209 C 427.80204,171.51008 435.52698,177.09418 441.40195,173.54236 C 443.71825,172.17565 446.51969,168.32209 443.85972,173.28015 C 441.86610,177.73013 436.98174,181.67846 434.05094,183.98488 C 441.03854,183.09970 448.31544,183.97703 454.87917,180.76493 C 458.41842,181.72818 451.69208,189.87154 448.00647,190.05365 C 441.79442,192.39561 435.03464,192.27952 428.67827,193.75983 C 423.25612,193.97103 419.87263,201.78071 419.83018,204.30085 C 421.37264,200.08748 430.57771,198.25529 431.23069,198.92167 C 427.50694,202.48383 425.14495,207.24951 423.42299,212.06871 C 420.71601,217.47092 428.25941,209.15849 430.72141,208.71653 C 437.68703,206.80204 440.39443,215.13962 446.16773,216.84863 C 452.01429,219.06082 458.10788,216.18329 463.29995,214.31328 C 459.71671,218.81996 457.57365,225.20802 451.78527,227.39306 C 444.98260,230.49998 438.68572,225.20899 431.88496,225.64157 C 428.74700,224.77788 425.11536,232.09496 431.62098,229.12161 C 440.24788,231.32236 439.05429,234.52969 444.53607,237.12250 C 447.92036,238.39472 456.02816,236.33327 456.60792,238.22963 C 450.61764,241.47239 444.48669,249.03922 437.46810,243.32318 C 435.05477,241.57573 423.68746,241.41062 431.60510,242.61756 C 435.74439,247.60246 442.04872,251.27463 448.71671,249.73763 C 457.71240,247.47178 445.76845,254.86781 442.45627,254.82948 C 436.28950,255.88087 429.71598,258.37146 423.91055,254.71555 C 417.49409,254.37140 412.24858,249.99138 405.90664,249.70678 C 402.39115,248.88504 409.11800,254.46757 410.14486,255.76467 C 412.77882,257.78540 424.28750,256.66630 416.45155,259.76801 C 411.35313,263.50046 404.22651,263.19911 398.45854,261.74181 C 392.97474,259.16408 387.23946,253.81762 380.75970,255.86851 C 375.77052,259.91821 369.68778,263.40179 363.01429,263.15656 C 356.99372,263.05850 353.30341,257.56885 349.91658,253.36423 C 346.28389,245.91227 336.79020,246.03562 330.22400,242.71395 C 327.46801,240.91934 323.80342,240.10042 321.78680,237.38603 z "
       style="fill:#ff222f;fill-opacity:1.0000000;fill-rule:evenodd;stroke:none;stroke-width:1.0000000pt;stroke-linecap:butt;stroke-linejoin:miter;stroke-opacity:1.0000000"
       id="path1335" />
    <g
       id="g5769">
      <path
         d="M 428.35190,365.81910 L 394.62341,345.84146 L 405.77975,358.29505 L 406.03920,364.78130 L 401.36910,364.52185 L 386.32101,350.25210 L 379.83476,340.65246 L 371.27291,337.02016 L 362.97051,331.83116 L 355.96536,324.30711 L 350.77636,324.04766 L 349.99801,334.68511 L 357.00316,340.13356 L 369.97566,349.21430 L 385.80211,360.37065 L 402.66635,369.45140 L 408.37425,372.82425 L 416.93610,371.00810 L 424.97905,368.41360 L 428.35190,365.81910 z "
         style="fill:#7d4b23;fill-opacity:1.0000000;fill-rule:evenodd;stroke:none;stroke-width:0.31200001;stroke-linecap:butt;stroke-linejoin:miter;stroke-miterlimit:4.0000000;stroke-dasharray:none;stroke-opacity:1.0000000"
         id="path1340" />
      <path
         d="M 370.75401,358.29505 L 380.35366,363.74350 L 391.25056,375.41875 L 386.58046,376.71600 L 374.12686,364.00295 L 369.19731,359.85175 L 370.75401,358.29505 z "
         style="fill:#7d4b23;fill-opacity:1.0000000;fill-rule:evenodd;stroke:none;stroke-width:0.31200001;stroke-linecap:butt;stroke-linejoin:miter;stroke-miterlimit:4.0000000;stroke-dasharray:none;stroke-opacity:1.0000000"
         id="path1342" />
      <path
         d="M 378.27806,376.45655 L 372.31071,377.23490 L 365.30556,373.08370 L 355.44646,363.22460 L 348.96021,357.51670 L 337.54441,351.03045 L 339.62001,347.65761 L 349.99801,348.17651 L 346.10626,341.94971 L 339.87946,335.46346 L 344.03066,336.24181 L 348.96021,341.43081 L 353.37086,347.39816 L 359.33821,355.18165 L 368.67841,366.33800 L 378.27806,376.45655 z "
         style="fill:#7d4b23;fill-opacity:1.0000000;fill-rule:evenodd;stroke:none;stroke-width:0.31200001;stroke-linecap:butt;stroke-linejoin:miter;stroke-miterlimit:4.0000000;stroke-dasharray:none;stroke-opacity:1.0000000"
         id="path1344" />
      <path
         d="M 298.88637,319.89646 L 299.66472,325.08546 L 305.70641,325.89589 L 314.75074,326.71650 L 318.35248,325.04319 L 315.75798,321.41089 L 312.35153,320.35705 L 298.88637,319.89646 z "
         style="fill:#7d4b23;fill-opacity:1.0000000;fill-rule:evenodd;stroke:none;stroke-width:0.31200001;stroke-linecap:butt;stroke-linejoin:miter;stroke-miterlimit:4.0000000;stroke-dasharray:none;stroke-opacity:1.0000000"
         id="path1346" />
      <path
         d="M 302.77812,312.11296 L 300.70252,316.52361 L 307.70767,317.56141 L 319.12346,318.85866 L 325.09081,318.59921 C 325.09081,318.59921 324.31246,314.18856 323.27466,313.92911 C 322.23686,313.66966 311.59941,311.59406 311.59941,311.59406 L 302.77812,312.11296 z "
         style="fill:#7d4b23;fill-opacity:1.0000000;fill-rule:evenodd;stroke:none;stroke-width:0.31200001;stroke-linecap:butt;stroke-linejoin:miter;stroke-miterlimit:4.0000000;stroke-dasharray:none;stroke-opacity:1.0000000"
         id="path1348" />
      <path
         d="M 304.59427,303.03221 L 303.81592,308.22121 L 316.26951,310.29681 L 325.35026,311.07516 L 327.42586,307.96176 L 317.30731,303.55111 L 304.59427,303.03221 z "
         style="fill:#7d4b23;fill-opacity:1.0000000;fill-rule:evenodd;stroke:none;stroke-width:0.31200001;stroke-linecap:butt;stroke-linejoin:miter;stroke-miterlimit:4.0000000;stroke-dasharray:none;stroke-opacity:1.0000000"
         id="path1350" />
      <path
         d="M 314.97226,295.76761 L 306.66987,295.24871 L 306.66987,299.65936 L 317.56676,301.21606 L 318.34511,298.10266 L 314.97226,295.76761 z "
         style="fill:#7d4b23;fill-opacity:1.0000000;fill-rule:evenodd;stroke:none;stroke-width:0.31200001;stroke-linecap:butt;stroke-linejoin:miter;stroke-miterlimit:4.0000000;stroke-dasharray:none;stroke-opacity:1.0000000"
         id="path1352" />
      <path
         d="M 324.31246,291.61641 L 320.93961,295.24871 L 328.46366,298.10266 L 334.69046,301.99441 L 329.24201,311.85351 L 330.27981,320.41536 L 338.32276,327.16106 L 343.51176,328.19886 L 346.36571,321.45316 L 347.40351,312.63186 L 344.80901,304.32946 L 341.43616,293.95146 L 328.46366,291.87586 L 324.31246,291.61641 z "
         style="fill:#7d4b23;fill-opacity:1.0000000;fill-rule:evenodd;stroke:none;stroke-width:0.31200001;stroke-linecap:butt;stroke-linejoin:miter;stroke-miterlimit:4.0000000;stroke-dasharray:none;stroke-opacity:1.0000000"
         id="path1354" />
      <path
         d="M 329.50146,327.67996 L 335.46881,332.60951 L 337.80386,340.13356 L 333.65266,347.13871 L 322.23686,347.65761 L 313.93446,338.57686 L 319.64236,330.27446 L 329.50146,327.67996 z "
         style="fill:#7d4b23;fill-opacity:1.0000000;fill-rule:evenodd;stroke:none;stroke-width:0.31200001;stroke-linecap:butt;stroke-linejoin:miter;stroke-miterlimit:4.0000000;stroke-dasharray:none;stroke-opacity:1.0000000"
         id="path1356" />
      <path
         d="M 300.96197,326.64216 L 293.95682,342.72806 L 296.81077,344.02531 L 303.55647,327.93941 L 300.96197,326.64216 z "
         style="fill:#7d4b23;fill-opacity:1.0000000;fill-rule:evenodd;stroke:none;stroke-width:0.31200001;stroke-linecap:butt;stroke-linejoin:miter;stroke-miterlimit:4.0000000;stroke-dasharray:none;stroke-opacity:1.0000000"
         id="path1358" />
      <path
         d="M 304.98344,328.32858 L 297.97829,344.41448 L 300.83224,345.71173 L 307.57794,329.62583 L 304.98344,328.32858 z "
         style="fill:#7d4b23;fill-opacity:1.0000000;fill-rule:evenodd;stroke:none;stroke-width:0.31200001;stroke-linecap:butt;stroke-linejoin:miter;stroke-miterlimit:4.0000000;stroke-dasharray:none;stroke-opacity:1.0000000"
         id="path1360" />
      <path
         d="M 309.39409,330.14473 L 302.38894,346.23063 L 305.24289,347.52788 L 311.98859,331.44198 L 309.39409,330.14473 z "
         style="fill:#7d4b23;fill-opacity:1.0000000;fill-rule:evenodd;stroke:none;stroke-width:0.31200001;stroke-linecap:butt;stroke-linejoin:miter;stroke-miterlimit:4.0000000;stroke-dasharray:none;stroke-opacity:1.0000000"
         id="path1362" />
      <path
         d="M 315.23171,289.80026 L 317.82621,290.83806 L 322.23686,283.83291 L 326.64751,271.11986 L 322.75576,269.56316 L 315.23171,289.80026 z "
         style="fill:#7d4b23;fill-opacity:1.0000000;fill-rule:evenodd;stroke:none;stroke-width:0.31200001;stroke-linecap:butt;stroke-linejoin:miter;stroke-miterlimit:4.0000000;stroke-dasharray:none;stroke-opacity:1.0000000"
         id="path1364" />
      <path
         d="M 328.98256,273.45491 L 324.57191,286.42741 L 332.87431,287.98411 L 337.02551,286.94631 L 340.13891,276.56831 L 328.98256,273.45491 z "
         style="fill:#7d4b23;fill-opacity:1.0000000;fill-rule:evenodd;stroke:none;stroke-width:0.31200001;stroke-linecap:butt;stroke-linejoin:miter;stroke-miterlimit:4.0000000;stroke-dasharray:none;stroke-opacity:1.0000000"
         id="path1366" />
      <path
         d="M 323.79356,261.00131 L 324.31246,266.96866 L 341.43616,275.01161 L 346.36571,271.37931 L 334.94991,264.89306 L 323.79356,261.00131 z "
         style="fill:#7d4b23;fill-opacity:1.0000000;fill-rule:evenodd;stroke:none;stroke-width:0.31200001;stroke-linecap:butt;stroke-linejoin:miter;stroke-miterlimit:4.0000000;stroke-dasharray:none;stroke-opacity:1.0000000"
         id="path1368" />
      <path
         d="M 320.68016,239.20752 L 321.71796,245.69377 L 332.09596,246.99102 L 341.43616,251.92057 L 353.88976,261.26076 L 355.96536,262.03911 L 359.59766,258.92572 L 350.51691,249.06662 L 338.32276,243.35872 L 326.90696,241.28312 L 320.68016,239.20752 z "
         style="fill:#7d4b23;fill-opacity:1.0000000;fill-rule:evenodd;stroke:none;stroke-width:0.31200001;stroke-linecap:butt;stroke-linejoin:miter;stroke-miterlimit:4.0000000;stroke-dasharray:none;stroke-opacity:1.0000000"
         id="path1370" />
      <path
         d="M 325.09081,248.02882 L 331.05816,252.69892 L 332.09596,256.59067 L 323.79356,255.03397 L 325.35026,258.40682 L 335.72826,263.33636 L 345.58736,268.26591 L 353.88976,263.33636 L 340.39836,253.73672 L 331.57706,249.32607 L 325.09081,248.02882 z "
         style="fill:#7d4b23;fill-opacity:1.0000000;fill-rule:evenodd;stroke:none;stroke-width:0.31200001;stroke-linecap:butt;stroke-linejoin:miter;stroke-miterlimit:4.0000000;stroke-dasharray:none;stroke-opacity:1.0000000"
         id="path1372" />
      <path
         d="M 323.13830,299.04216 L 321.93143,302.05932 L 325.25031,303.46733 L 326.65832,300.65131 L 323.13830,299.04216 z "
         style="fill:#7d4b23;fill-opacity:1.0000000;fill-rule:evenodd;stroke:none;stroke-width:0.25000000pt;stroke-linecap:butt;stroke-linejoin:miter;stroke-opacity:1.0000000"
         id="path5041" />
    </g>
  </g>
</svg>
